<?xml version="1.0" encoding="UTF-8" standalone="no"?>
<!DOCTYPE svg PUBLIC "-//W3C//DTD SVG 1.1//EN"
 "http://www.w3.org/Graphics/SVG/1.1/DTD/svg11.dtd">
<!-- Generated by graphviz version 2.43.0 (0)
 -->
<!-- Title: bustub::BoundStatement Pages: 1 -->
<svg width="354pt" height="370pt"
 viewBox="0.00 0.00 354.00 370.00" xmlns="http://www.w3.org/2000/svg" xmlns:xlink="http://www.w3.org/1999/xlink">
<g id="graph0" class="graph" transform="scale(1 1) rotate(0) translate(4 366)">
<title>bustub::BoundStatement</title>
<polygon fill="white" stroke="transparent" points="-4,4 -4,-366 350,-366 350,4 -4,4"/>
<!-- Node1 -->
<g id="node1" class="node">
<title>Node1</title>
<g id="a_node1"><a xlink:title=" ">
<polygon fill="#bfbfbf" stroke="black" points="0,-171.5 0,-190.5 137,-190.5 137,-171.5 0,-171.5"/>
<text text-anchor="middle" x="68.5" y="-178.5" font-family="Helvetica,sans-Serif" font-size="10.00">bustub::BoundStatement</text>
</a>
</g>
</g>
<!-- Node2 -->
<g id="node2" class="node">
<title>Node2</title>
<g id="a_node2"><a xlink:href="classbustub_1_1CreateStatement.html" target="_top" xlink:title=" ">
<polygon fill="white" stroke="black" points="190,-342.5 190,-361.5 329,-361.5 329,-342.5 190,-342.5"/>
<text text-anchor="middle" x="259.5" y="-349.5" font-family="Helvetica,sans-Serif" font-size="10.00">bustub::CreateStatement</text>
</a>
</g>
</g>
<!-- Node1&#45;&gt;Node2 -->
<g id="edge1" class="edge">
<title>Node1&#45;&gt;Node2</title>
<path fill="none" stroke="midnightblue" d="M76.88,-200.04C90.59,-232.72 123.17,-299.21 173,-333 178.66,-336.84 184.98,-339.92 191.54,-342.38"/>
<polygon fill="midnightblue" stroke="midnightblue" points="80.1,-198.66 73.1,-190.7 73.61,-201.28 80.1,-198.66"/>
</g>
<!-- Node3 -->
<g id="node3" class="node">
<title>Node3</title>
<g id="a_node3"><a xlink:href="classbustub_1_1DeleteStatement.html" target="_top" xlink:title=" ">
<polygon fill="white" stroke="black" points="190,-304.5 190,-323.5 329,-323.5 329,-304.5 190,-304.5"/>
<text text-anchor="middle" x="259.5" y="-311.5" font-family="Helvetica,sans-Serif" font-size="10.00">bustub::DeleteStatement</text>
</a>
</g>
</g>
<!-- Node1&#45;&gt;Node3 -->
<g id="edge2" class="edge">
<title>Node1&#45;&gt;Node3</title>
<path fill="none" stroke="midnightblue" d="M80.95,-199.55C97.8,-225.21 131.8,-271.07 173,-295 179.71,-298.89 187.13,-301.99 194.73,-304.45"/>
<polygon fill="midnightblue" stroke="midnightblue" points="83.68,-197.33 75.35,-190.79 77.78,-201.1 83.68,-197.33"/>
</g>
<!-- Node4 -->
<g id="node4" class="node">
<title>Node4</title>
<g id="a_node4"><a xlink:href="classbustub_1_1ExplainStatement.html" target="_top" xlink:title=" ">
<polygon fill="white" stroke="black" points="188,-266.5 188,-285.5 331,-285.5 331,-266.5 188,-266.5"/>
<text text-anchor="middle" x="259.5" y="-273.5" font-family="Helvetica,sans-Serif" font-size="10.00">bustub::ExplainStatement</text>
</a>
</g>
</g>
<!-- Node1&#45;&gt;Node4 -->
<g id="edge3" class="edge">
<title>Node1&#45;&gt;Node4</title>
<path fill="none" stroke="midnightblue" d="M86.92,-197.38C106.39,-214.79 139.61,-241.85 173,-257 181.45,-260.83 190.72,-263.92 199.95,-266.39"/>
<polygon fill="midnightblue" stroke="midnightblue" points="89.2,-194.72 79.45,-190.57 84.48,-199.9 89.2,-194.72"/>
</g>
<!-- Node5 -->
<g id="node5" class="node">
<title>Node5</title>
<g id="a_node5"><a xlink:href="classbustub_1_1IndexStatement.html" target="_top" xlink:title=" ">
<polygon fill="white" stroke="black" points="192.5,-228.5 192.5,-247.5 326.5,-247.5 326.5,-228.5 192.5,-228.5"/>
<text text-anchor="middle" x="259.5" y="-235.5" font-family="Helvetica,sans-Serif" font-size="10.00">bustub::IndexStatement</text>
</a>
</g>
</g>
<!-- Node1&#45;&gt;Node5 -->
<g id="edge4" class="edge">
<title>Node1&#45;&gt;Node5</title>
<path fill="none" stroke="midnightblue" d="M102,-194.2C122.2,-202.09 148.85,-211.92 173,-219 184.96,-222.51 198.04,-225.72 210.28,-228.46"/>
<polygon fill="midnightblue" stroke="midnightblue" points="103.22,-190.92 92.63,-190.5 100.65,-197.43 103.22,-190.92"/>
</g>
<!-- Node6 -->
<g id="node6" class="node">
<title>Node6</title>
<g id="a_node6"><a xlink:href="classbustub_1_1InsertStatement.html" target="_top" xlink:title=" ">
<polygon fill="white" stroke="black" points="192.5,-190.5 192.5,-209.5 326.5,-209.5 326.5,-190.5 192.5,-190.5"/>
<text text-anchor="middle" x="259.5" y="-197.5" font-family="Helvetica,sans-Serif" font-size="10.00">bustub::InsertStatement</text>
</a>
</g>
</g>
<!-- Node1&#45;&gt;Node6 -->
<g id="edge5" class="edge">
<title>Node1&#45;&gt;Node6</title>
<path fill="none" stroke="midnightblue" d="M147.4,-188.83C162.29,-190.33 177.74,-191.88 192.22,-193.34"/>
<polygon fill="midnightblue" stroke="midnightblue" points="147.5,-185.32 137.2,-187.81 146.8,-192.29 147.5,-185.32"/>
</g>
<!-- Node7 -->
<g id="node7" class="node">
<title>Node7</title>
<g id="a_node7"><a xlink:href="classbustub_1_1SelectStatement.html" target="_top" xlink:title=" ">
<polygon fill="white" stroke="black" points="191,-152.5 191,-171.5 328,-171.5 328,-152.5 191,-152.5"/>
<text text-anchor="middle" x="259.5" y="-159.5" font-family="Helvetica,sans-Serif" font-size="10.00">bustub::SelectStatement</text>
</a>
</g>
</g>
<!-- Node1&#45;&gt;Node7 -->
<g id="edge6" class="edge">
<title>Node1&#45;&gt;Node7</title>
<path fill="none" stroke="midnightblue" d="M147.15,-173.19C161.68,-171.73 176.76,-170.22 190.96,-168.79"/>
<polygon fill="midnightblue" stroke="midnightblue" points="146.8,-169.71 137.2,-174.19 147.5,-176.68 146.8,-169.71"/>
</g>
<!-- Node8 -->
<g id="node8" class="node">
<title>Node8</title>
<g id="a_node8"><a xlink:href="classbustub_1_1TransactionStatement.html" target="_top" xlink:title=" ">
<polygon fill="white" stroke="black" points="178.5,-114.5 178.5,-133.5 340.5,-133.5 340.5,-114.5 178.5,-114.5"/>
<text text-anchor="middle" x="259.5" y="-121.5" font-family="Helvetica,sans-Serif" font-size="10.00">bustub::TransactionStatement</text>
</a>
</g>
</g>
<!-- Node1&#45;&gt;Node8 -->
<g id="edge7" class="edge">
<title>Node1&#45;&gt;Node8</title>
<path fill="none" stroke="midnightblue" d="M102,-167.8C122.2,-159.91 148.85,-150.08 173,-143 184.96,-139.49 198.04,-136.28 210.28,-133.54"/>
<polygon fill="midnightblue" stroke="midnightblue" points="100.65,-164.57 92.63,-171.5 103.22,-171.08 100.65,-164.57"/>
</g>
<!-- Node9 -->
<g id="node9" class="node">
<title>Node9</title>
<g id="a_node9"><a xlink:href="classbustub_1_1UpdateStatement.html" target="_top" xlink:title=" ">
<polygon fill="white" stroke="black" points="188.5,-76.5 188.5,-95.5 330.5,-95.5 330.5,-76.5 188.5,-76.5"/>
<text text-anchor="middle" x="259.5" y="-83.5" font-family="Helvetica,sans-Serif" font-size="10.00">bustub::UpdateStatement</text>
</a>
</g>
</g>
<!-- Node1&#45;&gt;Node9 -->
<g id="edge8" class="edge">
<title>Node1&#45;&gt;Node9</title>
<path fill="none" stroke="midnightblue" d="M86.92,-164.62C106.39,-147.21 139.61,-120.15 173,-105 181.45,-101.17 190.72,-98.08 199.95,-95.61"/>
<polygon fill="midnightblue" stroke="midnightblue" points="84.48,-162.1 79.45,-171.43 89.2,-167.28 84.48,-162.1"/>
</g>
<!-- Node10 -->
<g id="node10" class="node">
<title>Node10</title>
<g id="a_node10"><a xlink:href="classbustub_1_1VariableSetStatement.html" target="_top" xlink:title=" ">
<polygon fill="white" stroke="black" points="178.5,-38.5 178.5,-57.5 340.5,-57.5 340.5,-38.5 178.5,-38.5"/>
<text text-anchor="middle" x="259.5" y="-45.5" font-family="Helvetica,sans-Serif" font-size="10.00">bustub::VariableSetStatement</text>
</a>
</g>
</g>
<!-- Node1&#45;&gt;Node10 -->
<g id="edge9" class="edge">
<title>Node1&#45;&gt;Node10</title>
<path fill="none" stroke="midnightblue" d="M80.95,-162.45C97.8,-136.79 131.8,-90.93 173,-67 179.71,-63.11 187.13,-60.01 194.73,-57.55"/>
<polygon fill="midnightblue" stroke="midnightblue" points="77.78,-160.9 75.35,-171.21 83.68,-164.67 77.78,-160.9"/>
</g>
<!-- Node11 -->
<g id="node11" class="node">
<title>Node11</title>
<g id="a_node11"><a xlink:href="classbustub_1_1VariableShowStatement.html" target="_top" xlink:title=" ">
<polygon fill="white" stroke="black" points="173,-0.5 173,-19.5 346,-19.5 346,-0.5 173,-0.5"/>
<text text-anchor="middle" x="259.5" y="-7.5" font-family="Helvetica,sans-Serif" font-size="10.00">bustub::VariableShowStatement</text>
</a>
</g>
</g>
<!-- Node1&#45;&gt;Node11 -->
<g id="edge10" class="edge">
<title>Node1&#45;&gt;Node11</title>
<path fill="none" stroke="midnightblue" d="M76.88,-161.96C90.59,-129.28 123.17,-62.79 173,-29 178.66,-25.16 184.98,-22.08 191.54,-19.62"/>
<polygon fill="midnightblue" stroke="midnightblue" points="73.61,-160.72 73.1,-171.3 80.1,-163.34 73.61,-160.72"/>
</g>
</g>
</svg>
