<?xml version="1.0" encoding="UTF-8" standalone="no"?>
<!DOCTYPE svg PUBLIC "-//W3C//DTD SVG 1.1//EN"
 "http://www.w3.org/Graphics/SVG/1.1/DTD/svg11.dtd">
<!-- Generated by graphviz version 2.43.0 (0)
 -->
<!-- Title: bustub::IntegerParentType Pages: 1 -->
<svg width="179pt" height="142pt"
 viewBox="0.00 0.00 178.50 142.00" xmlns="http://www.w3.org/2000/svg" xmlns:xlink="http://www.w3.org/1999/xlink">
<g id="graph0" class="graph" transform="scale(1 1) rotate(0) translate(4 138)">
<title>bustub::IntegerParentType</title>
<polygon fill="white" stroke="transparent" points="-4,4 -4,-138 174.5,-138 174.5,4 -4,4"/>
<!-- Node1 -->
<g id="node1" class="node">
<title>Node1</title>
<g id="a_node1"><a xlink:title=" ">
<polygon fill="#bfbfbf" stroke="black" points="0,-0.5 0,-19.5 143,-19.5 143,-0.5 0,-0.5"/>
<text text-anchor="middle" x="71.5" y="-7.5" font-family="Helvetica,sans-Serif" font-size="10.00">bustub::IntegerParentType</text>
</a>
</g>
</g>
<!-- Node2 -->
<g id="node2" class="node">
<title>Node2</title>
<g id="a_node2"><a xlink:href="classbustub_1_1NumericType.html" target="_top" xlink:title=" ">
<polygon fill="white" stroke="black" points="12,-57.5 12,-76.5 131,-76.5 131,-57.5 12,-57.5"/>
<text text-anchor="middle" x="71.5" y="-64.5" font-family="Helvetica,sans-Serif" font-size="10.00">bustub::NumericType</text>
</a>
</g>
</g>
<!-- Node2&#45;&gt;Node1 -->
<g id="edge1" class="edge">
<title>Node2&#45;&gt;Node1</title>
<path fill="none" stroke="midnightblue" d="M71.5,-47.12C71.5,-37.82 71.5,-27.06 71.5,-19.71"/>
<polygon fill="midnightblue" stroke="midnightblue" points="68,-47.41 71.5,-57.41 75,-47.41 68,-47.41"/>
</g>
<!-- Node3 -->
<g id="node3" class="node">
<title>Node3</title>
<g id="a_node3"><a xlink:href="classbustub_1_1Type.html" target="_top" xlink:title=" ">
<polygon fill="white" stroke="black" points="32.5,-114.5 32.5,-133.5 110.5,-133.5 110.5,-114.5 32.5,-114.5"/>
<text text-anchor="middle" x="71.5" y="-121.5" font-family="Helvetica,sans-Serif" font-size="10.00">bustub::Type</text>
</a>
</g>
</g>
<!-- Node3&#45;&gt;Node2 -->
<g id="edge2" class="edge">
<title>Node3&#45;&gt;Node2</title>
<path fill="none" stroke="midnightblue" d="M71.5,-104.12C71.5,-94.82 71.5,-84.06 71.5,-76.71"/>
<polygon fill="midnightblue" stroke="midnightblue" points="68,-104.41 71.5,-114.41 75,-104.41 68,-104.41"/>
</g>
<!-- Node3&#45;&gt;Node3 -->
<g id="edge3" class="edge">
<title>Node3&#45;&gt;Node3</title>
<path fill="none" stroke="#9a32cd" stroke-dasharray="5,2" d="M120.78,-128.24C125.5,-127.38 128.5,-125.97 128.5,-124 128.5,-120.86 120.83,-119.12 110.66,-118.8"/>
<polygon fill="#9a32cd" stroke="#9a32cd" points="120.29,-124.77 110.66,-129.2 120.95,-131.74 120.29,-124.77"/>
<text text-anchor="middle" x="149.5" y="-121.5" font-family="Helvetica,sans-Serif" font-size="10.00"> k_types</text>
</g>
</g>
</svg>
