<?xml version="1.0" encoding="UTF-8" standalone="no"?>
<!DOCTYPE svg PUBLIC "-//W3C//DTD SVG 1.1//EN"
 "http://www.w3.org/Graphics/SVG/1.1/DTD/svg11.dtd">
<!-- Generated by graphviz version 2.43.0 (0)
 -->
<!-- Title: bustub::ExtendibleHashTableIndex&lt; KeyType, ValueType, KeyComparator &gt; Pages: 1 -->
<svg width="411pt" height="88pt"
 viewBox="0.00 0.00 411.00 88.00" xmlns="http://www.w3.org/2000/svg" xmlns:xlink="http://www.w3.org/1999/xlink">
<g id="graph0" class="graph" transform="scale(1 1) rotate(0) translate(4 84)">
<title>bustub::ExtendibleHashTableIndex&lt; KeyType, ValueType, KeyComparator &gt;</title>
<polygon fill="white" stroke="transparent" points="-4,4 -4,-84 407,-84 407,4 -4,4"/>
<!-- Node1 -->
<g id="node1" class="node">
<title>Node1</title>
<g id="a_node1"><a xlink:title=" ">
<polygon fill="#bfbfbf" stroke="black" points="245,-24.5 245,-65.5 403,-65.5 403,-24.5 245,-24.5"/>
<text text-anchor="start" x="253" y="-53.5" font-family="Helvetica,sans-Serif" font-size="10.00">bustub::ExtendibleHashTable</text>
<text text-anchor="start" x="253" y="-42.5" font-family="Helvetica,sans-Serif" font-size="10.00">Index&lt; KeyType, ValueType,</text>
<text text-anchor="middle" x="324" y="-31.5" font-family="Helvetica,sans-Serif" font-size="10.00"> KeyComparator &gt;</text>
</a>
</g>
</g>
<!-- Node2 -->
<g id="node2" class="node">
<title>Node2</title>
<g id="a_node2"><a xlink:href="classbustub_1_1Index.html" target="_top" xlink:title=" ">
<polygon fill="white" stroke="black" points="35.5,-60.5 35.5,-79.5 118.5,-79.5 118.5,-60.5 35.5,-60.5"/>
<text text-anchor="middle" x="77" y="-67.5" font-family="Helvetica,sans-Serif" font-size="10.00">bustub::Index</text>
</a>
</g>
</g>
<!-- Node2&#45;&gt;Node1 -->
<g id="edge1" class="edge">
<title>Node2&#45;&gt;Node1</title>
<path fill="none" stroke="midnightblue" d="M128.77,-64.82C162.33,-61.4 206.97,-56.84 245,-52.96"/>
<polygon fill="midnightblue" stroke="midnightblue" points="128.32,-61.35 118.73,-65.84 129.04,-68.31 128.32,-61.35"/>
</g>
<!-- Node3 -->
<g id="node3" class="node">
<title>Node3</title>
<g id="a_node3"><a xlink:href="classbustub_1_1DiskExtendibleHashTable.html" target="_top" xlink:title=" ">
<polygon fill="white" stroke="black" points="0,-0.5 0,-41.5 154,-41.5 154,-0.5 0,-0.5"/>
<text text-anchor="start" x="8" y="-29.5" font-family="Helvetica,sans-Serif" font-size="10.00">bustub::DiskExtendibleHash</text>
<text text-anchor="start" x="8" y="-18.5" font-family="Helvetica,sans-Serif" font-size="10.00">Table&lt; KeyType, ValueType,</text>
<text text-anchor="middle" x="77" y="-7.5" font-family="Helvetica,sans-Serif" font-size="10.00"> KeyComparator &gt;</text>
</a>
</g>
</g>
<!-- Node3&#45;&gt;Node1 -->
<g id="edge2" class="edge">
<title>Node3&#45;&gt;Node1</title>
<path fill="none" stroke="#9a32cd" stroke-dasharray="5,2" d="M164.45,-29.47C190.61,-32.03 219.17,-34.83 244.76,-37.34"/>
<polygon fill="#9a32cd" stroke="#9a32cd" points="164.47,-25.95 154.18,-28.46 163.79,-32.92 164.47,-25.95"/>
<text text-anchor="middle" x="199.5" y="-38" font-family="Helvetica,sans-Serif" font-size="10.00"> container_</text>
</g>
</g>
</svg>
