<?xml version="1.0" encoding="UTF-8" standalone="no"?>
<!DOCTYPE svg PUBLIC "-//W3C//DTD SVG 1.1//EN"
 "http://www.w3.org/Graphics/SVG/1.1/DTD/svg11.dtd">
<!-- Generated by graphviz version 2.43.0 (0)
 -->
<!-- Title: bustub::MockScanExecutor Pages: 1 -->
<svg width="155pt" height="152pt"
 viewBox="0.00 0.00 155.00 152.00" xmlns="http://www.w3.org/2000/svg" xmlns:xlink="http://www.w3.org/1999/xlink">
<g id="graph0" class="graph" transform="scale(1 1) rotate(0) translate(4 148)">
<title>bustub::MockScanExecutor</title>
<polygon fill="white" stroke="transparent" points="-4,4 -4,-148 151,-148 151,4 -4,4"/>
<!-- Node1 -->
<g id="node1" class="node">
<title>Node1</title>
<g id="a_node1"><a xlink:title=" ">
<polygon fill="#bfbfbf" stroke="black" points="0,-0.5 0,-19.5 147,-19.5 147,-0.5 0,-0.5"/>
<text text-anchor="middle" x="73.5" y="-7.5" font-family="Helvetica,sans-Serif" font-size="10.00">bustub::MockScanExecutor</text>
</a>
</g>
</g>
<!-- Node2 -->
<g id="node2" class="node">
<title>Node2</title>
<g id="a_node2"><a xlink:href="classbustub_1_1AbstractExecutor.html" target="_top" xlink:title=" ">
<polygon fill="white" stroke="black" points="4.5,-57.5 4.5,-76.5 142.5,-76.5 142.5,-57.5 4.5,-57.5"/>
<text text-anchor="middle" x="73.5" y="-64.5" font-family="Helvetica,sans-Serif" font-size="10.00">bustub::AbstractExecutor</text>
</a>
</g>
</g>
<!-- Node2&#45;&gt;Node1 -->
<g id="edge1" class="edge">
<title>Node2&#45;&gt;Node1</title>
<path fill="none" stroke="midnightblue" d="M73.5,-47.12C73.5,-37.82 73.5,-27.06 73.5,-19.71"/>
<polygon fill="midnightblue" stroke="midnightblue" points="70,-47.41 73.5,-57.41 77,-47.41 70,-47.41"/>
</g>
<!-- Node3 -->
<g id="node3" class="node">
<title>Node3</title>
<g id="a_node3"><a xlink:href="classbustub_1_1ExecutorContext.html" target="_top" xlink:title=" ">
<polygon fill="white" stroke="black" points="5.5,-124.5 5.5,-143.5 141.5,-143.5 141.5,-124.5 5.5,-124.5"/>
<text text-anchor="middle" x="73.5" y="-131.5" font-family="Helvetica,sans-Serif" font-size="10.00">bustub::ExecutorContext</text>
</a>
</g>
</g>
<!-- Node3&#45;&gt;Node2 -->
<g id="edge2" class="edge">
<title>Node3&#45;&gt;Node2</title>
<path fill="none" stroke="#9a32cd" stroke-dasharray="5,2" d="M73.5,-114.04C73.5,-101.67 73.5,-86.12 73.5,-76.63"/>
<polygon fill="#9a32cd" stroke="#9a32cd" points="70,-114.23 73.5,-124.23 77,-114.23 70,-114.23"/>
<text text-anchor="middle" x="99.5" y="-98" font-family="Helvetica,sans-Serif" font-size="10.00"> exec_ctx_</text>
</g>
</g>
</svg>
