<?xml version="1.0" encoding="UTF-8" standalone="no"?>
<!DOCTYPE svg PUBLIC "-//W3C//DTD SVG 1.1//EN"
 "http://www.w3.org/Graphics/SVG/1.1/DTD/svg11.dtd">
<!-- Generated by graphviz version 2.43.0 (0)
 -->
<!-- Title: bustub::TimestampType Pages: 1 -->
<svg width="174pt" height="85pt"
 viewBox="0.00 0.00 174.00 85.00" xmlns="http://www.w3.org/2000/svg" xmlns:xlink="http://www.w3.org/1999/xlink">
<g id="graph0" class="graph" transform="scale(1 1) rotate(0) translate(4 81)">
<title>bustub::TimestampType</title>
<polygon fill="white" stroke="transparent" points="-4,4 -4,-81 170,-81 170,4 -4,4"/>
<!-- Node1 -->
<g id="node1" class="node">
<title>Node1</title>
<g id="a_node1"><a xlink:title=" ">
<polygon fill="#bfbfbf" stroke="black" points="0,-0.5 0,-19.5 134,-19.5 134,-0.5 0,-0.5"/>
<text text-anchor="middle" x="67" y="-7.5" font-family="Helvetica,sans-Serif" font-size="10.00">bustub::TimestampType</text>
</a>
</g>
</g>
<!-- Node2 -->
<g id="node2" class="node">
<title>Node2</title>
<g id="a_node2"><a xlink:href="classbustub_1_1Type.html" target="_top" xlink:title=" ">
<polygon fill="white" stroke="black" points="28,-57.5 28,-76.5 106,-76.5 106,-57.5 28,-57.5"/>
<text text-anchor="middle" x="67" y="-64.5" font-family="Helvetica,sans-Serif" font-size="10.00">bustub::Type</text>
</a>
</g>
</g>
<!-- Node2&#45;&gt;Node1 -->
<g id="edge1" class="edge">
<title>Node2&#45;&gt;Node1</title>
<path fill="none" stroke="midnightblue" d="M67,-47.12C67,-37.82 67,-27.06 67,-19.71"/>
<polygon fill="midnightblue" stroke="midnightblue" points="63.5,-47.41 67,-57.41 70.5,-47.41 63.5,-47.41"/>
</g>
<!-- Node2&#45;&gt;Node2 -->
<g id="edge2" class="edge">
<title>Node2&#45;&gt;Node2</title>
<path fill="none" stroke="#9a32cd" stroke-dasharray="5,2" d="M116.28,-71.24C121,-70.38 124,-68.97 124,-67 124,-63.86 116.33,-62.12 106.16,-61.8"/>
<polygon fill="#9a32cd" stroke="#9a32cd" points="115.79,-67.77 106.16,-72.2 116.45,-74.74 115.79,-67.77"/>
<text text-anchor="middle" x="145" y="-64.5" font-family="Helvetica,sans-Serif" font-size="10.00"> k_types</text>
</g>
</g>
</svg>
