<?xml version="1.0" encoding="UTF-8" standalone="no"?>
<!DOCTYPE svg PUBLIC "-//W3C//DTD SVG 1.1//EN"
 "http://www.w3.org/Graphics/SVG/1.1/DTD/svg11.dtd">
<!-- Generated by graphviz version 2.43.0 (0)
 -->
<!-- Title: bustub::STLOrderedIndex&lt; KT, VT, Cmp &gt; Pages: 1 -->
<svg width="276pt" height="117pt"
 viewBox="0.00 0.00 276.00 117.00" xmlns="http://www.w3.org/2000/svg" xmlns:xlink="http://www.w3.org/1999/xlink">
<g id="graph0" class="graph" transform="scale(1 1) rotate(0) translate(4 113)">
<title>bustub::STLOrderedIndex&lt; KT, VT, Cmp &gt;</title>
<polygon fill="white" stroke="transparent" points="-4,4 -4,-113 272,-113 272,4 -4,4"/>
<!-- Node1 -->
<g id="node1" class="node">
<title>Node1</title>
<g id="a_node1"><a xlink:title=" ">
<polygon fill="#bfbfbf" stroke="black" points="43,-0.5 43,-30.5 182,-30.5 182,-0.5 43,-0.5"/>
<text text-anchor="start" x="51" y="-18.5" font-family="Helvetica,sans-Serif" font-size="10.00">bustub::STLOrderedIndex</text>
<text text-anchor="middle" x="112.5" y="-7.5" font-family="Helvetica,sans-Serif" font-size="10.00">&lt; KT, VT, Cmp &gt;</text>
</a>
</g>
</g>
<!-- Node2 -->
<g id="node2" class="node">
<title>Node2</title>
<g id="a_node2"><a xlink:href="classbustub_1_1Index.html" target="_top" xlink:title=" ">
<polygon fill="white" stroke="black" points="0,-84 0,-103 83,-103 83,-84 0,-84"/>
<text text-anchor="middle" x="41.5" y="-91" font-family="Helvetica,sans-Serif" font-size="10.00">bustub::Index</text>
</a>
</g>
</g>
<!-- Node2&#45;&gt;Node1 -->
<g id="edge1" class="edge">
<title>Node2&#45;&gt;Node1</title>
<path fill="none" stroke="midnightblue" d="M56.78,-76.14C69.48,-62.55 87.35,-43.42 99.4,-30.52"/>
<polygon fill="midnightblue" stroke="midnightblue" points="53.91,-74.09 49.64,-83.78 59.03,-78.86 53.91,-74.09"/>
</g>
<!-- Node3 -->
<g id="node3" class="node">
<title>Node3</title>
<g id="a_node3"><a xlink:href="classbustub_1_1StlComparatorWrapper.html" target="_top" xlink:title=" ">
<polygon fill="white" stroke="black" points="101,-78.5 101,-108.5 268,-108.5 268,-78.5 101,-78.5"/>
<text text-anchor="start" x="109" y="-96.5" font-family="Helvetica,sans-Serif" font-size="10.00">bustub::StlComparatorWrapper</text>
<text text-anchor="middle" x="184.5" y="-85.5" font-family="Helvetica,sans-Serif" font-size="10.00">&lt; KT, Cmp &gt;</text>
</a>
</g>
</g>
<!-- Node3&#45;&gt;Node1 -->
<g id="edge2" class="edge">
<title>Node3&#45;&gt;Node1</title>
<path fill="none" stroke="#9a32cd" stroke-dasharray="5,2" d="M163.82,-70.67C151.66,-57.83 136.63,-41.97 125.98,-30.73"/>
<polygon fill="#9a32cd" stroke="#9a32cd" points="161.54,-73.35 170.96,-78.2 166.62,-68.54 161.54,-73.35"/>
<text text-anchor="middle" x="185" y="-52" font-family="Helvetica,sans-Serif" font-size="10.00"> comparator_</text>
</g>
</g>
</svg>
