<?xml version="1.0" encoding="UTF-8" standalone="no"?>
<!DOCTYPE svg PUBLIC "-//W3C//DTD SVG 1.1//EN"
 "http://www.w3.org/Graphics/SVG/1.1/DTD/svg11.dtd">
<!-- Generated by graphviz version 2.43.0 (0)
 -->
<!-- Title: bustub::VectorType Pages: 1 -->
<svg width="162pt" height="85pt"
 viewBox="0.00 0.00 161.50 85.00" xmlns="http://www.w3.org/2000/svg" xmlns:xlink="http://www.w3.org/1999/xlink">
<g id="graph0" class="graph" transform="scale(1 1) rotate(0) translate(4 81)">
<title>bustub::VectorType</title>
<polygon fill="white" stroke="transparent" points="-4,4 -4,-81 157.5,-81 157.5,4 -4,4"/>
<!-- Node1 -->
<g id="node1" class="node">
<title>Node1</title>
<g id="a_node1"><a xlink:title=" ">
<polygon fill="#bfbfbf" stroke="black" points="0,-0.5 0,-19.5 109,-19.5 109,-0.5 0,-0.5"/>
<text text-anchor="middle" x="54.5" y="-7.5" font-family="Helvetica,sans-Serif" font-size="10.00">bustub::VectorType</text>
</a>
</g>
</g>
<!-- Node2 -->
<g id="node2" class="node">
<title>Node2</title>
<g id="a_node2"><a xlink:href="classbustub_1_1Type.html" target="_top" xlink:title=" ">
<polygon fill="white" stroke="black" points="15.5,-57.5 15.5,-76.5 93.5,-76.5 93.5,-57.5 15.5,-57.5"/>
<text text-anchor="middle" x="54.5" y="-64.5" font-family="Helvetica,sans-Serif" font-size="10.00">bustub::Type</text>
</a>
</g>
</g>
<!-- Node2&#45;&gt;Node1 -->
<g id="edge1" class="edge">
<title>Node2&#45;&gt;Node1</title>
<path fill="none" stroke="midnightblue" d="M54.5,-47.12C54.5,-37.82 54.5,-27.06 54.5,-19.71"/>
<polygon fill="midnightblue" stroke="midnightblue" points="51,-47.41 54.5,-57.41 58,-47.41 51,-47.41"/>
</g>
<!-- Node2&#45;&gt;Node2 -->
<g id="edge2" class="edge">
<title>Node2&#45;&gt;Node2</title>
<path fill="none" stroke="#9a32cd" stroke-dasharray="5,2" d="M103.78,-71.24C108.5,-70.38 111.5,-68.97 111.5,-67 111.5,-63.86 103.83,-62.12 93.66,-61.8"/>
<polygon fill="#9a32cd" stroke="#9a32cd" points="103.29,-67.77 93.66,-72.2 103.95,-74.74 103.29,-67.77"/>
<text text-anchor="middle" x="132.5" y="-64.5" font-family="Helvetica,sans-Serif" font-size="10.00"> k_types</text>
</g>
</g>
</svg>
