<?xml version="1.0" encoding="UTF-8" standalone="no"?>
<!DOCTYPE svg PUBLIC "-//W3C//DTD SVG 1.1//EN"
 "http://www.w3.org/Graphics/SVG/1.1/DTD/svg11.dtd">
<!-- Generated by graphviz version 2.43.0 (0)
 -->
<!-- Title: bustub::STLUnorderedIndex&lt; KT, VT, Cmp &gt; Pages: 1 -->
<svg width="427pt" height="176pt"
 viewBox="0.00 0.00 427.00 175.50" xmlns="http://www.w3.org/2000/svg" xmlns:xlink="http://www.w3.org/1999/xlink">
<g id="graph0" class="graph" transform="scale(1 1) rotate(0) translate(4 171.5)">
<title>bustub::STLUnorderedIndex&lt; KT, VT, Cmp &gt;</title>
<polygon fill="white" stroke="transparent" points="-4,4 -4,-171.5 423,-171.5 423,4 -4,4"/>
<!-- Node1 -->
<g id="node1" class="node">
<title>Node1</title>
<g id="a_node1"><a xlink:title=" ">
<polygon fill="#bfbfbf" stroke="black" points="268,-73.5 268,-103.5 419,-103.5 419,-73.5 268,-73.5"/>
<text text-anchor="start" x="276" y="-91.5" font-family="Helvetica,sans-Serif" font-size="10.00">bustub::STLUnorderedIndex</text>
<text text-anchor="middle" x="343.5" y="-80.5" font-family="Helvetica,sans-Serif" font-size="10.00">&lt; KT, VT, Cmp &gt;</text>
</a>
</g>
</g>
<!-- Node2 -->
<g id="node2" class="node">
<title>Node2</title>
<g id="a_node2"><a xlink:href="classbustub_1_1Index.html" target="_top" xlink:title=" ">
<polygon fill="white" stroke="black" points="42,-148 42,-167 125,-167 125,-148 42,-148"/>
<text text-anchor="middle" x="83.5" y="-155" font-family="Helvetica,sans-Serif" font-size="10.00">bustub::Index</text>
</a>
</g>
</g>
<!-- Node2&#45;&gt;Node1 -->
<g id="edge1" class="edge">
<title>Node2&#45;&gt;Node1</title>
<path fill="none" stroke="midnightblue" d="M135.15,-146.01C145.69,-143.58 156.71,-140.99 167,-138.5 203.99,-129.56 213.39,-127.86 250,-117.5 265.06,-113.24 281.39,-108.24 296.07,-103.62"/>
<polygon fill="midnightblue" stroke="midnightblue" points="134.2,-142.64 125.24,-148.3 135.77,-149.46 134.2,-142.64"/>
</g>
<!-- Node3 -->
<g id="node3" class="node">
<title>Node3</title>
<g id="a_node3"><a xlink:href="classbustub_1_1StlHasherWrapper.html" target="_top" xlink:title=" ">
<polygon fill="white" stroke="black" points="11.5,-98.5 11.5,-128.5 155.5,-128.5 155.5,-98.5 11.5,-98.5"/>
<text text-anchor="start" x="19.5" y="-116.5" font-family="Helvetica,sans-Serif" font-size="10.00">bustub::StlHasherWrapper</text>
<text text-anchor="middle" x="83.5" y="-105.5" font-family="Helvetica,sans-Serif" font-size="10.00">&lt; KT &gt;</text>
</a>
</g>
</g>
<!-- Node3&#45;&gt;Node1 -->
<g id="edge2" class="edge">
<title>Node3&#45;&gt;Node1</title>
<path fill="none" stroke="#9a32cd" stroke-dasharray="5,2" d="M165.68,-105.63C198.4,-102.46 235.92,-98.83 267.95,-95.72"/>
<polygon fill="#9a32cd" stroke="#9a32cd" points="165.3,-102.15 155.68,-106.6 165.97,-109.12 165.3,-102.15"/>
<text text-anchor="middle" x="217.5" y="-105.5" font-family="Helvetica,sans-Serif" font-size="10.00"> hash_fn_</text>
</g>
<!-- Node4 -->
<g id="node4" class="node">
<title>Node4</title>
<g id="a_node4"><a xlink:href="classbustub_1_1StlEqualWrapper.html" target="_top" xlink:title=" ">
<polygon fill="white" stroke="black" points="15,-49.5 15,-79.5 152,-79.5 152,-49.5 15,-49.5"/>
<text text-anchor="start" x="23" y="-67.5" font-family="Helvetica,sans-Serif" font-size="10.00">bustub::StlEqualWrapper</text>
<text text-anchor="middle" x="83.5" y="-56.5" font-family="Helvetica,sans-Serif" font-size="10.00">&lt; KT, Cmp &gt;</text>
</a>
</g>
</g>
<!-- Node4&#45;&gt;Node1 -->
<g id="edge3" class="edge">
<title>Node4&#45;&gt;Node1</title>
<path fill="none" stroke="#9a32cd" stroke-dasharray="5,2" d="M162.48,-71.75C195.93,-74.87 234.84,-78.49 267.91,-81.56"/>
<polygon fill="#9a32cd" stroke="#9a32cd" points="162.57,-68.25 152.29,-70.81 161.92,-75.22 162.57,-68.25"/>
<text text-anchor="middle" x="217.5" y="-81.5" font-family="Helvetica,sans-Serif" font-size="10.00"> eq_</text>
</g>
<!-- Node5 -->
<g id="node5" class="node">
<title>Node5</title>
<g id="a_node5"><a xlink:href="classbustub_1_1StlComparatorWrapper.html" target="_top" xlink:title=" ">
<polygon fill="white" stroke="black" points="0,-0.5 0,-30.5 167,-30.5 167,-0.5 0,-0.5"/>
<text text-anchor="start" x="8" y="-18.5" font-family="Helvetica,sans-Serif" font-size="10.00">bustub::StlComparatorWrapper</text>
<text text-anchor="middle" x="83.5" y="-7.5" font-family="Helvetica,sans-Serif" font-size="10.00">&lt; KT, Cmp &gt;</text>
</a>
</g>
</g>
<!-- Node5&#45;&gt;Node1 -->
<g id="edge4" class="edge">
<title>Node5&#45;&gt;Node1</title>
<path fill="none" stroke="#9a32cd" stroke-dasharray="5,2" d="M155.78,-33.03C185.08,-40.49 219.28,-49.53 250,-58.5 265.72,-63.09 282.81,-68.51 297.97,-73.47"/>
<polygon fill="#9a32cd" stroke="#9a32cd" points="156.6,-29.63 146.04,-30.56 154.88,-36.41 156.6,-29.63"/>
<text text-anchor="middle" x="217.5" y="-61.5" font-family="Helvetica,sans-Serif" font-size="10.00"> comparator_</text>
</g>
</g>
</svg>
