<?xml version="1.0" encoding="UTF-8" standalone="no"?>
<!DOCTYPE svg PUBLIC "-//W3C//DTD SVG 1.1//EN"
 "http://www.w3.org/Graphics/SVG/1.1/DTD/svg11.dtd">
<!-- Generated by graphviz version 2.43.0 (0)
 -->
<!-- Title: bustub::Type Pages: 1 -->
<svg width="590pt" height="180pt"
 viewBox="0.00 0.00 590.00 180.00" xmlns="http://www.w3.org/2000/svg" xmlns:xlink="http://www.w3.org/1999/xlink">
<g id="graph0" class="graph" transform="scale(1 1) rotate(0) translate(4 176)">
<title>bustub::Type</title>
<polygon fill="white" stroke="transparent" points="-4,4 -4,-176 586,-176 586,4 -4,4"/>
<!-- Node1 -->
<g id="node1" class="node">
<title>Node1</title>
<g id="a_node1"><a xlink:title=" ">
<polygon fill="#bfbfbf" stroke="black" points="0,-76.5 0,-95.5 78,-95.5 78,-76.5 0,-76.5"/>
<text text-anchor="middle" x="39" y="-83.5" font-family="Helvetica,sans-Serif" font-size="10.00">bustub::Type</text>
</a>
</g>
</g>
<!-- Node2 -->
<g id="node2" class="node">
<title>Node2</title>
<g id="a_node2"><a xlink:href="classbustub_1_1BooleanType.html" target="_top" xlink:title=" ">
<polygon fill="white" stroke="black" points="122,-152.5 122,-171.5 240,-171.5 240,-152.5 122,-152.5"/>
<text text-anchor="middle" x="181" y="-159.5" font-family="Helvetica,sans-Serif" font-size="10.00">bustub::BooleanType</text>
</a>
</g>
</g>
<!-- Node1&#45;&gt;Node2 -->
<g id="edge1" class="edge">
<title>Node1&#45;&gt;Node2</title>
<path fill="none" stroke="midnightblue" d="M57.7,-102.75C71.93,-115.4 92.95,-132.35 114,-143 121.45,-146.77 129.76,-149.9 137.9,-152.45"/>
<polygon fill="midnightblue" stroke="midnightblue" points="59.91,-100.03 50.16,-95.88 55.2,-105.2 59.91,-100.03"/>
</g>
<!-- Node3 -->
<g id="node3" class="node">
<title>Node3</title>
<g id="a_node3"><a xlink:href="classbustub_1_1NumericType.html" target="_top" xlink:title=" ">
<polygon fill="white" stroke="black" points="121.5,-114.5 121.5,-133.5 240.5,-133.5 240.5,-114.5 121.5,-114.5"/>
<text text-anchor="middle" x="181" y="-121.5" font-family="Helvetica,sans-Serif" font-size="10.00">bustub::NumericType</text>
</a>
</g>
</g>
<!-- Node1&#45;&gt;Node3 -->
<g id="edge2" class="edge">
<title>Node1&#45;&gt;Node3</title>
<path fill="none" stroke="midnightblue" d="M85.12,-98.25C104.41,-103.48 126.61,-109.51 144.68,-114.41"/>
<polygon fill="midnightblue" stroke="midnightblue" points="85.9,-94.83 75.33,-95.59 84.06,-101.59 85.9,-94.83"/>
</g>
<!-- Node10 -->
<g id="node10" class="node">
<title>Node10</title>
<g id="a_node10"><a xlink:href="classbustub_1_1TimestampType.html" target="_top" xlink:title=" ">
<polygon fill="white" stroke="black" points="114,-76.5 114,-95.5 248,-95.5 248,-76.5 114,-76.5"/>
<text text-anchor="middle" x="181" y="-83.5" font-family="Helvetica,sans-Serif" font-size="10.00">bustub::TimestampType</text>
</a>
</g>
</g>
<!-- Node1&#45;&gt;Node10 -->
<g id="edge9" class="edge">
<title>Node1&#45;&gt;Node10</title>
<path fill="none" stroke="midnightblue" d="M88.37,-86C96.58,-86 105.22,-86 113.79,-86"/>
<polygon fill="midnightblue" stroke="midnightblue" points="88.26,-82.5 78.26,-86 88.26,-89.5 88.26,-82.5"/>
</g>
<!-- Node11 -->
<g id="node11" class="node">
<title>Node11</title>
<g id="a_node11"><a xlink:href="classbustub_1_1VarlenType.html" target="_top" xlink:title=" ">
<polygon fill="white" stroke="black" points="126.5,-38.5 126.5,-57.5 235.5,-57.5 235.5,-38.5 126.5,-38.5"/>
<text text-anchor="middle" x="181" y="-45.5" font-family="Helvetica,sans-Serif" font-size="10.00">bustub::VarlenType</text>
</a>
</g>
</g>
<!-- Node1&#45;&gt;Node11 -->
<g id="edge10" class="edge">
<title>Node1&#45;&gt;Node11</title>
<path fill="none" stroke="midnightblue" d="M85.12,-73.75C104.41,-68.52 126.61,-62.49 144.68,-57.59"/>
<polygon fill="midnightblue" stroke="midnightblue" points="84.06,-70.41 75.33,-76.41 85.9,-77.17 84.06,-70.41"/>
</g>
<!-- Node12 -->
<g id="node12" class="node">
<title>Node12</title>
<g id="a_node12"><a xlink:href="classbustub_1_1VectorType.html" target="_top" xlink:title=" ">
<polygon fill="white" stroke="black" points="126.5,-0.5 126.5,-19.5 235.5,-19.5 235.5,-0.5 126.5,-0.5"/>
<text text-anchor="middle" x="181" y="-7.5" font-family="Helvetica,sans-Serif" font-size="10.00">bustub::VectorType</text>
</a>
</g>
</g>
<!-- Node1&#45;&gt;Node12 -->
<g id="edge11" class="edge">
<title>Node1&#45;&gt;Node12</title>
<path fill="none" stroke="midnightblue" d="M57.7,-69.25C71.93,-56.6 92.95,-39.65 114,-29 121.45,-25.23 129.76,-22.1 137.9,-19.55"/>
<polygon fill="midnightblue" stroke="midnightblue" points="55.2,-66.8 50.16,-76.12 59.91,-71.97 55.2,-66.8"/>
</g>
<!-- Node4 -->
<g id="node4" class="node">
<title>Node4</title>
<g id="a_node4"><a xlink:href="classbustub_1_1DecimalType.html" target="_top" xlink:title=" ">
<polygon fill="white" stroke="black" points="296,-133.5 296,-152.5 415,-152.5 415,-133.5 296,-133.5"/>
<text text-anchor="middle" x="355.5" y="-140.5" font-family="Helvetica,sans-Serif" font-size="10.00">bustub::DecimalType</text>
</a>
</g>
</g>
<!-- Node3&#45;&gt;Node4 -->
<g id="edge3" class="edge">
<title>Node3&#45;&gt;Node4</title>
<path fill="none" stroke="midnightblue" d="M251.03,-131.6C265.89,-133.24 281.46,-134.96 295.88,-136.54"/>
<polygon fill="midnightblue" stroke="midnightblue" points="251.21,-128.1 240.88,-130.49 250.44,-135.06 251.21,-128.1"/>
</g>
<!-- Node5 -->
<g id="node5" class="node">
<title>Node5</title>
<g id="a_node5"><a xlink:href="classbustub_1_1IntegerParentType.html" target="_top" xlink:title=" ">
<polygon fill="white" stroke="black" points="284,-95.5 284,-114.5 427,-114.5 427,-95.5 284,-95.5"/>
<text text-anchor="middle" x="355.5" y="-102.5" font-family="Helvetica,sans-Serif" font-size="10.00">bustub::IntegerParentType</text>
</a>
</g>
</g>
<!-- Node3&#45;&gt;Node5 -->
<g id="edge4" class="edge">
<title>Node3&#45;&gt;Node5</title>
<path fill="none" stroke="midnightblue" d="M251.11,-116.39C261.93,-115.2 273.12,-113.96 283.97,-112.77"/>
<polygon fill="midnightblue" stroke="midnightblue" points="250.44,-112.94 240.88,-117.51 251.21,-119.9 250.44,-112.94"/>
</g>
<!-- Node6 -->
<g id="node6" class="node">
<title>Node6</title>
<g id="a_node6"><a xlink:href="classbustub_1_1BigintType.html" target="_top" xlink:title=" ">
<polygon fill="white" stroke="black" points="469,-152.5 469,-171.5 576,-171.5 576,-152.5 469,-152.5"/>
<text text-anchor="middle" x="522.5" y="-159.5" font-family="Helvetica,sans-Serif" font-size="10.00">bustub::BigintType</text>
</a>
</g>
</g>
<!-- Node5&#45;&gt;Node6 -->
<g id="edge5" class="edge">
<title>Node5&#45;&gt;Node6</title>
<path fill="none" stroke="midnightblue" d="M407.61,-117.33C414.21,-119.34 420.82,-121.57 427,-124 443.84,-130.62 446.34,-135.96 463,-143 471.16,-146.45 480.18,-149.66 488.65,-152.42"/>
<polygon fill="midnightblue" stroke="midnightblue" points="408.59,-113.96 398.01,-114.54 406.63,-120.69 408.59,-113.96"/>
</g>
<!-- Node7 -->
<g id="node7" class="node">
<title>Node7</title>
<g id="a_node7"><a xlink:href="classbustub_1_1IntegerType.html" target="_top" xlink:title=" ">
<polygon fill="white" stroke="black" points="466,-114.5 466,-133.5 579,-133.5 579,-114.5 466,-114.5"/>
<text text-anchor="middle" x="522.5" y="-121.5" font-family="Helvetica,sans-Serif" font-size="10.00">bustub::IntegerType</text>
</a>
</g>
</g>
<!-- Node5&#45;&gt;Node7 -->
<g id="edge6" class="edge">
<title>Node5&#45;&gt;Node7</title>
<path fill="none" stroke="midnightblue" d="M437.42,-114.32C447.03,-115.42 456.67,-116.53 465.82,-117.59"/>
<polygon fill="midnightblue" stroke="midnightblue" points="437.77,-110.83 427.43,-113.17 436.97,-117.79 437.77,-110.83"/>
</g>
<!-- Node8 -->
<g id="node8" class="node">
<title>Node8</title>
<g id="a_node8"><a xlink:href="classbustub_1_1SmallintType.html" target="_top" xlink:title=" ">
<polygon fill="white" stroke="black" points="463,-76.5 463,-95.5 582,-95.5 582,-76.5 463,-76.5"/>
<text text-anchor="middle" x="522.5" y="-83.5" font-family="Helvetica,sans-Serif" font-size="10.00">bustub::SmallintType</text>
</a>
</g>
</g>
<!-- Node5&#45;&gt;Node8 -->
<g id="edge7" class="edge">
<title>Node5&#45;&gt;Node8</title>
<path fill="none" stroke="midnightblue" d="M437.44,-95.68C445.98,-94.7 454.56,-93.71 462.78,-92.76"/>
<polygon fill="midnightblue" stroke="midnightblue" points="436.97,-92.21 427.43,-96.83 437.77,-99.17 436.97,-92.21"/>
</g>
<!-- Node9 -->
<g id="node9" class="node">
<title>Node9</title>
<g id="a_node9"><a xlink:href="classbustub_1_1TinyintType.html" target="_top" xlink:title=" ">
<polygon fill="white" stroke="black" points="466.5,-38.5 466.5,-57.5 578.5,-57.5 578.5,-38.5 466.5,-38.5"/>
<text text-anchor="middle" x="522.5" y="-45.5" font-family="Helvetica,sans-Serif" font-size="10.00">bustub::TinyintType</text>
</a>
</g>
</g>
<!-- Node5&#45;&gt;Node9 -->
<g id="edge8" class="edge">
<title>Node5&#45;&gt;Node9</title>
<path fill="none" stroke="midnightblue" d="M392.31,-91.94C412.93,-84.48 439.37,-75.05 463,-67 472.3,-63.83 482.47,-60.49 491.68,-57.5"/>
<polygon fill="midnightblue" stroke="midnightblue" points="390.9,-88.72 382.69,-95.42 393.28,-95.3 390.9,-88.72"/>
</g>
</g>
</svg>
