<?xml version="1.0" encoding="UTF-8" standalone="no"?>
<!DOCTYPE svg PUBLIC "-//W3C//DTD SVG 1.1//EN"
 "http://www.w3.org/Graphics/SVG/1.1/DTD/svg11.dtd">
<!-- Generated by graphviz version 2.43.0 (0)
 -->
<!-- Title: bustub::BoundBaseTableRef Pages: 1 -->
<svg width="250pt" height="95pt"
 viewBox="0.00 0.00 249.50 95.00" xmlns="http://www.w3.org/2000/svg" xmlns:xlink="http://www.w3.org/1999/xlink">
<g id="graph0" class="graph" transform="scale(1 1) rotate(0) translate(4 91)">
<title>bustub::BoundBaseTableRef</title>
<polygon fill="white" stroke="transparent" points="-4,4 -4,-91 245.5,-91 245.5,4 -4,4"/>
<!-- Node1 -->
<g id="node1" class="node">
<title>Node1</title>
<g id="a_node1"><a xlink:title=" ">
<polygon fill="#bfbfbf" stroke="black" points="53,-0.5 53,-19.5 205,-19.5 205,-0.5 53,-0.5"/>
<text text-anchor="middle" x="129" y="-7.5" font-family="Helvetica,sans-Serif" font-size="10.00">bustub::BoundBaseTableRef</text>
</a>
</g>
</g>
<!-- Node2 -->
<g id="node2" class="node">
<title>Node2</title>
<g id="a_node2"><a xlink:href="classbustub_1_1BoundTableRef.html" target="_top" xlink:title=" ">
<polygon fill="white" stroke="black" points="0,-67.5 0,-86.5 128,-86.5 128,-67.5 0,-67.5"/>
<text text-anchor="middle" x="64" y="-74.5" font-family="Helvetica,sans-Serif" font-size="10.00">bustub::BoundTableRef</text>
</a>
</g>
</g>
<!-- Node2&#45;&gt;Node1 -->
<g id="edge1" class="edge">
<title>Node2&#45;&gt;Node1</title>
<path fill="none" stroke="midnightblue" d="M80,-60C92.75,-47.25 110.11,-29.89 120.37,-19.63"/>
<polygon fill="midnightblue" stroke="midnightblue" points="77.36,-57.69 72.77,-67.23 82.31,-62.64 77.36,-57.69"/>
</g>
<!-- Node3 -->
<g id="node3" class="node">
<title>Node3</title>
<g id="a_node3"><a xlink:href="classbustub_1_1Schema.html" target="_top" xlink:title=" ">
<polygon fill="white" stroke="black" points="146.5,-67.5 146.5,-86.5 241.5,-86.5 241.5,-67.5 146.5,-67.5"/>
<text text-anchor="middle" x="194" y="-74.5" font-family="Helvetica,sans-Serif" font-size="10.00">bustub::Schema</text>
</a>
</g>
</g>
<!-- Node3&#45;&gt;Node1 -->
<g id="edge2" class="edge">
<title>Node3&#45;&gt;Node1</title>
<path fill="none" stroke="#9a32cd" stroke-dasharray="5,2" d="M178,-60C165.25,-47.25 147.89,-29.89 137.63,-19.63"/>
<polygon fill="#9a32cd" stroke="#9a32cd" points="175.69,-62.64 185.23,-67.23 180.64,-57.69 175.69,-62.64"/>
<text text-anchor="middle" x="188.5" y="-41" font-family="Helvetica,sans-Serif" font-size="10.00"> schema_</text>
</g>
</g>
</svg>
