<?xml version="1.0" encoding="UTF-8" standalone="no"?>
<!DOCTYPE svg PUBLIC "-//W3C//DTD SVG 1.1//EN"
 "http://www.w3.org/Graphics/SVG/1.1/DTD/svg11.dtd">
<!-- Generated by graphviz version 2.43.0 (0)
 -->
<!-- Title: bustub::BigintType Pages: 1 -->
<svg width="179pt" height="199pt"
 viewBox="0.00 0.00 178.50 199.00" xmlns="http://www.w3.org/2000/svg" xmlns:xlink="http://www.w3.org/1999/xlink">
<g id="graph0" class="graph" transform="scale(1 1) rotate(0) translate(4 195)">
<title>bustub::BigintType</title>
<polygon fill="white" stroke="transparent" points="-4,4 -4,-195 174.5,-195 174.5,4 -4,4"/>
<!-- Node1 -->
<g id="node1" class="node">
<title>Node1</title>
<g id="a_node1"><a xlink:title=" ">
<polygon fill="#bfbfbf" stroke="black" points="18,-0.5 18,-19.5 125,-19.5 125,-0.5 18,-0.5"/>
<text text-anchor="middle" x="71.5" y="-7.5" font-family="Helvetica,sans-Serif" font-size="10.00">bustub::BigintType</text>
</a>
</g>
</g>
<!-- Node2 -->
<g id="node2" class="node">
<title>Node2</title>
<g id="a_node2"><a xlink:href="classbustub_1_1IntegerParentType.html" target="_top" xlink:title=" ">
<polygon fill="white" stroke="black" points="0,-57.5 0,-76.5 143,-76.5 143,-57.5 0,-57.5"/>
<text text-anchor="middle" x="71.5" y="-64.5" font-family="Helvetica,sans-Serif" font-size="10.00">bustub::IntegerParentType</text>
</a>
</g>
</g>
<!-- Node2&#45;&gt;Node1 -->
<g id="edge1" class="edge">
<title>Node2&#45;&gt;Node1</title>
<path fill="none" stroke="midnightblue" d="M71.5,-47.12C71.5,-37.82 71.5,-27.06 71.5,-19.71"/>
<polygon fill="midnightblue" stroke="midnightblue" points="68,-47.41 71.5,-57.41 75,-47.41 68,-47.41"/>
</g>
<!-- Node3 -->
<g id="node3" class="node">
<title>Node3</title>
<g id="a_node3"><a xlink:href="classbustub_1_1NumericType.html" target="_top" xlink:title=" ">
<polygon fill="white" stroke="black" points="12,-114.5 12,-133.5 131,-133.5 131,-114.5 12,-114.5"/>
<text text-anchor="middle" x="71.5" y="-121.5" font-family="Helvetica,sans-Serif" font-size="10.00">bustub::NumericType</text>
</a>
</g>
</g>
<!-- Node3&#45;&gt;Node2 -->
<g id="edge2" class="edge">
<title>Node3&#45;&gt;Node2</title>
<path fill="none" stroke="midnightblue" d="M71.5,-104.12C71.5,-94.82 71.5,-84.06 71.5,-76.71"/>
<polygon fill="midnightblue" stroke="midnightblue" points="68,-104.41 71.5,-114.41 75,-104.41 68,-104.41"/>
</g>
<!-- Node4 -->
<g id="node4" class="node">
<title>Node4</title>
<g id="a_node4"><a xlink:href="classbustub_1_1Type.html" target="_top" xlink:title=" ">
<polygon fill="white" stroke="black" points="32.5,-171.5 32.5,-190.5 110.5,-190.5 110.5,-171.5 32.5,-171.5"/>
<text text-anchor="middle" x="71.5" y="-178.5" font-family="Helvetica,sans-Serif" font-size="10.00">bustub::Type</text>
</a>
</g>
</g>
<!-- Node4&#45;&gt;Node3 -->
<g id="edge3" class="edge">
<title>Node4&#45;&gt;Node3</title>
<path fill="none" stroke="midnightblue" d="M71.5,-161.12C71.5,-151.82 71.5,-141.06 71.5,-133.71"/>
<polygon fill="midnightblue" stroke="midnightblue" points="68,-161.41 71.5,-171.41 75,-161.41 68,-161.41"/>
</g>
<!-- Node4&#45;&gt;Node4 -->
<g id="edge4" class="edge">
<title>Node4&#45;&gt;Node4</title>
<path fill="none" stroke="#9a32cd" stroke-dasharray="5,2" d="M120.78,-185.24C125.5,-184.38 128.5,-182.97 128.5,-181 128.5,-177.86 120.83,-176.12 110.66,-175.8"/>
<polygon fill="#9a32cd" stroke="#9a32cd" points="120.29,-181.77 110.66,-186.2 120.95,-188.74 120.29,-181.77"/>
<text text-anchor="middle" x="149.5" y="-178.5" font-family="Helvetica,sans-Serif" font-size="10.00"> k_types</text>
</g>
</g>
</svg>
