<?xml version="1.0" encoding="UTF-8" standalone="no"?>
<!DOCTYPE svg PUBLIC "-//W3C//DTD SVG 1.1//EN"
 "http://www.w3.org/Graphics/SVG/1.1/DTD/svg11.dtd">
<!-- Generated by graphviz version 2.43.0 (0)
 -->
<!-- Title: bustub::NumericType Pages: 1 -->
<svg width="167pt" height="85pt"
 viewBox="0.00 0.00 166.50 85.00" xmlns="http://www.w3.org/2000/svg" xmlns:xlink="http://www.w3.org/1999/xlink">
<g id="graph0" class="graph" transform="scale(1 1) rotate(0) translate(4 81)">
<title>bustub::NumericType</title>
<polygon fill="white" stroke="transparent" points="-4,4 -4,-81 162.5,-81 162.5,4 -4,4"/>
<!-- Node1 -->
<g id="node1" class="node">
<title>Node1</title>
<g id="a_node1"><a xlink:title=" ">
<polygon fill="#bfbfbf" stroke="black" points="0,-0.5 0,-19.5 119,-19.5 119,-0.5 0,-0.5"/>
<text text-anchor="middle" x="59.5" y="-7.5" font-family="Helvetica,sans-Serif" font-size="10.00">bustub::NumericType</text>
</a>
</g>
</g>
<!-- Node2 -->
<g id="node2" class="node">
<title>Node2</title>
<g id="a_node2"><a xlink:href="classbustub_1_1Type.html" target="_top" xlink:title=" ">
<polygon fill="white" stroke="black" points="20.5,-57.5 20.5,-76.5 98.5,-76.5 98.5,-57.5 20.5,-57.5"/>
<text text-anchor="middle" x="59.5" y="-64.5" font-family="Helvetica,sans-Serif" font-size="10.00">bustub::Type</text>
</a>
</g>
</g>
<!-- Node2&#45;&gt;Node1 -->
<g id="edge1" class="edge">
<title>Node2&#45;&gt;Node1</title>
<path fill="none" stroke="midnightblue" d="M59.5,-47.12C59.5,-37.82 59.5,-27.06 59.5,-19.71"/>
<polygon fill="midnightblue" stroke="midnightblue" points="56,-47.41 59.5,-57.41 63,-47.41 56,-47.41"/>
</g>
<!-- Node2&#45;&gt;Node2 -->
<g id="edge2" class="edge">
<title>Node2&#45;&gt;Node2</title>
<path fill="none" stroke="#9a32cd" stroke-dasharray="5,2" d="M108.78,-71.24C113.5,-70.38 116.5,-68.97 116.5,-67 116.5,-63.86 108.83,-62.12 98.66,-61.8"/>
<polygon fill="#9a32cd" stroke="#9a32cd" points="108.29,-67.77 98.66,-72.2 108.95,-74.74 108.29,-67.77"/>
<text text-anchor="middle" x="137.5" y="-64.5" font-family="Helvetica,sans-Serif" font-size="10.00"> k_types</text>
</g>
</g>
</svg>
