<?xml version="1.0" encoding="UTF-8" standalone="no"?>
<!DOCTYPE svg PUBLIC "-//W3C//DTD SVG 1.1//EN"
 "http://www.w3.org/Graphics/SVG/1.1/DTD/svg11.dtd">
<!-- Generated by graphviz version 2.43.0 (0)
 -->
<!-- Title: bustub::LockManager Pages: 1 -->
<svg width="230pt" height="162pt"
 viewBox="0.00 0.00 229.50 162.00" xmlns="http://www.w3.org/2000/svg" xmlns:xlink="http://www.w3.org/1999/xlink">
<g id="graph0" class="graph" transform="scale(1 1) rotate(0) translate(4 158)">
<title>bustub::LockManager</title>
<polygon fill="white" stroke="transparent" points="-4,4 -4,-158 225.5,-158 225.5,4 -4,4"/>
<!-- Node1 -->
<g id="node1" class="node">
<title>Node1</title>
<g id="a_node1"><a xlink:title=" ">
<polygon fill="#bfbfbf" stroke="black" points="46,-0.5 46,-19.5 167,-19.5 167,-0.5 46,-0.5"/>
<text text-anchor="middle" x="106.5" y="-7.5" font-family="Helvetica,sans-Serif" font-size="10.00">bustub::LockManager</text>
</a>
</g>
</g>
<!-- Node2 -->
<g id="node2" class="node">
<title>Node2</title>
<g id="a_node2"><a xlink:href="classbustub_1_1TransactionManager.html" target="_top" xlink:title=" ">
<polygon fill="white" stroke="black" points="29.5,-67.5 29.5,-86.5 183.5,-86.5 183.5,-67.5 29.5,-67.5"/>
<text text-anchor="middle" x="106.5" y="-74.5" font-family="Helvetica,sans-Serif" font-size="10.00">bustub::TransactionManager</text>
</a>
</g>
</g>
<!-- Node2&#45;&gt;Node1 -->
<g id="edge1" class="edge">
<title>Node2&#45;&gt;Node1</title>
<path fill="none" stroke="#9a32cd" stroke-dasharray="5,2" d="M106.5,-57.04C106.5,-44.67 106.5,-29.12 106.5,-19.63"/>
<polygon fill="#9a32cd" stroke="#9a32cd" points="103,-57.23 106.5,-67.23 110,-57.23 103,-57.23"/>
<text text-anchor="middle" x="143" y="-41" font-family="Helvetica,sans-Serif" font-size="10.00"> txn_manager_</text>
</g>
<!-- Node3 -->
<g id="node3" class="node">
<title>Node3</title>
<g id="a_node3"><a xlink:href="classbustub_1_1Catalog.html" target="_top" xlink:title=" ">
<polygon fill="white" stroke="black" points="0,-134.5 0,-153.5 93,-153.5 93,-134.5 0,-134.5"/>
<text text-anchor="middle" x="46.5" y="-141.5" font-family="Helvetica,sans-Serif" font-size="10.00">bustub::Catalog</text>
</a>
</g>
</g>
<!-- Node3&#45;&gt;Node2 -->
<g id="edge2" class="edge">
<title>Node3&#45;&gt;Node2</title>
<path fill="none" stroke="#9a32cd" stroke-dasharray="5,2" d="M61.61,-126.63C73.34,-113.92 89.15,-96.8 98.54,-86.63"/>
<polygon fill="#9a32cd" stroke="#9a32cd" points="58.8,-124.51 54.59,-134.23 63.95,-129.26 58.8,-124.51"/>
<text text-anchor="middle" x="103" y="-108" font-family="Helvetica,sans-Serif" font-size="10.00"> catalog_</text>
</g>
<!-- Node4 -->
<g id="node4" class="node">
<title>Node4</title>
<g id="a_node4"><a xlink:href="classbustub_1_1Watermark.html" target="_top" xlink:title="tracks all the read timestamps.">
<polygon fill="white" stroke="black" points="111.5,-134.5 111.5,-153.5 221.5,-153.5 221.5,-134.5 111.5,-134.5"/>
<text text-anchor="middle" x="166.5" y="-141.5" font-family="Helvetica,sans-Serif" font-size="10.00">bustub::Watermark</text>
</a>
</g>
</g>
<!-- Node4&#45;&gt;Node2 -->
<g id="edge3" class="edge">
<title>Node4&#45;&gt;Node2</title>
<path fill="none" stroke="#9a32cd" stroke-dasharray="5,2" d="M151.39,-126.63C139.66,-113.92 123.85,-96.8 114.46,-86.63"/>
<polygon fill="#9a32cd" stroke="#9a32cd" points="149.05,-129.26 158.41,-134.23 154.2,-124.51 149.05,-129.26"/>
<text text-anchor="middle" x="175.5" y="-108" font-family="Helvetica,sans-Serif" font-size="10.00"> running_txns_</text>
</g>
</g>
</svg>
