<?xml version="1.0" encoding="UTF-8" standalone="no"?>
<!DOCTYPE svg PUBLIC "-//W3C//DTD SVG 1.1//EN"
 "http://www.w3.org/Graphics/SVG/1.1/DTD/svg11.dtd">
<!-- Generated by graphviz version 2.43.0 (0)
 -->
<!-- Title: bustub::ConstantValueExpression Pages: 1 -->
<svg width="269pt" height="162pt"
 viewBox="0.00 0.00 268.50 162.00" xmlns="http://www.w3.org/2000/svg" xmlns:xlink="http://www.w3.org/1999/xlink">
<g id="graph0" class="graph" transform="scale(1 1) rotate(0) translate(4 158)">
<title>bustub::ConstantValueExpression</title>
<polygon fill="white" stroke="transparent" points="-4,4 -4,-158 264.5,-158 264.5,4 -4,4"/>
<!-- Node1 -->
<g id="node1" class="node">
<title>Node1</title>
<g id="a_node1"><a xlink:title=" ">
<polygon fill="#bfbfbf" stroke="black" points="26,-0.5 26,-19.5 205,-19.5 205,-0.5 26,-0.5"/>
<text text-anchor="middle" x="115.5" y="-7.5" font-family="Helvetica,sans-Serif" font-size="10.00">bustub::ConstantValueExpression</text>
</a>
</g>
</g>
<!-- Node2 -->
<g id="node2" class="node">
<title>Node2</title>
<g id="a_node2"><a xlink:href="classbustub_1_1AbstractExpression.html" target="_top" xlink:title=" ">
<polygon fill="white" stroke="black" points="0,-67.5 0,-86.5 149,-86.5 149,-67.5 0,-67.5"/>
<text text-anchor="middle" x="74.5" y="-74.5" font-family="Helvetica,sans-Serif" font-size="10.00">bustub::AbstractExpression</text>
</a>
</g>
</g>
<!-- Node2&#45;&gt;Node1 -->
<g id="edge1" class="edge">
<title>Node2&#45;&gt;Node1</title>
<path fill="none" stroke="midnightblue" d="M85.52,-58.53C93.45,-45.95 103.83,-29.51 110.06,-19.63"/>
<polygon fill="midnightblue" stroke="midnightblue" points="82.4,-56.91 80.03,-67.23 88.32,-60.64 82.4,-56.91"/>
</g>
<!-- Node3 -->
<g id="node3" class="node">
<title>Node3</title>
<g id="a_node3"><a xlink:href="classbustub_1_1Value.html" target="_top" xlink:title=" ">
<polygon fill="white" stroke="black" points="167,-67.5 167,-86.5 250,-86.5 250,-67.5 167,-67.5"/>
<text text-anchor="middle" x="208.5" y="-74.5" font-family="Helvetica,sans-Serif" font-size="10.00">bustub::Value</text>
</a>
</g>
</g>
<!-- Node3&#45;&gt;Node1 -->
<g id="edge2" class="edge">
<title>Node3&#45;&gt;Node1</title>
<path fill="none" stroke="#9a32cd" stroke-dasharray="5,2" d="M187.64,-61.42C169.25,-48.57 143.09,-30.28 127.84,-19.63"/>
<polygon fill="#9a32cd" stroke="#9a32cd" points="185.76,-64.37 195.96,-67.23 189.77,-58.64 185.76,-64.37"/>
<text text-anchor="middle" x="179.5" y="-41" font-family="Helvetica,sans-Serif" font-size="10.00"> val_</text>
</g>
<!-- Node4 -->
<g id="node4" class="node">
<title>Node4</title>
<g id="a_node4"><a xlink:href="unionbustub_1_1Value_1_1Val.html" target="_top" xlink:title=" ">
<polygon fill="white" stroke="black" points="156.5,-134.5 156.5,-153.5 260.5,-153.5 260.5,-134.5 156.5,-134.5"/>
<text text-anchor="middle" x="208.5" y="-141.5" font-family="Helvetica,sans-Serif" font-size="10.00">bustub::Value::Val</text>
</a>
</g>
</g>
<!-- Node4&#45;&gt;Node3 -->
<g id="edge3" class="edge">
<title>Node4&#45;&gt;Node3</title>
<path fill="none" stroke="#9a32cd" stroke-dasharray="5,2" d="M208.5,-124.04C208.5,-111.67 208.5,-96.12 208.5,-86.63"/>
<polygon fill="#9a32cd" stroke="#9a32cd" points="205,-124.23 208.5,-134.23 212,-124.23 205,-124.23"/>
<text text-anchor="middle" x="226.5" y="-108" font-family="Helvetica,sans-Serif" font-size="10.00"> value_</text>
</g>
</g>
</svg>
