<?xml version="1.0" encoding="UTF-8" standalone="no"?>
<!DOCTYPE svg PUBLIC "-//W3C//DTD SVG 1.1//EN"
 "http://www.w3.org/Graphics/SVG/1.1/DTD/svg11.dtd">
<!-- Generated by graphviz version 2.43.0 (0)
 -->
<!-- Title: bustub::AbstractPlanNode Pages: 1 -->
<svg width="369pt" height="674pt"
 viewBox="0.00 0.00 369.00 674.00" xmlns="http://www.w3.org/2000/svg" xmlns:xlink="http://www.w3.org/1999/xlink">
<g id="graph0" class="graph" transform="scale(1 1) rotate(0) translate(4 670)">
<title>bustub::AbstractPlanNode</title>
<polygon fill="white" stroke="transparent" points="-4,4 -4,-670 365,-670 365,4 -4,4"/>
<!-- Node1 -->
<g id="node1" class="node">
<title>Node1</title>
<g id="a_node1"><a xlink:title=" ">
<polygon fill="#bfbfbf" stroke="black" points="0,-323.5 0,-342.5 143,-342.5 143,-323.5 0,-323.5"/>
<text text-anchor="middle" x="71.5" y="-330.5" font-family="Helvetica,sans-Serif" font-size="10.00">bustub::AbstractPlanNode</text>
</a>
</g>
</g>
<!-- Node2 -->
<g id="node2" class="node">
<title>Node2</title>
<g id="a_node2"><a xlink:href="classbustub_1_1AggregationPlanNode.html" target="_top" xlink:title=" ">
<polygon fill="white" stroke="black" points="189.5,-646.5 189.5,-665.5 350.5,-665.5 350.5,-646.5 189.5,-646.5"/>
<text text-anchor="middle" x="270" y="-653.5" font-family="Helvetica,sans-Serif" font-size="10.00">bustub::AggregationPlanNode</text>
</a>
</g>
</g>
<!-- Node1&#45;&gt;Node2 -->
<g id="edge1" class="edge">
<title>Node1&#45;&gt;Node2</title>
<path fill="none" stroke="midnightblue" d="M73.11,-352.81C75.9,-407.24 91.54,-560.15 179,-637 183.32,-640.79 188.2,-643.9 193.41,-646.43"/>
<polygon fill="midnightblue" stroke="midnightblue" points="76.6,-352.59 72.68,-342.75 69.61,-352.89 76.6,-352.59"/>
</g>
<!-- Node3 -->
<g id="node3" class="node">
<title>Node3</title>
<g id="a_node3"><a xlink:href="classbustub_1_1DeletePlanNode.html" target="_top" xlink:title=" ">
<polygon fill="white" stroke="black" points="203,-608.5 203,-627.5 337,-627.5 337,-608.5 203,-608.5"/>
<text text-anchor="middle" x="270" y="-615.5" font-family="Helvetica,sans-Serif" font-size="10.00">bustub::DeletePlanNode</text>
</a>
</g>
</g>
<!-- Node1&#45;&gt;Node3 -->
<g id="edge2" class="edge">
<title>Node1&#45;&gt;Node3</title>
<path fill="none" stroke="midnightblue" d="M74.2,-352.63C79.6,-402.25 100.93,-533.37 179,-599 185.85,-604.75 194,-608.9 202.57,-611.87"/>
<polygon fill="midnightblue" stroke="midnightblue" points="77.67,-352.2 73.21,-342.59 70.71,-352.89 77.67,-352.2"/>
</g>
<!-- Node4 -->
<g id="node4" class="node">
<title>Node4</title>
<g id="a_node4"><a xlink:href="classbustub_1_1FilterPlanNode.html" target="_top" xlink:title=" ">
<polygon fill="white" stroke="black" points="206.5,-570.5 206.5,-589.5 333.5,-589.5 333.5,-570.5 206.5,-570.5"/>
<text text-anchor="middle" x="270" y="-577.5" font-family="Helvetica,sans-Serif" font-size="10.00">bustub::FilterPlanNode</text>
</a>
</g>
</g>
<!-- Node1&#45;&gt;Node4 -->
<g id="edge3" class="edge">
<title>Node1&#45;&gt;Node4</title>
<path fill="none" stroke="midnightblue" d="M75.67,-352.79C83.91,-397.48 110.38,-506.53 179,-561 186.88,-567.25 196.33,-571.58 206.11,-574.55"/>
<polygon fill="midnightblue" stroke="midnightblue" points="79.07,-351.92 73.91,-342.67 72.17,-353.12 79.07,-351.92"/>
</g>
<!-- Node5 -->
<g id="node5" class="node">
<title>Node5</title>
<g id="a_node5"><a xlink:href="classbustub_1_1HashJoinPlanNode.html" target="_top" xlink:title=" ">
<polygon fill="white" stroke="black" points="197.5,-532.5 197.5,-551.5 342.5,-551.5 342.5,-532.5 197.5,-532.5"/>
<text text-anchor="middle" x="270" y="-539.5" font-family="Helvetica,sans-Serif" font-size="10.00">bustub::HashJoinPlanNode</text>
</a>
</g>
</g>
<!-- Node1&#45;&gt;Node5 -->
<g id="edge4" class="edge">
<title>Node1&#45;&gt;Node5</title>
<path fill="none" stroke="midnightblue" d="M77.61,-352.67C88.83,-391.77 119.53,-479.28 179,-523 184.53,-527.07 190.75,-530.3 197.25,-532.88"/>
<polygon fill="midnightblue" stroke="midnightblue" points="80.92,-351.51 74.89,-342.79 74.17,-353.36 80.92,-351.51"/>
</g>
<!-- Node6 -->
<g id="node6" class="node">
<title>Node6</title>
<g id="a_node6"><a xlink:href="classbustub_1_1IndexScanPlanNode.html" target="_top" xlink:title=" ">
<polygon fill="white" stroke="black" points="194,-494.5 194,-513.5 346,-513.5 346,-494.5 194,-494.5"/>
<text text-anchor="middle" x="270" y="-501.5" font-family="Helvetica,sans-Serif" font-size="10.00">bustub::IndexScanPlanNode</text>
</a>
</g>
</g>
<!-- Node1&#45;&gt;Node6 -->
<g id="edge5" class="edge">
<title>Node1&#45;&gt;Node6</title>
<path fill="none" stroke="midnightblue" d="M80.22,-352.1C94.5,-384.87 128.3,-451.5 179,-485 184.86,-488.87 191.37,-491.98 198.12,-494.46"/>
<polygon fill="midnightblue" stroke="midnightblue" points="83.38,-350.59 76.27,-342.74 76.93,-353.31 83.38,-350.59"/>
</g>
<!-- Node7 -->
<g id="node7" class="node">
<title>Node7</title>
<g id="a_node7"><a xlink:href="classbustub_1_1InsertPlanNode.html" target="_top" xlink:title=" ">
<polygon fill="white" stroke="black" points="205,-456.5 205,-475.5 335,-475.5 335,-456.5 205,-456.5"/>
<text text-anchor="middle" x="270" y="-463.5" font-family="Helvetica,sans-Serif" font-size="10.00">bustub::InsertPlanNode</text>
</a>
</g>
</g>
<!-- Node1&#45;&gt;Node7 -->
<g id="edge6" class="edge">
<title>Node1&#45;&gt;Node7</title>
<path fill="none" stroke="midnightblue" d="M84.14,-351.26C101.53,-376.92 136.77,-423.17 179,-447 186.93,-451.47 195.79,-454.9 204.77,-457.52"/>
<polygon fill="midnightblue" stroke="midnightblue" points="87,-349.24 78.57,-342.82 81.16,-353.09 87,-349.24"/>
</g>
<!-- Node8 -->
<g id="node8" class="node">
<title>Node8</title>
<g id="a_node8"><a xlink:href="classbustub_1_1LimitPlanNode.html" target="_top" xlink:title=" ">
<polygon fill="white" stroke="black" points="206.5,-418.5 206.5,-437.5 333.5,-437.5 333.5,-418.5 206.5,-418.5"/>
<text text-anchor="middle" x="270" y="-425.5" font-family="Helvetica,sans-Serif" font-size="10.00">bustub::LimitPlanNode</text>
</a>
</g>
</g>
<!-- Node1&#45;&gt;Node8 -->
<g id="edge7" class="edge">
<title>Node1&#45;&gt;Node8</title>
<path fill="none" stroke="midnightblue" d="M90.48,-349.43C110.57,-366.88 144.79,-393.97 179,-409 187.77,-412.85 197.38,-415.94 206.94,-418.42"/>
<polygon fill="midnightblue" stroke="midnightblue" points="92.58,-346.61 82.78,-342.6 87.94,-351.85 92.58,-346.61"/>
</g>
<!-- Node9 -->
<g id="node9" class="node">
<title>Node9</title>
<g id="a_node9"><a xlink:href="classbustub_1_1MockScanPlanNode.html" target="_top" xlink:title=" ">
<polygon fill="white" stroke="black" points="194,-380.5 194,-399.5 346,-399.5 346,-380.5 194,-380.5"/>
<text text-anchor="middle" x="270" y="-387.5" font-family="Helvetica,sans-Serif" font-size="10.00">bustub::MockScanPlanNode</text>
</a>
</g>
</g>
<!-- Node1&#45;&gt;Node9 -->
<g id="edge8" class="edge">
<title>Node1&#45;&gt;Node9</title>
<path fill="none" stroke="midnightblue" d="M105.66,-346.14C126.49,-354.06 154.05,-363.95 179,-371 191.45,-374.52 205.03,-377.71 217.78,-380.43"/>
<polygon fill="midnightblue" stroke="midnightblue" points="106.9,-342.86 96.31,-342.54 104.39,-349.39 106.9,-342.86"/>
</g>
<!-- Node10 -->
<g id="node10" class="node">
<title>Node10</title>
<g id="a_node10"><a xlink:href="classbustub_1_1NestedIndexJoinPlanNode.html" target="_top" xlink:title=" ">
<polygon fill="white" stroke="black" points="179,-342.5 179,-361.5 361,-361.5 361,-342.5 179,-342.5"/>
<text text-anchor="middle" x="270" y="-349.5" font-family="Helvetica,sans-Serif" font-size="10.00">bustub::NestedIndexJoinPlanNode</text>
</a>
</g>
</g>
<!-- Node1&#45;&gt;Node10 -->
<g id="edge9" class="edge">
<title>Node1&#45;&gt;Node10</title>
<path fill="none" stroke="midnightblue" d="M153.3,-340.81C161.7,-341.63 170.28,-342.45 178.77,-343.28"/>
<polygon fill="midnightblue" stroke="midnightblue" points="153.45,-337.31 143.16,-339.83 152.78,-344.28 153.45,-337.31"/>
</g>
<!-- Node11 -->
<g id="node11" class="node">
<title>Node11</title>
<g id="a_node11"><a xlink:href="classbustub_1_1NestedLoopJoinPlanNode.html" target="_top" xlink:title=" ">
<polygon fill="white" stroke="black" points="181,-304.5 181,-323.5 359,-323.5 359,-304.5 181,-304.5"/>
<text text-anchor="middle" x="270" y="-311.5" font-family="Helvetica,sans-Serif" font-size="10.00">bustub::NestedLoopJoinPlanNode</text>
</a>
</g>
</g>
<!-- Node1&#45;&gt;Node11 -->
<g id="edge10" class="edge">
<title>Node1&#45;&gt;Node11</title>
<path fill="none" stroke="midnightblue" d="M153.3,-325.19C162.38,-324.31 171.66,-323.41 180.82,-322.53"/>
<polygon fill="midnightblue" stroke="midnightblue" points="152.78,-321.72 143.16,-326.17 153.45,-328.69 152.78,-321.72"/>
</g>
<!-- Node12 -->
<g id="node12" class="node">
<title>Node12</title>
<g id="a_node12"><a xlink:href="classbustub_1_1ProjectionPlanNode.html" target="_top" xlink:title=" ">
<polygon fill="white" stroke="black" points="194.5,-266.5 194.5,-285.5 345.5,-285.5 345.5,-266.5 194.5,-266.5"/>
<text text-anchor="middle" x="270" y="-273.5" font-family="Helvetica,sans-Serif" font-size="10.00">bustub::ProjectionPlanNode</text>
</a>
</g>
</g>
<!-- Node1&#45;&gt;Node12 -->
<g id="edge11" class="edge">
<title>Node1&#45;&gt;Node12</title>
<path fill="none" stroke="midnightblue" d="M105.66,-319.86C126.49,-311.94 154.05,-302.05 179,-295 191.45,-291.48 205.03,-288.29 217.78,-285.57"/>
<polygon fill="midnightblue" stroke="midnightblue" points="104.39,-316.61 96.31,-323.46 106.9,-323.14 104.39,-316.61"/>
</g>
<!-- Node13 -->
<g id="node13" class="node">
<title>Node13</title>
<g id="a_node13"><a xlink:href="classbustub_1_1SeqScanPlanNode.html" target="_top" xlink:title=" ">
<polygon fill="white" stroke="black" points="198.5,-228.5 198.5,-247.5 341.5,-247.5 341.5,-228.5 198.5,-228.5"/>
<text text-anchor="middle" x="270" y="-235.5" font-family="Helvetica,sans-Serif" font-size="10.00">bustub::SeqScanPlanNode</text>
</a>
</g>
</g>
<!-- Node1&#45;&gt;Node13 -->
<g id="edge12" class="edge">
<title>Node1&#45;&gt;Node13</title>
<path fill="none" stroke="midnightblue" d="M90.48,-316.57C110.57,-299.12 144.79,-272.03 179,-257 187.77,-253.15 197.38,-250.06 206.94,-247.58"/>
<polygon fill="midnightblue" stroke="midnightblue" points="87.94,-314.15 82.78,-323.4 92.58,-319.39 87.94,-314.15"/>
</g>
<!-- Node14 -->
<g id="node14" class="node">
<title>Node14</title>
<g id="a_node14"><a xlink:href="classbustub_1_1SortPlanNode.html" target="_top" xlink:title=" ">
<polygon fill="white" stroke="black" points="209,-190.5 209,-209.5 331,-209.5 331,-190.5 209,-190.5"/>
<text text-anchor="middle" x="270" y="-197.5" font-family="Helvetica,sans-Serif" font-size="10.00">bustub::SortPlanNode</text>
</a>
</g>
</g>
<!-- Node1&#45;&gt;Node14 -->
<g id="edge13" class="edge">
<title>Node1&#45;&gt;Node14</title>
<path fill="none" stroke="midnightblue" d="M84.14,-314.74C101.53,-289.08 136.77,-242.83 179,-219 188.04,-213.9 198.29,-210.16 208.56,-207.43"/>
<polygon fill="midnightblue" stroke="midnightblue" points="81.16,-312.91 78.57,-323.18 87,-316.76 81.16,-312.91"/>
</g>
<!-- Node15 -->
<g id="node15" class="node">
<title>Node15</title>
<g id="a_node15"><a xlink:href="classbustub_1_1TopNPerGroupPlanNode.html" target="_top" xlink:title=" ">
<polygon fill="white" stroke="black" points="184.5,-152.5 184.5,-171.5 355.5,-171.5 355.5,-152.5 184.5,-152.5"/>
<text text-anchor="middle" x="270" y="-159.5" font-family="Helvetica,sans-Serif" font-size="10.00">bustub::TopNPerGroupPlanNode</text>
</a>
</g>
</g>
<!-- Node1&#45;&gt;Node15 -->
<g id="edge14" class="edge">
<title>Node1&#45;&gt;Node15</title>
<path fill="none" stroke="midnightblue" d="M80.22,-313.9C94.5,-281.13 128.3,-214.5 179,-181 184.86,-177.13 191.37,-174.02 198.12,-171.54"/>
<polygon fill="midnightblue" stroke="midnightblue" points="76.93,-312.69 76.27,-323.26 83.38,-315.41 76.93,-312.69"/>
</g>
<!-- Node16 -->
<g id="node16" class="node">
<title>Node16</title>
<g id="a_node16"><a xlink:href="classbustub_1_1TopNPlanNode.html" target="_top" xlink:title=" ">
<polygon fill="white" stroke="black" points="207,-114.5 207,-133.5 333,-133.5 333,-114.5 207,-114.5"/>
<text text-anchor="middle" x="270" y="-121.5" font-family="Helvetica,sans-Serif" font-size="10.00">bustub::TopNPlanNode</text>
</a>
</g>
</g>
<!-- Node1&#45;&gt;Node16 -->
<g id="edge15" class="edge">
<title>Node1&#45;&gt;Node16</title>
<path fill="none" stroke="midnightblue" d="M77.61,-313.33C88.83,-274.23 119.53,-186.72 179,-143 187.23,-136.95 196.98,-132.73 206.96,-129.81"/>
<polygon fill="midnightblue" stroke="midnightblue" points="74.17,-312.64 74.89,-323.21 80.92,-314.49 74.17,-312.64"/>
</g>
<!-- Node17 -->
<g id="node17" class="node">
<title>Node17</title>
<g id="a_node17"><a xlink:href="classbustub_1_1UpdatePlanNode.html" target="_top" xlink:title=" ">
<polygon fill="white" stroke="black" points="201.5,-76.5 201.5,-95.5 338.5,-95.5 338.5,-76.5 201.5,-76.5"/>
<text text-anchor="middle" x="270" y="-83.5" font-family="Helvetica,sans-Serif" font-size="10.00">bustub::UpdatePlanNode</text>
</a>
</g>
</g>
<!-- Node1&#45;&gt;Node17 -->
<g id="edge16" class="edge">
<title>Node1&#45;&gt;Node17</title>
<path fill="none" stroke="midnightblue" d="M75.67,-313.21C83.91,-268.52 110.38,-159.47 179,-105 185.63,-99.74 193.37,-95.84 201.48,-92.97"/>
<polygon fill="midnightblue" stroke="midnightblue" points="72.17,-312.88 73.91,-323.33 79.07,-314.08 72.17,-312.88"/>
</g>
<!-- Node18 -->
<g id="node18" class="node">
<title>Node18</title>
<g id="a_node18"><a xlink:href="classbustub_1_1ValuesPlanNode.html" target="_top" xlink:title=" ">
<polygon fill="white" stroke="black" points="203,-38.5 203,-57.5 337,-57.5 337,-38.5 203,-38.5"/>
<text text-anchor="middle" x="270" y="-45.5" font-family="Helvetica,sans-Serif" font-size="10.00">bustub::ValuesPlanNode</text>
</a>
</g>
</g>
<!-- Node1&#45;&gt;Node18 -->
<g id="edge17" class="edge">
<title>Node1&#45;&gt;Node18</title>
<path fill="none" stroke="midnightblue" d="M74.2,-313.37C79.6,-263.75 100.93,-132.63 179,-67 185.85,-61.25 194,-57.1 202.57,-54.13"/>
<polygon fill="midnightblue" stroke="midnightblue" points="70.71,-313.11 73.21,-323.41 77.67,-313.8 70.71,-313.11"/>
</g>
<!-- Node19 -->
<g id="node19" class="node">
<title>Node19</title>
<g id="a_node19"><a xlink:href="classbustub_1_1WindowFunctionPlanNode.html" target="_top" xlink:title=" ">
<polygon fill="white" stroke="black" points="179,-0.5 179,-19.5 361,-19.5 361,-0.5 179,-0.5"/>
<text text-anchor="middle" x="270" y="-7.5" font-family="Helvetica,sans-Serif" font-size="10.00">bustub::WindowFunctionPlanNode</text>
</a>
</g>
</g>
<!-- Node1&#45;&gt;Node19 -->
<g id="edge18" class="edge">
<title>Node1&#45;&gt;Node19</title>
<path fill="none" stroke="midnightblue" d="M73.11,-313.19C75.9,-258.76 91.54,-105.85 179,-29 183.32,-25.21 188.2,-22.1 193.41,-19.57"/>
<polygon fill="midnightblue" stroke="midnightblue" points="69.61,-313.11 72.68,-323.25 76.6,-313.41 69.61,-313.11"/>
</g>
</g>
</svg>
