<?xml version="1.0" encoding="UTF-8" standalone="no"?>
<!DOCTYPE svg PUBLIC "-//W3C//DTD SVG 1.1//EN"
 "http://www.w3.org/Graphics/SVG/1.1/DTD/svg11.dtd">
<!-- Generated by graphviz version 2.43.0 (0)
 -->
<!-- Title: Graphical Class Hierarchy Pages: 1 -->
<svg width="315pt" height="180pt"
 viewBox="0.00 0.00 315.00 180.00" xmlns="http://www.w3.org/2000/svg" xmlns:xlink="http://www.w3.org/1999/xlink">
<g id="graph0" class="graph" transform="scale(1 1) rotate(0) translate(4 176)">
<title>Graphical Class Hierarchy</title>
<polygon fill="white" stroke="transparent" points="-4,4 -4,-176 311,-176 311,4 -4,4"/>
<!-- Node0 -->
<g id="node1" class="node">
<title>Node0</title>
<g id="a_node1"><a xlink:href="classbustub_1_1ResultWriter.html" target="_top" xlink:title=" ">
<polygon fill="white" stroke="black" points="0,-76.5 0,-95.5 116,-95.5 116,-76.5 0,-76.5"/>
<text text-anchor="middle" x="58" y="-83.5" font-family="Helvetica,sans-Serif" font-size="10.00">bustub::ResultWriter</text>
</a>
</g>
</g>
<!-- Node1 -->
<g id="node2" class="node">
<title>Node1</title>
<g id="a_node2"><a xlink:href="classbustub_1_1FortTableWriter.html" target="_top" xlink:title=" ">
<polygon fill="white" stroke="black" points="164.5,-152.5 164.5,-171.5 294.5,-171.5 294.5,-152.5 164.5,-152.5"/>
<text text-anchor="middle" x="229.5" y="-159.5" font-family="Helvetica,sans-Serif" font-size="10.00">bustub::FortTableWriter</text>
</a>
</g>
</g>
<!-- Node0&#45;&gt;Node1 -->
<g id="edge1" class="edge">
<title>Node0&#45;&gt;Node1</title>
<path fill="none" stroke="midnightblue" d="M80.01,-101.48C98.23,-114.25 125.73,-132 152,-143 160.96,-146.75 170.84,-149.89 180.43,-152.45"/>
<polygon fill="midnightblue" stroke="midnightblue" points="82.03,-98.62 71.86,-95.66 77.97,-104.32 82.03,-98.62"/>
</g>
<!-- Node2 -->
<g id="node3" class="node">
<title>Node2</title>
<g id="a_node3"><a xlink:href="classbustub_1_1HtmlWriter.html" target="_top" xlink:title=" ">
<polygon fill="white" stroke="black" points="174.5,-114.5 174.5,-133.5 284.5,-133.5 284.5,-114.5 174.5,-114.5"/>
<text text-anchor="middle" x="229.5" y="-121.5" font-family="Helvetica,sans-Serif" font-size="10.00">bustub::HtmlWriter</text>
</a>
</g>
</g>
<!-- Node0&#45;&gt;Node2 -->
<g id="edge2" class="edge">
<title>Node0&#45;&gt;Node2</title>
<path fill="none" stroke="midnightblue" d="M111.74,-97.82C135.64,-103.18 163.52,-109.43 186.04,-114.48"/>
<polygon fill="midnightblue" stroke="midnightblue" points="112.3,-94.36 101.77,-95.59 110.76,-101.19 112.3,-94.36"/>
</g>
<!-- Node3 -->
<g id="node4" class="node">
<title>Node3</title>
<g id="a_node4"><a xlink:href="classbustub_1_1NoopWriter.html" target="_top" xlink:title=" ">
<polygon fill="white" stroke="black" points="174,-76.5 174,-95.5 285,-95.5 285,-76.5 174,-76.5"/>
<text text-anchor="middle" x="229.5" y="-83.5" font-family="Helvetica,sans-Serif" font-size="10.00">bustub::NoopWriter</text>
</a>
</g>
</g>
<!-- Node0&#45;&gt;Node3 -->
<g id="edge3" class="edge">
<title>Node0&#45;&gt;Node3</title>
<path fill="none" stroke="midnightblue" d="M126.54,-86C142.22,-86 158.71,-86 173.75,-86"/>
<polygon fill="midnightblue" stroke="midnightblue" points="126.39,-82.5 116.38,-86 126.38,-89.5 126.39,-82.5"/>
</g>
<!-- Node4 -->
<g id="node5" class="node">
<title>Node4</title>
<g id="a_node5"><a xlink:href="classbustub_1_1SimpleStreamWriter.html" target="_top" xlink:title=" ">
<polygon fill="white" stroke="black" points="152,-38.5 152,-57.5 307,-57.5 307,-38.5 152,-38.5"/>
<text text-anchor="middle" x="229.5" y="-45.5" font-family="Helvetica,sans-Serif" font-size="10.00">bustub::SimpleStreamWriter</text>
</a>
</g>
</g>
<!-- Node0&#45;&gt;Node4 -->
<g id="edge4" class="edge">
<title>Node0&#45;&gt;Node4</title>
<path fill="none" stroke="midnightblue" d="M111.74,-74.18C135.64,-68.82 163.52,-62.57 186.04,-57.52"/>
<polygon fill="midnightblue" stroke="midnightblue" points="110.76,-70.81 101.77,-76.41 112.3,-77.64 110.76,-70.81"/>
</g>
<!-- Node5 -->
<g id="node6" class="node">
<title>Node5</title>
<g id="a_node6"><a xlink:href="classbustub_1_1StringVectorWriter.html" target="_top" xlink:title=" ">
<polygon fill="white" stroke="black" points="157,-0.5 157,-19.5 302,-19.5 302,-0.5 157,-0.5"/>
<text text-anchor="middle" x="229.5" y="-7.5" font-family="Helvetica,sans-Serif" font-size="10.00">bustub::StringVectorWriter</text>
</a>
</g>
</g>
<!-- Node0&#45;&gt;Node5 -->
<g id="edge5" class="edge">
<title>Node0&#45;&gt;Node5</title>
<path fill="none" stroke="midnightblue" d="M80.01,-70.52C98.23,-57.75 125.73,-40 152,-29 160.96,-25.25 170.84,-22.11 180.43,-19.55"/>
<polygon fill="midnightblue" stroke="midnightblue" points="77.97,-67.68 71.86,-76.34 82.03,-73.38 77.97,-67.68"/>
</g>
</g>
</svg>
