<?xml version="1.0" encoding="UTF-8" standalone="no"?>
<!DOCTYPE svg PUBLIC "-//W3C//DTD SVG 1.1//EN"
 "http://www.w3.org/Graphics/SVG/1.1/DTD/svg11.dtd">
<!-- Generated by graphviz version 2.43.0 (0)
 -->
<!-- Title: Graphical Class Hierarchy Pages: 1 -->
<svg width="474pt" height="66pt"
 viewBox="0.00 0.00 474.00 66.00" xmlns="http://www.w3.org/2000/svg" xmlns:xlink="http://www.w3.org/1999/xlink">
<g id="graph0" class="graph" transform="scale(1 1) rotate(0) translate(4 62)">
<title>Graphical Class Hierarchy</title>
<polygon fill="white" stroke="transparent" points="-4,4 -4,-62 470,-62 470,4 -4,4"/>
<!-- Node210 -->
<g id="node1" class="node">
<title>Node210</title>
<g id="a_node1"><a xlink:title=" ">
<polygon fill="white" stroke="#bfbfbf" points="0,-19.5 0,-38.5 104,-38.5 104,-19.5 0,-19.5"/>
<text text-anchor="middle" x="52" y="-26.5" font-family="Helvetica,sans-Serif" font-size="10.00">std::runtime_error</text>
</a>
</g>
</g>
<!-- Node0 -->
<g id="node2" class="node">
<title>Node0</title>
<g id="a_node2"><a xlink:href="classbustub_1_1Exception.html" target="_top" xlink:title=" ">
<polygon fill="white" stroke="black" points="140,-19.5 140,-38.5 244,-38.5 244,-19.5 140,-19.5"/>
<text text-anchor="middle" x="192" y="-26.5" font-family="Helvetica,sans-Serif" font-size="10.00">bustub::Exception</text>
</a>
</g>
</g>
<!-- Node210&#45;&gt;Node0 -->
<g id="edge1" class="edge">
<title>Node210&#45;&gt;Node0</title>
<path fill="none" stroke="midnightblue" d="M114.5,-29C122.87,-29 131.4,-29 139.57,-29"/>
<polygon fill="midnightblue" stroke="midnightblue" points="114.39,-25.5 104.39,-29 114.39,-32.5 114.39,-25.5"/>
</g>
<!-- Node1 -->
<g id="node3" class="node">
<title>Node1</title>
<g id="a_node3"><a xlink:href="classbustub_1_1ExecutionException.html" target="_top" xlink:title=" ">
<polygon fill="white" stroke="black" points="297.5,-38.5 297.5,-57.5 448.5,-57.5 448.5,-38.5 297.5,-38.5"/>
<text text-anchor="middle" x="373" y="-45.5" font-family="Helvetica,sans-Serif" font-size="10.00">bustub::ExecutionException</text>
</a>
</g>
</g>
<!-- Node0&#45;&gt;Node1 -->
<g id="edge2" class="edge">
<title>Node0&#45;&gt;Node1</title>
<path fill="none" stroke="midnightblue" d="M254.61,-35.54C268.37,-37 283.12,-38.57 297.35,-40.08"/>
<polygon fill="midnightblue" stroke="midnightblue" points="254.61,-32.02 244.29,-34.44 253.87,-38.98 254.61,-32.02"/>
</g>
<!-- Node2 -->
<g id="node4" class="node">
<title>Node2</title>
<g id="a_node4"><a xlink:href="classbustub_1_1NotImplementedException.html" target="_top" xlink:title=" ">
<polygon fill="white" stroke="black" points="280,-0.5 280,-19.5 466,-19.5 466,-0.5 280,-0.5"/>
<text text-anchor="middle" x="373" y="-7.5" font-family="Helvetica,sans-Serif" font-size="10.00">bustub::NotImplementedException</text>
</a>
</g>
</g>
<!-- Node0&#45;&gt;Node2 -->
<g id="edge3" class="edge">
<title>Node0&#45;&gt;Node2</title>
<path fill="none" stroke="midnightblue" d="M254.35,-22.49C263.45,-21.52 272.97,-20.51 282.5,-19.5"/>
<polygon fill="midnightblue" stroke="midnightblue" points="253.87,-19.02 244.29,-23.56 254.61,-25.98 253.87,-19.02"/>
</g>
</g>
</svg>
