<?xml version="1.0" encoding="UTF-8" standalone="no"?>
<!DOCTYPE svg PUBLIC "-//W3C//DTD SVG 1.1//EN"
 "http://www.w3.org/Graphics/SVG/1.1/DTD/svg11.dtd">
<!-- Generated by graphviz version 2.43.0 (0)
 -->
<!-- Title: Graphical Class Hierarchy Pages: 1 -->
<svg width="337pt" height="2230pt"
 viewBox="0.00 0.00 337.00 2230.00" xmlns="http://www.w3.org/2000/svg" xmlns:xlink="http://www.w3.org/1999/xlink">
<g id="graph0" class="graph" transform="scale(1 1) rotate(0) translate(4 2226)">
<title>Graphical Class Hierarchy</title>
<polygon fill="white" stroke="transparent" points="-4,4 -4,-2226 333,-2226 333,4 -4,4"/>
<!-- Node112 -->
<g id="node1" class="node">
<title>Node112</title>
<g id="a_node1"><a xlink:title=" ">
<polygon fill="white" stroke="#bfbfbf" points="0,-1156.5 0,-1175.5 86,-1175.5 86,-1156.5 0,-1156.5"/>
<text text-anchor="middle" x="43" y="-1163.5" font-family="Helvetica,sans-Serif" font-size="10.00">fmt::formatter</text>
</a>
</g>
</g>
<!-- Node0 -->
<g id="node2" class="node">
<title>Node0</title>
<g id="a_node2"><a xlink:href="structfmt_1_1formatter_3_01T_00_01std_1_1enable__if__t_3_01std_1_1is__base__of_3_01bustub_1_1Abs886a78890360091a997245056715c8d5.html" target="_top" xlink:title=" ">
<polygon fill="white" stroke="black" points="158.5,-2158.5 158.5,-2221.5 292.5,-2221.5 292.5,-2158.5 158.5,-2158.5"/>
<text text-anchor="start" x="166.5" y="-2209.5" font-family="Helvetica,sans-Serif" font-size="10.00">fmt::formatter&lt; T,</text>
<text text-anchor="start" x="166.5" y="-2198.5" font-family="Helvetica,sans-Serif" font-size="10.00"> std::enable_if_t&lt; std</text>
<text text-anchor="start" x="166.5" y="-2187.5" font-family="Helvetica,sans-Serif" font-size="10.00">::is_base_of&lt; bustub::</text>
<text text-anchor="start" x="166.5" y="-2176.5" font-family="Helvetica,sans-Serif" font-size="10.00">AbstractExpression, T &gt;</text>
<text text-anchor="middle" x="225.5" y="-2165.5" font-family="Helvetica,sans-Serif" font-size="10.00">::value, char &gt; &gt;</text>
</a>
</g>
</g>
<!-- Node112&#45;&gt;Node0 -->
<g id="edge1" class="edge">
<title>Node112&#45;&gt;Node0</title>
<path fill="none" stroke="midnightblue" d="M44.34,-1186.07C46.73,-1318.91 62.81,-2068.63 122,-2149 131.03,-2161.27 144.34,-2169.87 158.4,-2175.9"/>
<polygon fill="midnightblue" stroke="midnightblue" points="47.83,-1185.7 44.16,-1175.76 40.83,-1185.82 47.83,-1185.7"/>
</g>
<!-- Node114 -->
<g id="node3" class="node">
<title>Node114</title>
<g id="a_node3"><a xlink:href="structfmt_1_1formatter_3_01T_00_01std_1_1enable__if__t_3_01std_1_1is__base__of_3_01bustub_1_1Abs046c72eb56125bbd3b742433f5d2c095.html" target="_top" xlink:title=" ">
<polygon fill="white" stroke="black" points="159,-2076.5 159,-2139.5 292,-2139.5 292,-2076.5 159,-2076.5"/>
<text text-anchor="start" x="167" y="-2127.5" font-family="Helvetica,sans-Serif" font-size="10.00">fmt::formatter&lt; T,</text>
<text text-anchor="start" x="167" y="-2116.5" font-family="Helvetica,sans-Serif" font-size="10.00"> std::enable_if_t&lt; std</text>
<text text-anchor="start" x="167" y="-2105.5" font-family="Helvetica,sans-Serif" font-size="10.00">::is_base_of&lt; bustub::</text>
<text text-anchor="start" x="167" y="-2094.5" font-family="Helvetica,sans-Serif" font-size="10.00">AbstractPlanNode, T &gt;::</text>
<text text-anchor="middle" x="225.5" y="-2083.5" font-family="Helvetica,sans-Serif" font-size="10.00">value, char &gt; &gt;</text>
</a>
</g>
</g>
<!-- Node112&#45;&gt;Node114 -->
<g id="edge2" class="edge">
<title>Node112&#45;&gt;Node114</title>
<path fill="none" stroke="midnightblue" d="M44.48,-1185.54C47.68,-1310.42 67.62,-1993.71 122,-2067 131.19,-2079.39 144.74,-2088.04 158.99,-2094.08"/>
<polygon fill="midnightblue" stroke="midnightblue" points="47.98,-1185.43 44.23,-1175.52 40.98,-1185.6 47.98,-1185.43"/>
</g>
<!-- Node115 -->
<g id="node4" class="node">
<title>Node115</title>
<g id="a_node4"><a xlink:href="structfmt_1_1formatter_3_01T_00_01std_1_1enable__if__t_3_01std_1_1is__base__of_3_01bustub_1_1Bouc1d62e550ac0324b4b9187256464c9eb.html" target="_top" xlink:title=" ">
<polygon fill="white" stroke="black" points="145.5,-1994.5 145.5,-2057.5 305.5,-2057.5 305.5,-1994.5 145.5,-1994.5"/>
<text text-anchor="start" x="153.5" y="-2045.5" font-family="Helvetica,sans-Serif" font-size="10.00">fmt::formatter&lt; T,</text>
<text text-anchor="start" x="153.5" y="-2034.5" font-family="Helvetica,sans-Serif" font-size="10.00"> std::enable_if_t&lt; std</text>
<text text-anchor="start" x="153.5" y="-2023.5" font-family="Helvetica,sans-Serif" font-size="10.00">::is_base_of&lt; bustub::</text>
<text text-anchor="start" x="153.5" y="-2012.5" font-family="Helvetica,sans-Serif" font-size="10.00">BoundExpression, T &gt;::value,</text>
<text text-anchor="middle" x="225.5" y="-2001.5" font-family="Helvetica,sans-Serif" font-size="10.00"> char &gt; &gt;</text>
</a>
</g>
</g>
<!-- Node112&#45;&gt;Node115 -->
<g id="edge3" class="edge">
<title>Node112&#45;&gt;Node115</title>
<path fill="none" stroke="midnightblue" d="M44.67,-1185.93C48.82,-1304.96 72.56,-1918.95 122,-1985 128.2,-1993.29 136.35,-1999.9 145.34,-2005.18"/>
<polygon fill="midnightblue" stroke="midnightblue" points="48.16,-1185.6 44.32,-1175.73 41.16,-1185.84 48.16,-1185.6"/>
</g>
<!-- Node116 -->
<g id="node5" class="node">
<title>Node116</title>
<g id="a_node5"><a xlink:href="structfmt_1_1formatter_3_01T_00_01std_1_1enable__if__t_3_01std_1_1is__base__of_3_01bustub_1_1Bou96e3b8bc84aea76a8676fc5a22d4b321.html" target="_top" xlink:title=" ">
<polygon fill="white" stroke="black" points="152.5,-1912.5 152.5,-1975.5 298.5,-1975.5 298.5,-1912.5 152.5,-1912.5"/>
<text text-anchor="start" x="160.5" y="-1963.5" font-family="Helvetica,sans-Serif" font-size="10.00">fmt::formatter&lt; T,</text>
<text text-anchor="start" x="160.5" y="-1952.5" font-family="Helvetica,sans-Serif" font-size="10.00"> std::enable_if_t&lt; std</text>
<text text-anchor="start" x="160.5" y="-1941.5" font-family="Helvetica,sans-Serif" font-size="10.00">::is_base_of&lt; bustub::</text>
<text text-anchor="start" x="160.5" y="-1930.5" font-family="Helvetica,sans-Serif" font-size="10.00">BoundOrderBy, T &gt;::value,</text>
<text text-anchor="middle" x="225.5" y="-1919.5" font-family="Helvetica,sans-Serif" font-size="10.00"> char &gt; &gt;</text>
</a>
</g>
</g>
<!-- Node112&#45;&gt;Node116 -->
<g id="edge4" class="edge">
<title>Node112&#45;&gt;Node116</title>
<path fill="none" stroke="midnightblue" d="M44.88,-1185.63C50,-1296.76 77.38,-1844.04 122,-1903 129.81,-1913.32 140.62,-1921.04 152.32,-1926.83"/>
<polygon fill="midnightblue" stroke="midnightblue" points="48.37,-1185.34 44.42,-1175.51 41.38,-1185.66 48.37,-1185.34"/>
</g>
<!-- Node117 -->
<g id="node6" class="node">
<title>Node117</title>
<g id="a_node6"><a xlink:href="structfmt_1_1formatter_3_01T_00_01std_1_1enable__if__t_3_01std_1_1is__base__of_3_01bustub_1_1Bou5eb13bcd725637dae725ce69bbd54076.html" target="_top" xlink:title=" ">
<polygon fill="white" stroke="black" points="151,-1830.5 151,-1893.5 300,-1893.5 300,-1830.5 151,-1830.5"/>
<text text-anchor="start" x="159" y="-1881.5" font-family="Helvetica,sans-Serif" font-size="10.00">fmt::formatter&lt; T,</text>
<text text-anchor="start" x="159" y="-1870.5" font-family="Helvetica,sans-Serif" font-size="10.00"> std::enable_if_t&lt; std</text>
<text text-anchor="start" x="159" y="-1859.5" font-family="Helvetica,sans-Serif" font-size="10.00">::is_base_of&lt; bustub::</text>
<text text-anchor="start" x="159" y="-1848.5" font-family="Helvetica,sans-Serif" font-size="10.00">BoundTableRef, T &gt;::value,</text>
<text text-anchor="middle" x="225.5" y="-1837.5" font-family="Helvetica,sans-Serif" font-size="10.00"> char &gt; &gt;</text>
</a>
</g>
</g>
<!-- Node112&#45;&gt;Node117 -->
<g id="edge5" class="edge">
<title>Node112&#45;&gt;Node117</title>
<path fill="none" stroke="midnightblue" d="M43.72,-1185.95C42.75,-1284.43 43.05,-1718.09 122,-1821 129.52,-1830.81 139.76,-1838.28 150.87,-1843.96"/>
<polygon fill="midnightblue" stroke="midnightblue" points="47.22,-1185.91 43.84,-1175.87 40.23,-1185.83 47.22,-1185.91"/>
</g>
<!-- Node118 -->
<g id="node7" class="node">
<title>Node118</title>
<g id="a_node7"><a xlink:href="structfmt_1_1formatter_3_01T_00_01std_1_1enable__if__t_3_01std_1_1is__base__of_3_01bustub_1_1Colfb0dee29a3593d1af193ccde9afa2ee5.html" target="_top" xlink:title=" ">
<polygon fill="white" stroke="black" points="145.5,-1759 145.5,-1811 305.5,-1811 305.5,-1759 145.5,-1759"/>
<text text-anchor="start" x="153.5" y="-1799" font-family="Helvetica,sans-Serif" font-size="10.00">fmt::formatter&lt; T,</text>
<text text-anchor="start" x="153.5" y="-1788" font-family="Helvetica,sans-Serif" font-size="10.00"> std::enable_if_t&lt; std</text>
<text text-anchor="start" x="153.5" y="-1777" font-family="Helvetica,sans-Serif" font-size="10.00">::is_base_of&lt; bustub::</text>
<text text-anchor="middle" x="225.5" y="-1766" font-family="Helvetica,sans-Serif" font-size="10.00">Column, T &gt;::value, char &gt; &gt;</text>
</a>
</g>
</g>
<!-- Node112&#45;&gt;Node118 -->
<g id="edge6" class="edge">
<title>Node112&#45;&gt;Node118</title>
<path fill="none" stroke="midnightblue" d="M43.94,-1185.85C44.07,-1277.73 49.03,-1661.1 122,-1750 128.32,-1757.7 136.42,-1763.72 145.29,-1768.41"/>
<polygon fill="midnightblue" stroke="midnightblue" points="47.44,-1185.71 43.95,-1175.7 40.44,-1185.7 47.44,-1185.71"/>
</g>
<!-- Node119 -->
<g id="node8" class="node">
<title>Node119</title>
<g id="a_node8"><a xlink:href="structfmt_1_1formatter_3_01T_00_01std_1_1enable__if__t_3_01std_1_1is__base__of_3_01bustub_1_1Sch18c522a2af692b99e6540a63922f7a72.html" target="_top" xlink:title=" ">
<polygon fill="white" stroke="black" points="145,-1688 145,-1740 306,-1740 306,-1688 145,-1688"/>
<text text-anchor="start" x="153" y="-1728" font-family="Helvetica,sans-Serif" font-size="10.00">fmt::formatter&lt; T,</text>
<text text-anchor="start" x="153" y="-1717" font-family="Helvetica,sans-Serif" font-size="10.00"> std::enable_if_t&lt; std</text>
<text text-anchor="start" x="153" y="-1706" font-family="Helvetica,sans-Serif" font-size="10.00">::is_base_of&lt; bustub::</text>
<text text-anchor="middle" x="225.5" y="-1695" font-family="Helvetica,sans-Serif" font-size="10.00">Schema, T &gt;::value, char &gt; &gt;</text>
</a>
</g>
</g>
<!-- Node112&#45;&gt;Node119 -->
<g id="edge7" class="edge">
<title>Node112&#45;&gt;Node119</title>
<path fill="none" stroke="midnightblue" d="M44.35,-1185.81C46.23,-1270.58 57.64,-1602.02 122,-1679 128.27,-1686.5 136.22,-1692.4 144.92,-1697.04"/>
<polygon fill="midnightblue" stroke="midnightblue" points="47.85,-1185.66 44.15,-1175.73 40.85,-1185.8 47.85,-1185.66"/>
</g>
<!-- Node120 -->
<g id="node9" class="node">
<title>Node120</title>
<g id="a_node9"><a xlink:href="structfmt_1_1formatter_3_01T_00_01std_1_1enable__if__t_3_01std_1_1is__base__of_3_01bustub_1_1Val815ddac0f1a6f7494d1c19cf850862ca.html" target="_top" xlink:title=" ">
<polygon fill="white" stroke="black" points="151,-1617 151,-1669 300,-1669 300,-1617 151,-1617"/>
<text text-anchor="start" x="159" y="-1657" font-family="Helvetica,sans-Serif" font-size="10.00">fmt::formatter&lt; T,</text>
<text text-anchor="start" x="159" y="-1646" font-family="Helvetica,sans-Serif" font-size="10.00"> std::enable_if_t&lt; std</text>
<text text-anchor="start" x="159" y="-1635" font-family="Helvetica,sans-Serif" font-size="10.00">::is_base_of&lt; bustub::</text>
<text text-anchor="middle" x="225.5" y="-1624" font-family="Helvetica,sans-Serif" font-size="10.00">Value, T &gt;::value, char &gt; &gt;</text>
</a>
</g>
</g>
<!-- Node112&#45;&gt;Node120 -->
<g id="edge8" class="edge">
<title>Node112&#45;&gt;Node120</title>
<path fill="none" stroke="midnightblue" d="M44.9,-1186.2C48.76,-1263.97 66.32,-1542.98 122,-1608 129.77,-1617.07 139.99,-1623.79 150.97,-1628.78"/>
<polygon fill="midnightblue" stroke="midnightblue" points="48.38,-1185.69 44.41,-1175.87 41.39,-1186.02 48.38,-1185.69"/>
</g>
<!-- Node121 -->
<g id="node10" class="node">
<title>Node121</title>
<g id="a_node10"><a xlink:href="structfmt_1_1formatter_3_01bustub_1_1AggregationType_01_4.html" target="_top" xlink:title=" ">
<polygon fill="white" stroke="black" points="160,-1568 160,-1598 291,-1598 291,-1568 160,-1568"/>
<text text-anchor="start" x="168" y="-1586" font-family="Helvetica,sans-Serif" font-size="10.00">fmt::formatter&lt; bustub</text>
<text text-anchor="middle" x="225.5" y="-1575" font-family="Helvetica,sans-Serif" font-size="10.00">::AggregationType &gt;</text>
</a>
</g>
</g>
<!-- Node112&#45;&gt;Node121 -->
<g id="edge9" class="edge">
<title>Node112&#45;&gt;Node121</title>
<path fill="none" stroke="midnightblue" d="M45.17,-1185.93C49.82,-1258.12 69.34,-1504.51 122,-1559 132.1,-1569.45 145.81,-1575.72 159.92,-1579.4"/>
<polygon fill="midnightblue" stroke="midnightblue" points="48.64,-1185.32 44.53,-1175.56 41.65,-1185.75 48.64,-1185.32"/>
</g>
<!-- Node122 -->
<g id="node11" class="node">
<title>Node122</title>
<g id="a_node11"><a xlink:href="structfmt_1_1formatter_3_01bustub_1_1ArithmeticType_01_4.html" target="_top" xlink:title=" ">
<polygon fill="white" stroke="black" points="160,-1519 160,-1549 291,-1549 291,-1519 160,-1519"/>
<text text-anchor="start" x="168" y="-1537" font-family="Helvetica,sans-Serif" font-size="10.00">fmt::formatter&lt; bustub</text>
<text text-anchor="middle" x="225.5" y="-1526" font-family="Helvetica,sans-Serif" font-size="10.00">::ArithmeticType &gt;</text>
</a>
</g>
</g>
<!-- Node112&#45;&gt;Node122 -->
<g id="edge10" class="edge">
<title>Node112&#45;&gt;Node122</title>
<path fill="none" stroke="midnightblue" d="M45.78,-1185.97C52.11,-1252.23 75.6,-1463.27 122,-1510 132.17,-1520.25 145.83,-1526.45 159.85,-1530.14"/>
<polygon fill="midnightblue" stroke="midnightblue" points="49.24,-1185.3 44.83,-1175.67 42.27,-1185.95 49.24,-1185.3"/>
</g>
<!-- Node123 -->
<g id="node12" class="node">
<title>Node123</title>
<g id="a_node12"><a xlink:href="structfmt_1_1formatter_3_01bustub_1_1ComparisonType_01_4.html" target="_top" xlink:title=" ">
<polygon fill="white" stroke="black" points="160,-1470 160,-1500 291,-1500 291,-1470 160,-1470"/>
<text text-anchor="start" x="168" y="-1488" font-family="Helvetica,sans-Serif" font-size="10.00">fmt::formatter&lt; bustub</text>
<text text-anchor="middle" x="225.5" y="-1477" font-family="Helvetica,sans-Serif" font-size="10.00">::ComparisonType &gt;</text>
</a>
</g>
</g>
<!-- Node112&#45;&gt;Node123 -->
<g id="edge11" class="edge">
<title>Node112&#45;&gt;Node123</title>
<path fill="none" stroke="midnightblue" d="M46.57,-1185.81C54.71,-1245.49 81.76,-1421.89 122,-1461 132.29,-1471 145.9,-1477.12 159.84,-1480.81"/>
<polygon fill="midnightblue" stroke="midnightblue" points="50.02,-1185.24 45.23,-1175.79 43.09,-1186.17 50.02,-1185.24"/>
</g>
<!-- Node124 -->
<g id="node13" class="node">
<title>Node124</title>
<g id="a_node13"><a xlink:href="structfmt_1_1formatter_3_01bustub_1_1ExpressionType_01_4.html" target="_top" xlink:title=" ">
<polygon fill="white" stroke="black" points="160,-1421 160,-1451 291,-1451 291,-1421 160,-1421"/>
<text text-anchor="start" x="168" y="-1439" font-family="Helvetica,sans-Serif" font-size="10.00">fmt::formatter&lt; bustub</text>
<text text-anchor="middle" x="225.5" y="-1428" font-family="Helvetica,sans-Serif" font-size="10.00">::ExpressionType &gt;</text>
</a>
</g>
</g>
<!-- Node112&#45;&gt;Node124 -->
<g id="edge12" class="edge">
<title>Node112&#45;&gt;Node124</title>
<path fill="none" stroke="midnightblue" d="M44.08,-1185.77C45.38,-1232.49 55.47,-1350.41 122,-1412 132.46,-1421.68 146.06,-1427.7 159.92,-1431.37"/>
<polygon fill="midnightblue" stroke="midnightblue" points="47.57,-1185.44 43.9,-1175.5 40.57,-1185.56 47.57,-1185.44"/>
</g>
<!-- Node125 -->
<g id="node14" class="node">
<title>Node125</title>
<g id="a_node14"><a xlink:href="structfmt_1_1formatter_3_01bustub_1_1IndexType_01_4.html" target="_top" xlink:title=" ">
<polygon fill="white" stroke="black" points="160,-1372 160,-1402 291,-1402 291,-1372 160,-1372"/>
<text text-anchor="start" x="168" y="-1390" font-family="Helvetica,sans-Serif" font-size="10.00">fmt::formatter&lt; bustub</text>
<text text-anchor="middle" x="225.5" y="-1379" font-family="Helvetica,sans-Serif" font-size="10.00">::IndexType &gt;</text>
</a>
</g>
</g>
<!-- Node112&#45;&gt;Node125 -->
<g id="edge13" class="edge">
<title>Node112&#45;&gt;Node125</title>
<path fill="none" stroke="midnightblue" d="M45.84,-1185.57C50.67,-1225.35 67.38,-1315.88 122,-1363 132.65,-1372.19 146.17,-1378.03 159.87,-1381.69"/>
<polygon fill="midnightblue" stroke="midnightblue" points="49.32,-1185.13 44.75,-1175.56 42.36,-1185.88 49.32,-1185.13"/>
</g>
<!-- Node126 -->
<g id="node15" class="node">
<title>Node126</title>
<g id="a_node15"><a xlink:href="structfmt_1_1formatter_3_01bustub_1_1IsolationLevel_01_4.html" target="_top" xlink:title=" ">
<polygon fill="white" stroke="black" points="160,-1323 160,-1353 291,-1353 291,-1323 160,-1323"/>
<text text-anchor="start" x="168" y="-1341" font-family="Helvetica,sans-Serif" font-size="10.00">fmt::formatter&lt; bustub</text>
<text text-anchor="middle" x="225.5" y="-1330" font-family="Helvetica,sans-Serif" font-size="10.00">::IsolationLevel &gt;</text>
</a>
</g>
</g>
<!-- Node112&#45;&gt;Node126 -->
<g id="edge14" class="edge">
<title>Node112&#45;&gt;Node126</title>
<path fill="none" stroke="midnightblue" d="M48.71,-1185.7C57.43,-1217.77 79.24,-1280.96 122,-1314 132.92,-1322.44 146.31,-1327.99 159.77,-1331.61"/>
<polygon fill="midnightblue" stroke="midnightblue" points="52.03,-1184.58 46.16,-1175.76 45.25,-1186.32 52.03,-1184.58"/>
</g>
<!-- Node127 -->
<g id="node16" class="node">
<title>Node127</title>
<g id="a_node16"><a xlink:href="structfmt_1_1formatter_3_01bustub_1_1JoinType_01_4.html" target="_top" xlink:title=" ">
<polygon fill="white" stroke="black" points="160,-1274 160,-1304 291,-1304 291,-1274 160,-1274"/>
<text text-anchor="start" x="168" y="-1292" font-family="Helvetica,sans-Serif" font-size="10.00">fmt::formatter&lt; bustub</text>
<text text-anchor="middle" x="225.5" y="-1281" font-family="Helvetica,sans-Serif" font-size="10.00">::JoinType &gt;</text>
</a>
</g>
</g>
<!-- Node112&#45;&gt;Node127 -->
<g id="edge15" class="edge">
<title>Node112&#45;&gt;Node127</title>
<path fill="none" stroke="midnightblue" d="M53.51,-1184.61C66.06,-1207.22 90.32,-1244.84 122,-1265 133.33,-1272.21 146.61,-1277.26 159.77,-1280.79"/>
<polygon fill="midnightblue" stroke="midnightblue" points="56.53,-1182.83 48.72,-1175.66 50.36,-1186.13 56.53,-1182.83"/>
</g>
<!-- Node128 -->
<g id="node17" class="node">
<title>Node128</title>
<g id="a_node17"><a xlink:href="structfmt_1_1formatter_3_01bustub_1_1LockManager_1_1LockMode_01_4.html" target="_top" xlink:title=" ">
<polygon fill="white" stroke="black" points="148,-1225 148,-1255 303,-1255 303,-1225 148,-1225"/>
<text text-anchor="start" x="156" y="-1243" font-family="Helvetica,sans-Serif" font-size="10.00">fmt::formatter&lt; bustub</text>
<text text-anchor="middle" x="225.5" y="-1232" font-family="Helvetica,sans-Serif" font-size="10.00">::LockManager::LockMode &gt;</text>
</a>
</g>
</g>
<!-- Node112&#45;&gt;Node128 -->
<g id="edge16" class="edge">
<title>Node112&#45;&gt;Node128</title>
<path fill="none" stroke="midnightblue" d="M64.08,-1181.6C79.23,-1192.67 100.95,-1207.1 122,-1216 130.16,-1219.45 138.91,-1222.46 147.73,-1225.06"/>
<polygon fill="midnightblue" stroke="midnightblue" points="66.07,-1178.72 55.97,-1175.53 61.88,-1184.32 66.07,-1178.72"/>
</g>
<!-- Node129 -->
<g id="node18" class="node">
<title>Node129</title>
<g id="a_node18"><a xlink:href="structfmt_1_1formatter_3_01bustub_1_1LogicType_01_4.html" target="_top" xlink:title=" ">
<polygon fill="white" stroke="black" points="160,-1176 160,-1206 291,-1206 291,-1176 160,-1176"/>
<text text-anchor="start" x="168" y="-1194" font-family="Helvetica,sans-Serif" font-size="10.00">fmt::formatter&lt; bustub</text>
<text text-anchor="middle" x="225.5" y="-1183" font-family="Helvetica,sans-Serif" font-size="10.00">::LogicType &gt;</text>
</a>
</g>
</g>
<!-- Node112&#45;&gt;Node129 -->
<g id="edge17" class="edge">
<title>Node112&#45;&gt;Node129</title>
<path fill="none" stroke="midnightblue" d="M96.39,-1173.26C116.21,-1176 139.01,-1179.16 159.83,-1182.04"/>
<polygon fill="midnightblue" stroke="midnightblue" points="96.7,-1169.77 86.32,-1171.86 95.74,-1176.7 96.7,-1169.77"/>
</g>
<!-- Node130 -->
<g id="node19" class="node">
<title>Node130</title>
<g id="a_node19"><a xlink:href="structfmt_1_1formatter_3_01bustub_1_1OrderByType_01_4.html" target="_top" xlink:title=" ">
<polygon fill="white" stroke="black" points="160,-1127 160,-1157 291,-1157 291,-1127 160,-1127"/>
<text text-anchor="start" x="168" y="-1145" font-family="Helvetica,sans-Serif" font-size="10.00">fmt::formatter&lt; bustub</text>
<text text-anchor="middle" x="225.5" y="-1134" font-family="Helvetica,sans-Serif" font-size="10.00">::OrderByType &gt;</text>
</a>
</g>
</g>
<!-- Node112&#45;&gt;Node130 -->
<g id="edge18" class="edge">
<title>Node112&#45;&gt;Node130</title>
<path fill="none" stroke="midnightblue" d="M96.39,-1159.03C116.21,-1156.4 139.01,-1153.37 159.83,-1150.6"/>
<polygon fill="midnightblue" stroke="midnightblue" points="95.77,-1155.59 86.32,-1160.37 96.69,-1162.52 95.77,-1155.59"/>
</g>
<!-- Node131 -->
<g id="node20" class="node">
<title>Node131</title>
<g id="a_node20"><a xlink:href="structfmt_1_1formatter_3_01bustub_1_1StatementType_01_4.html" target="_top" xlink:title=" ">
<polygon fill="white" stroke="black" points="160,-1078 160,-1108 291,-1108 291,-1078 160,-1078"/>
<text text-anchor="start" x="168" y="-1096" font-family="Helvetica,sans-Serif" font-size="10.00">fmt::formatter&lt; bustub</text>
<text text-anchor="middle" x="225.5" y="-1085" font-family="Helvetica,sans-Serif" font-size="10.00">::StatementType &gt;</text>
</a>
</g>
</g>
<!-- Node112&#45;&gt;Node131 -->
<g id="edge19" class="edge">
<title>Node112&#45;&gt;Node131</title>
<path fill="none" stroke="midnightblue" d="M65.01,-1150.56C80.18,-1140.05 101.52,-1126.55 122,-1118 133.92,-1113.03 147.04,-1108.89 159.81,-1105.52"/>
<polygon fill="midnightblue" stroke="midnightblue" points="62.98,-1147.7 56.84,-1156.34 67.03,-1153.42 62.98,-1147.7"/>
</g>
<!-- Node132 -->
<g id="node21" class="node">
<title>Node132</title>
<g id="a_node21"><a xlink:href="structfmt_1_1formatter_3_01bustub_1_1StringExpressionType_01_4.html" target="_top" xlink:title=" ">
<polygon fill="white" stroke="black" points="156.5,-1029 156.5,-1059 294.5,-1059 294.5,-1029 156.5,-1029"/>
<text text-anchor="start" x="164.5" y="-1047" font-family="Helvetica,sans-Serif" font-size="10.00">fmt::formatter&lt; bustub</text>
<text text-anchor="middle" x="225.5" y="-1036" font-family="Helvetica,sans-Serif" font-size="10.00">::StringExpressionType &gt;</text>
</a>
</g>
</g>
<!-- Node112&#45;&gt;Node132 -->
<g id="edge20" class="edge">
<title>Node112&#45;&gt;Node132</title>
<path fill="none" stroke="midnightblue" d="M53.83,-1147.47C66.57,-1125.33 90.87,-1088.8 122,-1069 132.36,-1062.41 144.31,-1057.56 156.32,-1053.99"/>
<polygon fill="midnightblue" stroke="midnightblue" points="50.75,-1145.82 48.96,-1156.26 56.87,-1149.21 50.75,-1145.82"/>
</g>
<!-- Node133 -->
<g id="node22" class="node">
<title>Node133</title>
<g id="a_node22"><a xlink:href="structfmt_1_1formatter_3_01bustub_1_1TableReferenceType_01_4.html" target="_top" xlink:title=" ">
<polygon fill="white" stroke="black" points="160,-980 160,-1010 291,-1010 291,-980 160,-980"/>
<text text-anchor="start" x="168" y="-998" font-family="Helvetica,sans-Serif" font-size="10.00">fmt::formatter&lt; bustub</text>
<text text-anchor="middle" x="225.5" y="-987" font-family="Helvetica,sans-Serif" font-size="10.00">::TableReferenceType &gt;</text>
</a>
</g>
</g>
<!-- Node112&#45;&gt;Node133 -->
<g id="edge21" class="edge">
<title>Node112&#45;&gt;Node133</title>
<path fill="none" stroke="midnightblue" d="M48.82,-1146.6C57.71,-1115.03 79.75,-1052.77 122,-1020 132.93,-1011.52 146.33,-1005.87 159.78,-1002.12"/>
<polygon fill="midnightblue" stroke="midnightblue" points="45.41,-1145.83 46.22,-1156.39 52.17,-1147.63 45.41,-1145.83"/>
</g>
<!-- Node134 -->
<g id="node23" class="node">
<title>Node134</title>
<g id="a_node23"><a xlink:href="structfmt_1_1formatter_3_01bustub_1_1TransactionState_01_4.html" target="_top" xlink:title=" ">
<polygon fill="white" stroke="black" points="160,-931 160,-961 291,-961 291,-931 160,-931"/>
<text text-anchor="start" x="168" y="-949" font-family="Helvetica,sans-Serif" font-size="10.00">fmt::formatter&lt; bustub</text>
<text text-anchor="middle" x="225.5" y="-938" font-family="Helvetica,sans-Serif" font-size="10.00">::TransactionState &gt;</text>
</a>
</g>
</g>
<!-- Node112&#45;&gt;Node134 -->
<g id="edge22" class="edge">
<title>Node112&#45;&gt;Node134</title>
<path fill="none" stroke="midnightblue" d="M46.01,-1146.12C51.12,-1106.53 68.25,-1017.65 122,-971 132.65,-961.76 146.17,-955.81 159.86,-952.02"/>
<polygon fill="midnightblue" stroke="midnightblue" points="42.53,-1145.77 44.85,-1156.11 49.48,-1146.58 42.53,-1145.77"/>
</g>
<!-- Node135 -->
<g id="node24" class="node">
<title>Node135</title>
<g id="a_node24"><a xlink:href="structfmt_1_1formatter_3_01bustub_1_1WindowFunctionPlanNode_1_1WindowFunction_01_4.html" target="_top" xlink:title=" ">
<polygon fill="white" stroke="black" points="151,-870.5 151,-911.5 300,-911.5 300,-870.5 151,-870.5"/>
<text text-anchor="start" x="159" y="-899.5" font-family="Helvetica,sans-Serif" font-size="10.00">fmt::formatter&lt; bustub</text>
<text text-anchor="start" x="159" y="-888.5" font-family="Helvetica,sans-Serif" font-size="10.00">::WindowFunctionPlanNode</text>
<text text-anchor="middle" x="225.5" y="-877.5" font-family="Helvetica,sans-Serif" font-size="10.00">::WindowFunction &gt;</text>
</a>
</g>
</g>
<!-- Node112&#45;&gt;Node135 -->
<g id="edge23" class="edge">
<title>Node112&#45;&gt;Node135</title>
<path fill="none" stroke="midnightblue" d="M44.41,-1146.35C46.44,-1100.38 58.01,-984.99 122,-922 130.08,-914.04 140.13,-908.12 150.75,-903.71"/>
<polygon fill="midnightblue" stroke="midnightblue" points="40.9,-1146.35 44.07,-1156.46 47.9,-1146.59 40.9,-1146.35"/>
</g>
<!-- Node136 -->
<g id="node25" class="node">
<title>Node136</title>
<g id="a_node25"><a xlink:href="structfmt_1_1formatter_3_01bustub_1_1WindowFunctionType_01_4.html" target="_top" xlink:title=" ">
<polygon fill="white" stroke="black" points="157,-821 157,-851 294,-851 294,-821 157,-821"/>
<text text-anchor="start" x="165" y="-839" font-family="Helvetica,sans-Serif" font-size="10.00">fmt::formatter&lt; bustub</text>
<text text-anchor="middle" x="225.5" y="-828" font-family="Helvetica,sans-Serif" font-size="10.00">::WindowFunctionType &gt;</text>
</a>
</g>
</g>
<!-- Node112&#45;&gt;Node136 -->
<g id="edge24" class="edge">
<title>Node112&#45;&gt;Node136</title>
<path fill="none" stroke="midnightblue" d="M46.43,-1145.95C54.27,-1084.71 80.74,-901.8 122,-861 131.51,-851.6 143.93,-845.53 156.83,-841.65"/>
<polygon fill="midnightblue" stroke="midnightblue" points="42.92,-1145.85 45.15,-1156.21 49.87,-1146.72 42.92,-1145.85"/>
</g>
<!-- Node137 -->
<g id="node26" class="node">
<title>Node137</title>
<g id="a_node26"><a xlink:href="structfmt_1_1formatter_3_01std_1_1shared__ptr_3_01T_01_4_00_01std_1_1enable__if__t_3_01std_1_1is7b3566aaa32fab8089c2d60637a24806.html" target="_top" xlink:title=" ">
<polygon fill="white" stroke="black" points="122,-738.5 122,-801.5 329,-801.5 329,-738.5 122,-738.5"/>
<text text-anchor="start" x="130" y="-789.5" font-family="Helvetica,sans-Serif" font-size="10.00">fmt::formatter&lt; std</text>
<text text-anchor="start" x="130" y="-778.5" font-family="Helvetica,sans-Serif" font-size="10.00">::shared_ptr&lt; T &gt;, std</text>
<text text-anchor="start" x="130" y="-767.5" font-family="Helvetica,sans-Serif" font-size="10.00">::enable_if_t&lt; std::is</text>
<text text-anchor="start" x="130" y="-756.5" font-family="Helvetica,sans-Serif" font-size="10.00">_base_of&lt; bustub::AbstractExpression,</text>
<text text-anchor="middle" x="225.5" y="-745.5" font-family="Helvetica,sans-Serif" font-size="10.00"> T &gt;::value, char &gt; &gt;</text>
</a>
</g>
</g>
<!-- Node112&#45;&gt;Node137 -->
<g id="edge25" class="edge">
<title>Node112&#45;&gt;Node137</title>
<path fill="none" stroke="midnightblue" d="M45.96,-1146.15C52.91,-1079.33 78.34,-863.9 122,-812 125.22,-808.17 128.84,-804.69 132.75,-801.52"/>
<polygon fill="midnightblue" stroke="midnightblue" points="42.47,-1145.89 44.94,-1156.19 49.43,-1146.6 42.47,-1145.89"/>
</g>
<!-- Node138 -->
<g id="node27" class="node">
<title>Node138</title>
<g id="a_node27"><a xlink:href="structfmt_1_1formatter_3_01std_1_1shared__ptr_3_01T_01_4_00_01std_1_1enable__if__t_3_01std_1_1is6017001ca96bca0776be8861eb26e1c6.html" target="_top" xlink:title=" ">
<polygon fill="white" stroke="black" points="149.5,-656.5 149.5,-719.5 301.5,-719.5 301.5,-656.5 149.5,-656.5"/>
<text text-anchor="start" x="157.5" y="-707.5" font-family="Helvetica,sans-Serif" font-size="10.00">fmt::formatter&lt; std</text>
<text text-anchor="start" x="157.5" y="-696.5" font-family="Helvetica,sans-Serif" font-size="10.00">::shared_ptr&lt; T &gt;, std</text>
<text text-anchor="start" x="157.5" y="-685.5" font-family="Helvetica,sans-Serif" font-size="10.00">::enable_if_t&lt; std::is</text>
<text text-anchor="start" x="157.5" y="-674.5" font-family="Helvetica,sans-Serif" font-size="10.00">_base_of&lt; bustub::Schema,</text>
<text text-anchor="middle" x="225.5" y="-663.5" font-family="Helvetica,sans-Serif" font-size="10.00"> T &gt;::value, char &gt; &gt;</text>
</a>
</g>
</g>
<!-- Node112&#45;&gt;Node138 -->
<g id="edge26" class="edge">
<title>Node112&#45;&gt;Node138</title>
<path fill="none" stroke="midnightblue" d="M45.03,-1146.11C49.39,-1069.52 68.54,-794.65 122,-729 129.32,-720.01 138.91,-712.98 149.28,-707.48"/>
<polygon fill="midnightblue" stroke="midnightblue" points="41.53,-1146.11 44.48,-1156.29 48.52,-1146.49 41.53,-1146.11"/>
</g>
<!-- Node139 -->
<g id="node28" class="node">
<title>Node139</title>
<g id="a_node28"><a xlink:href="structfmt_1_1formatter_3_01std_1_1unique__ptr_3_01T_01_4_00_01std_1_1enable__if__t_3_01std_1_1is58c514c21abf42eb5ed1d95711265c23.html" target="_top" xlink:title=" ">
<polygon fill="white" stroke="black" points="122,-574.5 122,-637.5 329,-637.5 329,-574.5 122,-574.5"/>
<text text-anchor="start" x="130" y="-625.5" font-family="Helvetica,sans-Serif" font-size="10.00">fmt::formatter&lt; std</text>
<text text-anchor="start" x="130" y="-614.5" font-family="Helvetica,sans-Serif" font-size="10.00">::unique_ptr&lt; T &gt;, std</text>
<text text-anchor="start" x="130" y="-603.5" font-family="Helvetica,sans-Serif" font-size="10.00">::enable_if_t&lt; std::is</text>
<text text-anchor="start" x="130" y="-592.5" font-family="Helvetica,sans-Serif" font-size="10.00">_base_of&lt; bustub::AbstractExpression,</text>
<text text-anchor="middle" x="225.5" y="-581.5" font-family="Helvetica,sans-Serif" font-size="10.00"> T &gt;::value, char &gt; &gt;</text>
</a>
</g>
</g>
<!-- Node112&#45;&gt;Node139 -->
<g id="edge27" class="edge">
<title>Node112&#45;&gt;Node139</title>
<path fill="none" stroke="midnightblue" d="M44.42,-1146.05C46.58,-1060.64 59,-726.56 122,-647 124.62,-643.69 127.54,-640.65 130.7,-637.86"/>
<polygon fill="midnightblue" stroke="midnightblue" points="40.91,-1146.12 44.18,-1156.2 47.91,-1146.28 40.91,-1146.12"/>
</g>
<!-- Node140 -->
<g id="node29" class="node">
<title>Node140</title>
<g id="a_node29"><a xlink:href="structfmt_1_1formatter_3_01std_1_1unique__ptr_3_01T_01_4_00_01std_1_1enable__if__t_3_01std_1_1isa97d2ca8d2f4e45c5ad1c447ea87613d.html" target="_top" xlink:title=" ">
<polygon fill="white" stroke="black" points="139.5,-492.5 139.5,-555.5 311.5,-555.5 311.5,-492.5 139.5,-492.5"/>
<text text-anchor="start" x="147.5" y="-543.5" font-family="Helvetica,sans-Serif" font-size="10.00">fmt::formatter&lt; std</text>
<text text-anchor="start" x="147.5" y="-532.5" font-family="Helvetica,sans-Serif" font-size="10.00">::unique_ptr&lt; T &gt;, std</text>
<text text-anchor="start" x="147.5" y="-521.5" font-family="Helvetica,sans-Serif" font-size="10.00">::enable_if_t&lt; std::is</text>
<text text-anchor="start" x="147.5" y="-510.5" font-family="Helvetica,sans-Serif" font-size="10.00">_base_of&lt; bustub::AbstractPlan</text>
<text text-anchor="middle" x="225.5" y="-499.5" font-family="Helvetica,sans-Serif" font-size="10.00">Node, T &gt;::value, char &gt; &gt;</text>
</a>
</g>
</g>
<!-- Node112&#45;&gt;Node140 -->
<g id="edge28" class="edge">
<title>Node112&#45;&gt;Node140</title>
<path fill="none" stroke="midnightblue" d="M43.96,-1145.95C44.17,-1052.3 49.42,-658.58 122,-565 126.82,-558.79 132.72,-553.52 139.24,-549.04"/>
<polygon fill="midnightblue" stroke="midnightblue" points="40.46,-1146.06 43.96,-1156.06 47.46,-1146.06 40.46,-1146.06"/>
</g>
<!-- Node141 -->
<g id="node30" class="node">
<title>Node141</title>
<g id="a_node30"><a xlink:href="structfmt_1_1formatter_3_01std_1_1unique__ptr_3_01T_01_4_00_01std_1_1enable__if__t_3_01std_1_1is33298db1cd19343f8e4279616d13ed8c.html" target="_top" xlink:title=" ">
<polygon fill="white" stroke="black" points="127,-410.5 127,-473.5 324,-473.5 324,-410.5 127,-410.5"/>
<text text-anchor="start" x="135" y="-461.5" font-family="Helvetica,sans-Serif" font-size="10.00">fmt::formatter&lt; std</text>
<text text-anchor="start" x="135" y="-450.5" font-family="Helvetica,sans-Serif" font-size="10.00">::unique_ptr&lt; T &gt;, std</text>
<text text-anchor="start" x="135" y="-439.5" font-family="Helvetica,sans-Serif" font-size="10.00">::enable_if_t&lt; std::is</text>
<text text-anchor="start" x="135" y="-428.5" font-family="Helvetica,sans-Serif" font-size="10.00">_base_of&lt; bustub::BoundExpression,</text>
<text text-anchor="middle" x="225.5" y="-417.5" font-family="Helvetica,sans-Serif" font-size="10.00"> T &gt;::value, char &gt; &gt;</text>
</a>
</g>
</g>
<!-- Node112&#45;&gt;Node141 -->
<g id="edge29" class="edge">
<title>Node112&#45;&gt;Node141</title>
<path fill="none" stroke="midnightblue" d="M43.62,-1146.16C42.05,-1045.39 39.72,-590.79 122,-483 124.56,-479.65 127.43,-476.57 130.55,-473.74"/>
<polygon fill="midnightblue" stroke="midnightblue" points="40.12,-1146.26 43.79,-1156.19 47.12,-1146.14 40.12,-1146.26"/>
</g>
<!-- Node142 -->
<g id="node31" class="node">
<title>Node142</title>
<g id="a_node31"><a xlink:href="structfmt_1_1formatter_3_01std_1_1unique__ptr_3_01T_01_4_00_01std_1_1enable__if__t_3_01std_1_1is697a13f22cee5039ab9bb40482914978.html" target="_top" xlink:title=" ">
<polygon fill="white" stroke="black" points="133.5,-328.5 133.5,-391.5 317.5,-391.5 317.5,-328.5 133.5,-328.5"/>
<text text-anchor="start" x="141.5" y="-379.5" font-family="Helvetica,sans-Serif" font-size="10.00">fmt::formatter&lt; std</text>
<text text-anchor="start" x="141.5" y="-368.5" font-family="Helvetica,sans-Serif" font-size="10.00">::unique_ptr&lt; T &gt;, std</text>
<text text-anchor="start" x="141.5" y="-357.5" font-family="Helvetica,sans-Serif" font-size="10.00">::enable_if_t&lt; std::is</text>
<text text-anchor="start" x="141.5" y="-346.5" font-family="Helvetica,sans-Serif" font-size="10.00">_base_of&lt; bustub::BoundOrderBy,</text>
<text text-anchor="middle" x="225.5" y="-335.5" font-family="Helvetica,sans-Serif" font-size="10.00"> T &gt;::value, char &gt; &gt;</text>
</a>
</g>
</g>
<!-- Node112&#45;&gt;Node142 -->
<g id="edge30" class="edge">
<title>Node112&#45;&gt;Node142</title>
<path fill="none" stroke="midnightblue" d="M44.8,-1146.33C49.58,-1032.63 75.72,-462.39 122,-401 125.23,-396.71 128.98,-392.88 133.1,-389.44"/>
<polygon fill="midnightblue" stroke="midnightblue" points="41.3,-1146.26 44.38,-1156.39 48.29,-1146.55 41.3,-1146.26"/>
</g>
<!-- Node143 -->
<g id="node32" class="node">
<title>Node143</title>
<g id="a_node32"><a xlink:href="structfmt_1_1formatter_3_01std_1_1unique__ptr_3_01T_01_4_00_01std_1_1enable__if__t_3_01std_1_1isb01991c996872e322f250aa044630ce0.html" target="_top" xlink:title=" ">
<polygon fill="white" stroke="black" points="132.5,-246.5 132.5,-309.5 318.5,-309.5 318.5,-246.5 132.5,-246.5"/>
<text text-anchor="start" x="140.5" y="-297.5" font-family="Helvetica,sans-Serif" font-size="10.00">fmt::formatter&lt; std</text>
<text text-anchor="start" x="140.5" y="-286.5" font-family="Helvetica,sans-Serif" font-size="10.00">::unique_ptr&lt; T &gt;, std</text>
<text text-anchor="start" x="140.5" y="-275.5" font-family="Helvetica,sans-Serif" font-size="10.00">::enable_if_t&lt; std::is</text>
<text text-anchor="start" x="140.5" y="-264.5" font-family="Helvetica,sans-Serif" font-size="10.00">_base_of&lt; bustub::BoundTableRef,</text>
<text text-anchor="middle" x="225.5" y="-253.5" font-family="Helvetica,sans-Serif" font-size="10.00"> T &gt;::value, char &gt; &gt;</text>
</a>
</g>
</g>
<!-- Node112&#45;&gt;Node143 -->
<g id="edge31" class="edge">
<title>Node112&#45;&gt;Node143</title>
<path fill="none" stroke="midnightblue" d="M44.6,-1146.14C48.43,-1024.92 70.88,-387.51 122,-319 124.98,-315.01 128.41,-311.4 132.17,-308.15"/>
<polygon fill="midnightblue" stroke="midnightblue" points="41.1,-1146.12 44.29,-1156.23 48.1,-1146.34 41.1,-1146.12"/>
</g>
<!-- Node144 -->
<g id="node33" class="node">
<title>Node144</title>
<g id="a_node33"><a xlink:href="structfmt_1_1formatter_3_01std_1_1unique__ptr_3_01T_01_4_00_01std_1_1enable__if__t_3_01std_1_1is2598e58a6390d2f965a4fb2199bc7eab.html" target="_top" xlink:title=" ">
<polygon fill="white" stroke="black" points="150,-164.5 150,-227.5 301,-227.5 301,-164.5 150,-164.5"/>
<text text-anchor="start" x="158" y="-215.5" font-family="Helvetica,sans-Serif" font-size="10.00">fmt::formatter&lt; std</text>
<text text-anchor="start" x="158" y="-204.5" font-family="Helvetica,sans-Serif" font-size="10.00">::unique_ptr&lt; T &gt;, std</text>
<text text-anchor="start" x="158" y="-193.5" font-family="Helvetica,sans-Serif" font-size="10.00">::enable_if_t&lt; std::is</text>
<text text-anchor="start" x="158" y="-182.5" font-family="Helvetica,sans-Serif" font-size="10.00">_base_of&lt; bustub::Column,</text>
<text text-anchor="middle" x="225.5" y="-171.5" font-family="Helvetica,sans-Serif" font-size="10.00"> T &gt;::value, char &gt; &gt;</text>
</a>
</g>
</g>
<!-- Node112&#45;&gt;Node144 -->
<g id="edge32" class="edge">
<title>Node112&#45;&gt;Node144</title>
<path fill="none" stroke="midnightblue" d="M44.43,-1146.25C47.35,-1018.58 65.99,-312.7 122,-237 129.18,-227.29 139.04,-219.88 149.81,-214.22"/>
<polygon fill="midnightblue" stroke="midnightblue" points="40.92,-1146.41 44.2,-1156.48 47.92,-1146.56 40.92,-1146.41"/>
</g>
<!-- Node145 -->
<g id="node34" class="node">
<title>Node145</title>
<g id="a_node34"><a xlink:href="structfmt_1_1formatter_3_01std_1_1unique__ptr_3_01T_01_4_00_01std_1_1enable__if__t_3_01std_1_1is1166b43ed22e9d162a84c756aef916b5.html" target="_top" xlink:title=" ">
<polygon fill="white" stroke="black" points="149.5,-82.5 149.5,-145.5 301.5,-145.5 301.5,-82.5 149.5,-82.5"/>
<text text-anchor="start" x="157.5" y="-133.5" font-family="Helvetica,sans-Serif" font-size="10.00">fmt::formatter&lt; std</text>
<text text-anchor="start" x="157.5" y="-122.5" font-family="Helvetica,sans-Serif" font-size="10.00">::unique_ptr&lt; T &gt;, std</text>
<text text-anchor="start" x="157.5" y="-111.5" font-family="Helvetica,sans-Serif" font-size="10.00">::enable_if_t&lt; std::is</text>
<text text-anchor="start" x="157.5" y="-100.5" font-family="Helvetica,sans-Serif" font-size="10.00">_base_of&lt; bustub::Schema,</text>
<text text-anchor="middle" x="225.5" y="-89.5" font-family="Helvetica,sans-Serif" font-size="10.00"> T &gt;::value, char &gt; &gt;</text>
</a>
</g>
</g>
<!-- Node112&#45;&gt;Node145 -->
<g id="edge33" class="edge">
<title>Node112&#45;&gt;Node145</title>
<path fill="none" stroke="midnightblue" d="M44.29,-1146.19C46.39,-1011.9 61.11,-237.88 122,-155 129.04,-145.42 138.68,-138.08 149.25,-132.45"/>
<polygon fill="midnightblue" stroke="midnightblue" points="40.79,-1146.22 44.13,-1156.27 47.78,-1146.32 40.79,-1146.22"/>
</g>
<!-- Node146 -->
<g id="node35" class="node">
<title>Node146</title>
<g id="a_node35"><a xlink:href="structfmt_1_1formatter_3_01std_1_1unique__ptr_3_01T_01_4_00_01std_1_1enable__if__t_3_01std_1_1is40838307b75c4029573d0a9f1e643fad.html" target="_top" xlink:title=" ">
<polygon fill="white" stroke="black" points="155.5,-0.5 155.5,-63.5 295.5,-63.5 295.5,-0.5 155.5,-0.5"/>
<text text-anchor="start" x="163.5" y="-51.5" font-family="Helvetica,sans-Serif" font-size="10.00">fmt::formatter&lt; std</text>
<text text-anchor="start" x="163.5" y="-40.5" font-family="Helvetica,sans-Serif" font-size="10.00">::unique_ptr&lt; T &gt;, std</text>
<text text-anchor="start" x="163.5" y="-29.5" font-family="Helvetica,sans-Serif" font-size="10.00">::enable_if_t&lt; std::is</text>
<text text-anchor="start" x="163.5" y="-18.5" font-family="Helvetica,sans-Serif" font-size="10.00">_base_of&lt; bustub::Value,</text>
<text text-anchor="middle" x="225.5" y="-7.5" font-family="Helvetica,sans-Serif" font-size="10.00"> T &gt;::value, char &gt; &gt;</text>
</a>
</g>
</g>
<!-- Node112&#45;&gt;Node146 -->
<g id="edge34" class="edge">
<title>Node112&#45;&gt;Node146</title>
<path fill="none" stroke="midnightblue" d="M44.16,-1146.35C45.49,-1006.35 56.18,-163.13 122,-73 130.36,-61.55 142.46,-53.29 155.43,-47.34"/>
<polygon fill="midnightblue" stroke="midnightblue" points="40.66,-1146.42 44.07,-1156.46 47.66,-1146.49 40.66,-1146.42"/>
</g>
</g>
</svg>
