<?xml version="1.0" encoding="UTF-8" standalone="no"?>
<!DOCTYPE svg PUBLIC "-//W3C//DTD SVG 1.1//EN"
 "http://www.w3.org/Graphics/SVG/1.1/DTD/svg11.dtd">
<!-- Generated by graphviz version 2.43.0 (0)
 -->
<!-- Title: Graphical Class Hierarchy Pages: 1 -->
<svg width="372pt" height="256pt"
 viewBox="0.00 0.00 372.00 256.00" xmlns="http://www.w3.org/2000/svg" xmlns:xlink="http://www.w3.org/1999/xlink">
<g id="graph0" class="graph" transform="scale(1 1) rotate(0) translate(4 252)">
<title>Graphical Class Hierarchy</title>
<polygon fill="white" stroke="transparent" points="-4,4 -4,-252 368,-252 368,4 -4,4"/>
<!-- Node0 -->
<g id="node1" class="node">
<title>Node0</title>
<g id="a_node1"><a xlink:href="classbustub_1_1AbstractExpression.html" target="_top" xlink:title=" ">
<polygon fill="white" stroke="black" points="0,-114.5 0,-133.5 149,-133.5 149,-114.5 0,-114.5"/>
<text text-anchor="middle" x="74.5" y="-121.5" font-family="Helvetica,sans-Serif" font-size="10.00">bustub::AbstractExpression</text>
</a>
</g>
</g>
<!-- Node1 -->
<g id="node2" class="node">
<title>Node1</title>
<g id="a_node2"><a xlink:href="classbustub_1_1ArithmeticExpression.html" target="_top" xlink:title=" ">
<polygon fill="white" stroke="black" points="194.5,-228.5 194.5,-247.5 354.5,-247.5 354.5,-228.5 194.5,-228.5"/>
<text text-anchor="middle" x="274.5" y="-235.5" font-family="Helvetica,sans-Serif" font-size="10.00">bustub::ArithmeticExpression</text>
</a>
</g>
</g>
<!-- Node0&#45;&gt;Node1 -->
<g id="edge1" class="edge">
<title>Node0&#45;&gt;Node1</title>
<path fill="none" stroke="midnightblue" d="M90.27,-141.34C109.72,-162.99 146.04,-199.55 185,-219 192.73,-222.86 201.23,-225.94 209.8,-228.39"/>
<polygon fill="midnightblue" stroke="midnightblue" points="92.68,-138.78 83.45,-133.58 87.42,-143.4 92.68,-138.78"/>
</g>
<!-- Node2 -->
<g id="node3" class="node">
<title>Node2</title>
<g id="a_node3"><a xlink:href="classbustub_1_1ArrayExpression.html" target="_top" xlink:title=" ">
<polygon fill="white" stroke="black" points="207,-190.5 207,-209.5 342,-209.5 342,-190.5 207,-190.5"/>
<text text-anchor="middle" x="274.5" y="-197.5" font-family="Helvetica,sans-Serif" font-size="10.00">bustub::ArrayExpression</text>
</a>
</g>
</g>
<!-- Node0&#45;&gt;Node2 -->
<g id="edge2" class="edge">
<title>Node0&#45;&gt;Node2</title>
<path fill="none" stroke="midnightblue" d="M99.67,-139C121.3,-151.83 154.26,-169.93 185,-181 195.5,-184.78 206.98,-187.93 218.09,-190.5"/>
<polygon fill="midnightblue" stroke="midnightblue" points="101.22,-135.85 90.85,-133.69 97.61,-141.85 101.22,-135.85"/>
</g>
<!-- Node3 -->
<g id="node4" class="node">
<title>Node3</title>
<g id="a_node4"><a xlink:href="classbustub_1_1ColumnValueExpression.html" target="_top" xlink:title=" ">
<polygon fill="white" stroke="black" points="188,-152.5 188,-171.5 361,-171.5 361,-152.5 188,-152.5"/>
<text text-anchor="middle" x="274.5" y="-159.5" font-family="Helvetica,sans-Serif" font-size="10.00">bustub::ColumnValueExpression</text>
</a>
</g>
</g>
<!-- Node0&#45;&gt;Node3 -->
<g id="edge3" class="edge">
<title>Node0&#45;&gt;Node3</title>
<path fill="none" stroke="midnightblue" d="M135.37,-135.49C163.62,-140.91 196.94,-147.31 223.77,-152.46"/>
<polygon fill="midnightblue" stroke="midnightblue" points="135.69,-131.99 125.21,-133.54 134.37,-138.86 135.69,-131.99"/>
</g>
<!-- Node4 -->
<g id="node5" class="node">
<title>Node4</title>
<g id="a_node5"><a xlink:href="classbustub_1_1ComparisonExpression.html" target="_top" xlink:title=" ">
<polygon fill="white" stroke="black" points="191,-114.5 191,-133.5 358,-133.5 358,-114.5 191,-114.5"/>
<text text-anchor="middle" x="274.5" y="-121.5" font-family="Helvetica,sans-Serif" font-size="10.00">bustub::ComparisonExpression</text>
</a>
</g>
</g>
<!-- Node0&#45;&gt;Node4 -->
<g id="edge4" class="edge">
<title>Node0&#45;&gt;Node4</title>
<path fill="none" stroke="midnightblue" d="M159.48,-124C169.82,-124 180.39,-124 190.72,-124"/>
<polygon fill="midnightblue" stroke="midnightblue" points="159.23,-120.5 149.23,-124 159.23,-127.5 159.23,-120.5"/>
</g>
<!-- Node5 -->
<g id="node6" class="node">
<title>Node5</title>
<g id="a_node6"><a xlink:href="classbustub_1_1ConstantValueExpression.html" target="_top" xlink:title=" ">
<polygon fill="white" stroke="black" points="185,-76.5 185,-95.5 364,-95.5 364,-76.5 185,-76.5"/>
<text text-anchor="middle" x="274.5" y="-83.5" font-family="Helvetica,sans-Serif" font-size="10.00">bustub::ConstantValueExpression</text>
</a>
</g>
</g>
<!-- Node0&#45;&gt;Node5 -->
<g id="edge5" class="edge">
<title>Node0&#45;&gt;Node5</title>
<path fill="none" stroke="midnightblue" d="M135.37,-112.51C163.62,-107.09 196.94,-100.69 223.77,-95.54"/>
<polygon fill="midnightblue" stroke="midnightblue" points="134.37,-109.14 125.21,-114.46 135.69,-116.01 134.37,-109.14"/>
</g>
<!-- Node6 -->
<g id="node7" class="node">
<title>Node6</title>
<g id="a_node7"><a xlink:href="classbustub_1_1LogicExpression.html" target="_top" xlink:title=" ">
<polygon fill="white" stroke="black" points="207.5,-38.5 207.5,-57.5 341.5,-57.5 341.5,-38.5 207.5,-38.5"/>
<text text-anchor="middle" x="274.5" y="-45.5" font-family="Helvetica,sans-Serif" font-size="10.00">bustub::LogicExpression</text>
</a>
</g>
</g>
<!-- Node0&#45;&gt;Node6 -->
<g id="edge6" class="edge">
<title>Node0&#45;&gt;Node6</title>
<path fill="none" stroke="midnightblue" d="M99.67,-109C121.3,-96.17 154.26,-78.07 185,-67 195.5,-63.22 206.98,-60.07 218.09,-57.5"/>
<polygon fill="midnightblue" stroke="midnightblue" points="97.61,-106.15 90.85,-114.31 101.22,-112.15 97.61,-106.15"/>
</g>
<!-- Node7 -->
<g id="node8" class="node">
<title>Node7</title>
<g id="a_node8"><a xlink:href="classbustub_1_1StringExpression.html" target="_top" xlink:title=" ">
<polygon fill="white" stroke="black" points="206,-0.5 206,-19.5 343,-19.5 343,-0.5 206,-0.5"/>
<text text-anchor="middle" x="274.5" y="-7.5" font-family="Helvetica,sans-Serif" font-size="10.00">bustub::StringExpression</text>
</a>
</g>
</g>
<!-- Node0&#45;&gt;Node7 -->
<g id="edge7" class="edge">
<title>Node0&#45;&gt;Node7</title>
<path fill="none" stroke="midnightblue" d="M90.27,-106.66C109.72,-85.01 146.04,-48.45 185,-29 192.73,-25.14 201.23,-22.06 209.8,-19.61"/>
<polygon fill="midnightblue" stroke="midnightblue" points="87.42,-104.6 83.45,-114.42 92.68,-109.22 87.42,-104.6"/>
</g>
</g>
</svg>
