<?xml version="1.0" encoding="UTF-8" standalone="no"?>
<!DOCTYPE svg PUBLIC "-//W3C//DTD SVG 1.1//EN"
 "http://www.w3.org/Graphics/SVG/1.1/DTD/svg11.dtd">
<!-- Generated by graphviz version 2.43.0 (0)
 -->
<!-- Title: Graphical Class Hierarchy Pages: 1 -->
<svg width="324pt" height="332pt"
 viewBox="0.00 0.00 324.00 332.00" xmlns="http://www.w3.org/2000/svg" xmlns:xlink="http://www.w3.org/1999/xlink">
<g id="graph0" class="graph" transform="scale(1 1) rotate(0) translate(4 328)">
<title>Graphical Class Hierarchy</title>
<polygon fill="white" stroke="transparent" points="-4,4 -4,-328 320,-328 320,4 -4,4"/>
<!-- Node0 -->
<g id="node1" class="node">
<title>Node0</title>
<g id="a_node1"><a xlink:href="classbustub_1_1BoundExpression.html" target="_top" xlink:title=" ">
<polygon fill="white" stroke="black" points="0,-152.5 0,-171.5 140,-171.5 140,-152.5 0,-152.5"/>
<text text-anchor="middle" x="70" y="-159.5" font-family="Helvetica,sans-Serif" font-size="10.00">bustub::BoundExpression</text>
</a>
</g>
</g>
<!-- Node1 -->
<g id="node2" class="node">
<title>Node1</title>
<g id="a_node2"><a xlink:href="classbustub_1_1BoundAggCall.html" target="_top" xlink:title=" ">
<polygon fill="white" stroke="black" points="184,-304.5 184,-323.5 308,-323.5 308,-304.5 184,-304.5"/>
<text text-anchor="middle" x="246" y="-311.5" font-family="Helvetica,sans-Serif" font-size="10.00">bustub::BoundAggCall</text>
</a>
</g>
</g>
<!-- Node0&#45;&gt;Node1 -->
<g id="edge1" class="edge">
<title>Node0&#45;&gt;Node1</title>
<path fill="none" stroke="midnightblue" d="M80.7,-180.84C96.61,-209.84 131.04,-265.18 176,-295 181.8,-298.85 188.36,-301.92 195.08,-304.37"/>
<polygon fill="midnightblue" stroke="midnightblue" points="83.65,-178.94 75.86,-171.76 77.48,-182.23 83.65,-178.94"/>
</g>
<!-- Node2 -->
<g id="node3" class="node">
<title>Node2</title>
<g id="a_node3"><a xlink:href="classbustub_1_1BoundAlias.html" target="_top" xlink:title=" ">
<polygon fill="white" stroke="black" points="191,-266.5 191,-285.5 301,-285.5 301,-266.5 191,-266.5"/>
<text text-anchor="middle" x="246" y="-273.5" font-family="Helvetica,sans-Serif" font-size="10.00">bustub::BoundAlias</text>
</a>
</g>
</g>
<!-- Node0&#45;&gt;Node2 -->
<g id="edge2" class="edge">
<title>Node0&#45;&gt;Node2</title>
<path fill="none" stroke="midnightblue" d="M85.48,-179.34C104.22,-200.7 138.9,-236.63 176,-257 182.97,-260.83 190.77,-263.93 198.54,-266.43"/>
<polygon fill="midnightblue" stroke="midnightblue" points="88.06,-176.98 78.89,-171.68 82.75,-181.55 88.06,-176.98"/>
</g>
<!-- Node3 -->
<g id="node4" class="node">
<title>Node3</title>
<g id="a_node4"><a xlink:href="classbustub_1_1BoundBinaryOp.html" target="_top" xlink:title=" ">
<polygon fill="white" stroke="black" points="180.5,-228.5 180.5,-247.5 311.5,-247.5 311.5,-228.5 180.5,-228.5"/>
<text text-anchor="middle" x="246" y="-235.5" font-family="Helvetica,sans-Serif" font-size="10.00">bustub::BoundBinaryOp</text>
</a>
</g>
</g>
<!-- Node0&#45;&gt;Node3 -->
<g id="edge3" class="edge">
<title>Node0&#45;&gt;Node3</title>
<path fill="none" stroke="midnightblue" d="M94.89,-177.02C115.68,-189.59 146.97,-207.3 176,-219 184.99,-222.62 194.91,-225.8 204.35,-228.47"/>
<polygon fill="midnightblue" stroke="midnightblue" points="96.47,-173.89 86.11,-171.65 92.81,-179.86 96.47,-173.89"/>
</g>
<!-- Node4 -->
<g id="node5" class="node">
<title>Node4</title>
<g id="a_node5"><a xlink:href="classbustub_1_1BoundColumnRef.html" target="_top" xlink:title=" ">
<polygon fill="white" stroke="black" points="176,-190.5 176,-209.5 316,-209.5 316,-190.5 176,-190.5"/>
<text text-anchor="middle" x="246" y="-197.5" font-family="Helvetica,sans-Serif" font-size="10.00">bustub::BoundColumnRef</text>
</a>
</g>
</g>
<!-- Node0&#45;&gt;Node4 -->
<g id="edge4" class="edge">
<title>Node0&#45;&gt;Node4</title>
<path fill="none" stroke="midnightblue" d="M124.81,-173.75C149.42,-179.13 178.19,-185.41 201.41,-190.48"/>
<polygon fill="midnightblue" stroke="midnightblue" points="125.42,-170.3 114.91,-171.59 123.93,-177.14 125.42,-170.3"/>
</g>
<!-- Node5 -->
<g id="node6" class="node">
<title>Node5</title>
<g id="a_node6"><a xlink:href="classbustub_1_1BoundConstant.html" target="_top" xlink:title=" ">
<polygon fill="white" stroke="black" points="181,-152.5 181,-171.5 311,-171.5 311,-152.5 181,-152.5"/>
<text text-anchor="middle" x="246" y="-159.5" font-family="Helvetica,sans-Serif" font-size="10.00">bustub::BoundConstant</text>
</a>
</g>
</g>
<!-- Node0&#45;&gt;Node5 -->
<g id="edge5" class="edge">
<title>Node0&#45;&gt;Node5</title>
<path fill="none" stroke="midnightblue" d="M150.22,-162C160.48,-162 170.89,-162 180.87,-162"/>
<polygon fill="midnightblue" stroke="midnightblue" points="150.02,-158.5 140.02,-162 150.02,-165.5 150.02,-158.5"/>
</g>
<!-- Node6 -->
<g id="node7" class="node">
<title>Node6</title>
<g id="a_node7"><a xlink:href="classbustub_1_1BoundFuncCall.html" target="_top" xlink:title=" ">
<polygon fill="white" stroke="black" points="182,-114.5 182,-133.5 310,-133.5 310,-114.5 182,-114.5"/>
<text text-anchor="middle" x="246" y="-121.5" font-family="Helvetica,sans-Serif" font-size="10.00">bustub::BoundFuncCall</text>
</a>
</g>
</g>
<!-- Node0&#45;&gt;Node6 -->
<g id="edge6" class="edge">
<title>Node0&#45;&gt;Node6</title>
<path fill="none" stroke="midnightblue" d="M124.81,-150.25C149.42,-144.87 178.19,-138.59 201.41,-133.52"/>
<polygon fill="midnightblue" stroke="midnightblue" points="123.93,-146.86 114.91,-152.41 125.42,-153.7 123.93,-146.86"/>
</g>
<!-- Node7 -->
<g id="node8" class="node">
<title>Node7</title>
<g id="a_node8"><a xlink:href="classbustub_1_1BoundStar.html" target="_top" xlink:title=" ">
<polygon fill="white" stroke="black" points="193,-76.5 193,-95.5 299,-95.5 299,-76.5 193,-76.5"/>
<text text-anchor="middle" x="246" y="-83.5" font-family="Helvetica,sans-Serif" font-size="10.00">bustub::BoundStar</text>
</a>
</g>
</g>
<!-- Node0&#45;&gt;Node7 -->
<g id="edge7" class="edge">
<title>Node0&#45;&gt;Node7</title>
<path fill="none" stroke="midnightblue" d="M94.89,-146.98C115.68,-134.41 146.97,-116.7 176,-105 184.99,-101.38 194.91,-98.2 204.35,-95.53"/>
<polygon fill="midnightblue" stroke="midnightblue" points="92.81,-144.14 86.11,-152.35 96.47,-150.11 92.81,-144.14"/>
</g>
<!-- Node8 -->
<g id="node9" class="node">
<title>Node8</title>
<g id="a_node9"><a xlink:href="classbustub_1_1BoundUnaryOp.html" target="_top" xlink:title=" ">
<polygon fill="white" stroke="black" points="181.5,-38.5 181.5,-57.5 310.5,-57.5 310.5,-38.5 181.5,-38.5"/>
<text text-anchor="middle" x="246" y="-45.5" font-family="Helvetica,sans-Serif" font-size="10.00">bustub::BoundUnaryOp</text>
</a>
</g>
</g>
<!-- Node0&#45;&gt;Node8 -->
<g id="edge8" class="edge">
<title>Node0&#45;&gt;Node8</title>
<path fill="none" stroke="midnightblue" d="M85.48,-144.66C104.22,-123.3 138.9,-87.37 176,-67 182.97,-63.17 190.77,-60.07 198.54,-57.57"/>
<polygon fill="midnightblue" stroke="midnightblue" points="82.75,-142.45 78.89,-152.32 88.06,-147.02 82.75,-142.45"/>
</g>
<!-- Node9 -->
<g id="node10" class="node">
<title>Node9</title>
<g id="a_node10"><a xlink:href="classbustub_1_1BoundWindow.html" target="_top" xlink:title=" ">
<polygon fill="white" stroke="black" points="183.5,-0.5 183.5,-19.5 308.5,-19.5 308.5,-0.5 183.5,-0.5"/>
<text text-anchor="middle" x="246" y="-7.5" font-family="Helvetica,sans-Serif" font-size="10.00">bustub::BoundWindow</text>
</a>
</g>
</g>
<!-- Node0&#45;&gt;Node9 -->
<g id="edge9" class="edge">
<title>Node0&#45;&gt;Node9</title>
<path fill="none" stroke="midnightblue" d="M80.7,-143.16C96.61,-114.16 131.04,-58.82 176,-29 181.8,-25.15 188.36,-22.08 195.08,-19.63"/>
<polygon fill="midnightblue" stroke="midnightblue" points="77.48,-141.77 75.86,-152.24 83.65,-145.06 77.48,-141.77"/>
</g>
</g>
</svg>
