<?xml version="1.0" encoding="UTF-8" standalone="no"?>
<!DOCTYPE svg PUBLIC "-//W3C//DTD SVG 1.1//EN"
 "http://www.w3.org/Graphics/SVG/1.1/DTD/svg11.dtd">
<!-- Generated by graphviz version 2.43.0 (0)
 -->
<!-- Title: Graphical Class Hierarchy Pages: 1 -->
<svg width="345pt" height="218pt"
 viewBox="0.00 0.00 345.00 218.00" xmlns="http://www.w3.org/2000/svg" xmlns:xlink="http://www.w3.org/1999/xlink">
<g id="graph0" class="graph" transform="scale(1 1) rotate(0) translate(4 214)">
<title>Graphical Class Hierarchy</title>
<polygon fill="white" stroke="transparent" points="-4,4 -4,-214 341,-214 341,4 -4,4"/>
<!-- Node0 -->
<g id="node1" class="node">
<title>Node0</title>
<g id="a_node1"><a xlink:href="classbustub_1_1BoundTableRef.html" target="_top" xlink:title=" ">
<polygon fill="white" stroke="black" points="0,-95.5 0,-114.5 128,-114.5 128,-95.5 0,-95.5"/>
<text text-anchor="middle" x="64" y="-102.5" font-family="Helvetica,sans-Serif" font-size="10.00">bustub::BoundTableRef</text>
</a>
</g>
</g>
<!-- Node1 -->
<g id="node2" class="node">
<title>Node1</title>
<g id="a_node2"><a xlink:href="classbustub_1_1BoundBaseTableRef.html" target="_top" xlink:title=" ">
<polygon fill="white" stroke="black" points="174.5,-190.5 174.5,-209.5 326.5,-209.5 326.5,-190.5 174.5,-190.5"/>
<text text-anchor="middle" x="250.5" y="-197.5" font-family="Helvetica,sans-Serif" font-size="10.00">bustub::BoundBaseTableRef</text>
</a>
</g>
</g>
<!-- Node0&#45;&gt;Node1 -->
<g id="edge1" class="edge">
<title>Node0&#45;&gt;Node1</title>
<path fill="none" stroke="midnightblue" d="M81.77,-121.64C100.32,-139.08 131.85,-165.99 164,-181 172.27,-184.86 181.36,-187.95 190.43,-190.43"/>
<polygon fill="midnightblue" stroke="midnightblue" points="84.07,-119 74.43,-114.59 79.22,-124.04 84.07,-119"/>
</g>
<!-- Node2 -->
<g id="node3" class="node">
<title>Node2</title>
<g id="a_node3"><a xlink:href="classbustub_1_1BoundCTERef.html" target="_top" xlink:title=" ">
<polygon fill="white" stroke="black" points="189.5,-152.5 189.5,-171.5 311.5,-171.5 311.5,-152.5 189.5,-152.5"/>
<text text-anchor="middle" x="250.5" y="-159.5" font-family="Helvetica,sans-Serif" font-size="10.00">bustub::BoundCTERef</text>
</a>
</g>
</g>
<!-- Node0&#45;&gt;Node2 -->
<g id="edge2" class="edge">
<title>Node0&#45;&gt;Node2</title>
<path fill="none" stroke="midnightblue" d="M96.56,-118.49C115.8,-126.36 141.03,-136.08 164,-143 175.79,-146.55 188.68,-149.76 200.8,-152.48"/>
<polygon fill="midnightblue" stroke="midnightblue" points="97.66,-115.15 87.08,-114.56 94.98,-121.62 97.66,-115.15"/>
</g>
<!-- Node3 -->
<g id="node4" class="node">
<title>Node3</title>
<g id="a_node4"><a xlink:href="classbustub_1_1BoundCrossProductRef.html" target="_top" xlink:title=" ">
<polygon fill="white" stroke="black" points="167,-114.5 167,-133.5 334,-133.5 334,-114.5 167,-114.5"/>
<text text-anchor="middle" x="250.5" y="-121.5" font-family="Helvetica,sans-Serif" font-size="10.00">bustub::BoundCrossProductRef</text>
</a>
</g>
</g>
<!-- Node0&#45;&gt;Node3 -->
<g id="edge3" class="edge">
<title>Node0&#45;&gt;Node3</title>
<path fill="none" stroke="midnightblue" d="M138.27,-112.55C147.64,-113.51 157.28,-114.5 166.78,-115.48"/>
<polygon fill="midnightblue" stroke="midnightblue" points="138.54,-109.06 128.24,-111.51 137.83,-116.02 138.54,-109.06"/>
</g>
<!-- Node4 -->
<g id="node5" class="node">
<title>Node4</title>
<g id="a_node5"><a xlink:href="classbustub_1_1BoundExpressionListRef.html" target="_top" xlink:title=" ">
<polygon fill="white" stroke="black" points="164,-76.5 164,-95.5 337,-95.5 337,-76.5 164,-76.5"/>
<text text-anchor="middle" x="250.5" y="-83.5" font-family="Helvetica,sans-Serif" font-size="10.00">bustub::BoundExpressionListRef</text>
</a>
</g>
</g>
<!-- Node0&#45;&gt;Node4 -->
<g id="edge4" class="edge">
<title>Node0&#45;&gt;Node4</title>
<path fill="none" stroke="midnightblue" d="M138.33,-97.45C146.72,-96.58 155.32,-95.7 163.84,-94.82"/>
<polygon fill="midnightblue" stroke="midnightblue" points="137.83,-93.98 128.24,-98.49 138.54,-100.94 137.83,-93.98"/>
</g>
<!-- Node5 -->
<g id="node6" class="node">
<title>Node5</title>
<g id="a_node6"><a xlink:href="classbustub_1_1BoundJoinRef.html" target="_top" xlink:title=" ">
<polygon fill="white" stroke="black" points="190,-38.5 190,-57.5 311,-57.5 311,-38.5 190,-38.5"/>
<text text-anchor="middle" x="250.5" y="-45.5" font-family="Helvetica,sans-Serif" font-size="10.00">bustub::BoundJoinRef</text>
</a>
</g>
</g>
<!-- Node0&#45;&gt;Node5 -->
<g id="edge5" class="edge">
<title>Node0&#45;&gt;Node5</title>
<path fill="none" stroke="midnightblue" d="M96.56,-91.51C115.8,-83.64 141.03,-73.92 164,-67 175.79,-63.45 188.68,-60.24 200.8,-57.52"/>
<polygon fill="midnightblue" stroke="midnightblue" points="94.98,-88.38 87.08,-95.44 97.66,-94.85 94.98,-88.38"/>
</g>
<!-- Node6 -->
<g id="node7" class="node">
<title>Node6</title>
<g id="a_node7"><a xlink:href="classbustub_1_1BoundSubqueryRef.html" target="_top" xlink:title=" ">
<polygon fill="white" stroke="black" points="176,-0.5 176,-19.5 325,-19.5 325,-0.5 176,-0.5"/>
<text text-anchor="middle" x="250.5" y="-7.5" font-family="Helvetica,sans-Serif" font-size="10.00">bustub::BoundSubqueryRef</text>
</a>
</g>
</g>
<!-- Node0&#45;&gt;Node6 -->
<g id="edge6" class="edge">
<title>Node0&#45;&gt;Node6</title>
<path fill="none" stroke="midnightblue" d="M81.77,-88.36C100.32,-70.92 131.85,-44.01 164,-29 172.27,-25.14 181.36,-22.05 190.43,-19.57"/>
<polygon fill="midnightblue" stroke="midnightblue" points="79.22,-85.96 74.43,-95.41 84.07,-91 79.22,-85.96"/>
</g>
</g>
</svg>
