<?xml version="1.0" encoding="UTF-8" standalone="no"?>
<!DOCTYPE svg PUBLIC "-//W3C//DTD SVG 1.1//EN"
 "http://www.w3.org/Graphics/SVG/1.1/DTD/svg11.dtd">
<!-- Generated by graphviz version 2.43.0 (0)
 -->
<!-- Title: Graphical Class Hierarchy Pages: 1 -->
<svg width="291pt" height="247pt"
 viewBox="0.00 0.00 291.00 246.50" xmlns="http://www.w3.org/2000/svg" xmlns:xlink="http://www.w3.org/1999/xlink">
<g id="graph0" class="graph" transform="scale(1 1) rotate(0) translate(4 242.5)">
<title>Graphical Class Hierarchy</title>
<polygon fill="white" stroke="transparent" points="-4,4 -4,-242.5 287,-242.5 287,4 -4,4"/>
<!-- Node0 -->
<g id="node1" class="node">
<title>Node0</title>
<g id="a_node1"><a xlink:href="classbustub_1_1Index.html" target="_top" xlink:title=" ">
<polygon fill="white" stroke="black" points="0,-110 0,-129 83,-129 83,-110 0,-110"/>
<text text-anchor="middle" x="41.5" y="-117" font-family="Helvetica,sans-Serif" font-size="10.00">bustub::Index</text>
</a>
</g>
</g>
<!-- Node1 -->
<g id="node2" class="node">
<title>Node1</title>
<g id="a_node2"><a xlink:href="classbustub_1_1BPlusTreeIndex.html" target="_top" xlink:title=" ">
<polygon fill="white" stroke="black" points="136,-219 136,-238 266,-238 266,-219 136,-219"/>
<text text-anchor="middle" x="201" y="-226" font-family="Helvetica,sans-Serif" font-size="10.00">bustub::BPlusTreeIndex</text>
</a>
</g>
</g>
<!-- Node0&#45;&gt;Node1 -->
<g id="edge1" class="edge">
<title>Node0&#45;&gt;Node1</title>
<path fill="none" stroke="midnightblue" d="M53.1,-137.92C65.99,-158.6 89.69,-191.6 119,-209.5 125.41,-213.42 132.56,-216.52 139.88,-218.99"/>
<polygon fill="midnightblue" stroke="midnightblue" points="55.97,-135.89 47.81,-129.13 49.97,-139.5 55.97,-135.89"/>
</g>
<!-- Node2 -->
<g id="node3" class="node">
<title>Node2</title>
<g id="a_node3"><a xlink:href="classbustub_1_1ExtendibleHashTableIndex.html" target="_top" xlink:title=" ">
<polygon fill="white" stroke="black" points="122,-159 122,-200 280,-200 280,-159 122,-159"/>
<text text-anchor="start" x="130" y="-188" font-family="Helvetica,sans-Serif" font-size="10.00">bustub::ExtendibleHashTable</text>
<text text-anchor="start" x="130" y="-177" font-family="Helvetica,sans-Serif" font-size="10.00">Index&lt; KeyType, ValueType,</text>
<text text-anchor="middle" x="201" y="-166" font-family="Helvetica,sans-Serif" font-size="10.00"> KeyComparator &gt;</text>
</a>
</g>
</g>
<!-- Node0&#45;&gt;Node2 -->
<g id="edge2" class="edge">
<title>Node0&#45;&gt;Node2</title>
<path fill="none" stroke="midnightblue" d="M75.88,-132.75C89.26,-138.02 104.84,-144.1 119,-149.5 127.13,-152.6 135.73,-155.83 144.17,-158.98"/>
<polygon fill="midnightblue" stroke="midnightblue" points="77.16,-129.49 66.57,-129.08 74.59,-136 77.16,-129.49"/>
</g>
<!-- Node3 -->
<g id="node4" class="node">
<title>Node3</title>
<g id="a_node4"><a xlink:href="classbustub_1_1LinearProbeHashTableIndex.html" target="_top" xlink:title=" ">
<polygon fill="white" stroke="black" points="119,-99 119,-140 283,-140 283,-99 119,-99"/>
<text text-anchor="start" x="127" y="-128" font-family="Helvetica,sans-Serif" font-size="10.00">bustub::LinearProbeHashTable</text>
<text text-anchor="start" x="127" y="-117" font-family="Helvetica,sans-Serif" font-size="10.00">Index&lt; KeyType, ValueType,</text>
<text text-anchor="middle" x="201" y="-106" font-family="Helvetica,sans-Serif" font-size="10.00"> KeyComparator &gt;</text>
</a>
</g>
</g>
<!-- Node0&#45;&gt;Node3 -->
<g id="edge3" class="edge">
<title>Node0&#45;&gt;Node3</title>
<path fill="none" stroke="midnightblue" d="M93.2,-119.5C101.43,-119.5 110.12,-119.5 118.86,-119.5"/>
<polygon fill="midnightblue" stroke="midnightblue" points="93.06,-116 83.06,-119.5 93.06,-123 93.06,-116"/>
</g>
<!-- Node4 -->
<g id="node5" class="node">
<title>Node4</title>
<g id="a_node5"><a xlink:href="classbustub_1_1STLOrderedIndex.html" target="_top" xlink:title=" ">
<polygon fill="white" stroke="black" points="131.5,-49.5 131.5,-79.5 270.5,-79.5 270.5,-49.5 131.5,-49.5"/>
<text text-anchor="start" x="139.5" y="-67.5" font-family="Helvetica,sans-Serif" font-size="10.00">bustub::STLOrderedIndex</text>
<text text-anchor="middle" x="201" y="-56.5" font-family="Helvetica,sans-Serif" font-size="10.00">&lt; KT, VT, Cmp &gt;</text>
</a>
</g>
</g>
<!-- Node0&#45;&gt;Node4 -->
<g id="edge4" class="edge">
<title>Node0&#45;&gt;Node4</title>
<path fill="none" stroke="midnightblue" d="M74.82,-106.21C88.38,-100.79 104.37,-94.62 119,-89.5 128.72,-86.1 139.19,-82.69 149.26,-79.53"/>
<polygon fill="midnightblue" stroke="midnightblue" points="73.4,-103.01 65.43,-109.99 76.02,-109.5 73.4,-103.01"/>
</g>
<!-- Node5 -->
<g id="node6" class="node">
<title>Node5</title>
<g id="a_node6"><a xlink:href="classbustub_1_1STLUnorderedIndex.html" target="_top" xlink:title=" ">
<polygon fill="white" stroke="black" points="125.5,-0.5 125.5,-30.5 276.5,-30.5 276.5,-0.5 125.5,-0.5"/>
<text text-anchor="start" x="133.5" y="-18.5" font-family="Helvetica,sans-Serif" font-size="10.00">bustub::STLUnorderedIndex</text>
<text text-anchor="middle" x="201" y="-7.5" font-family="Helvetica,sans-Serif" font-size="10.00">&lt; KT, VT, Cmp &gt;</text>
</a>
</g>
</g>
<!-- Node0&#45;&gt;Node5 -->
<g id="edge5" class="edge">
<title>Node0&#45;&gt;Node5</title>
<path fill="none" stroke="midnightblue" d="M55.48,-101.56C69.31,-83.66 92.81,-56.57 119,-40.5 125.27,-36.65 132.18,-33.35 139.25,-30.53"/>
<polygon fill="midnightblue" stroke="midnightblue" points="52.36,-99.88 49.16,-109.98 57.96,-104.08 52.36,-99.88"/>
</g>
</g>
</svg>
