<?xml version="1.0" encoding="UTF-8" standalone="no"?>
<!DOCTYPE svg PUBLIC "-//W3C//DTD SVG 1.1//EN"
 "http://www.w3.org/Graphics/SVG/1.1/DTD/svg11.dtd">
<!-- Generated by graphviz version 2.43.0 (0)
 -->
<!-- Title: Graphical Class Hierarchy Pages: 1 -->
<svg width="360pt" height="800pt"
 viewBox="0.00 0.00 360.00 800.00" xmlns="http://www.w3.org/2000/svg" xmlns:xlink="http://www.w3.org/1999/xlink">
<g id="graph0" class="graph" transform="scale(1 1) rotate(0) translate(4 796)">
<title>Graphical Class Hierarchy</title>
<polygon fill="white" stroke="transparent" points="-4,4 -4,-796 356,-796 356,4 -4,4"/>
<!-- Node0 -->
<g id="node1" class="node">
<title>Node0</title>
<g id="a_node1"><a xlink:href="classbustub_1_1AbstractExecutor.html" target="_top" xlink:title=" ">
<polygon fill="white" stroke="black" points="0,-380.5 0,-399.5 138,-399.5 138,-380.5 0,-380.5"/>
<text text-anchor="middle" x="69" y="-387.5" font-family="Helvetica,sans-Serif" font-size="10.00">bustub::AbstractExecutor</text>
</a>
</g>
</g>
<!-- Node1 -->
<g id="node2" class="node">
<title>Node1</title>
<g id="a_node2"><a xlink:href="classbustub_1_1AggregationExecutor.html" target="_top" xlink:title=" ">
<polygon fill="white" stroke="black" points="184.5,-772.5 184.5,-791.5 341.5,-791.5 341.5,-772.5 184.5,-772.5"/>
<text text-anchor="middle" x="263" y="-779.5" font-family="Helvetica,sans-Serif" font-size="10.00">bustub::AggregationExecutor</text>
</a>
</g>
</g>
<!-- Node0&#45;&gt;Node1 -->
<g id="edge1" class="edge">
<title>Node0&#45;&gt;Node1</title>
<path fill="none" stroke="midnightblue" d="M72.82,-409.92C83.13,-479.91 120.94,-712.99 174,-763 177.98,-766.75 182.52,-769.83 187.39,-772.36"/>
<polygon fill="midnightblue" stroke="midnightblue" points="76.25,-409.21 71.36,-399.81 69.33,-410.21 76.25,-409.21"/>
</g>
<!-- Node2 -->
<g id="node3" class="node">
<title>Node2</title>
<g id="a_node3"><a xlink:href="classbustub_1_1DeleteExecutor.html" target="_top" xlink:title=" ">
<polygon fill="white" stroke="black" points="198,-734.5 198,-753.5 328,-753.5 328,-734.5 198,-734.5"/>
<text text-anchor="middle" x="263" y="-741.5" font-family="Helvetica,sans-Serif" font-size="10.00">bustub::DeleteExecutor</text>
</a>
</g>
</g>
<!-- Node0&#45;&gt;Node2 -->
<g id="edge2" class="edge">
<title>Node0&#45;&gt;Node2</title>
<path fill="none" stroke="midnightblue" d="M69.73,-409.81C70.07,-467.78 79.45,-638.46 174,-725 180.8,-731.23 189.14,-735.59 197.95,-738.62"/>
<polygon fill="midnightblue" stroke="midnightblue" points="73.23,-409.79 69.76,-399.78 66.23,-409.77 73.23,-409.79"/>
</g>
<!-- Node3 -->
<g id="node4" class="node">
<title>Node3</title>
<g id="a_node4"><a xlink:href="classbustub_1_1ExternalMergeSortExecutor.html" target="_top" xlink:title=" ">
<polygon fill="white" stroke="black" points="190,-685 190,-715 336,-715 336,-685 190,-685"/>
<text text-anchor="start" x="198" y="-703" font-family="Helvetica,sans-Serif" font-size="10.00">bustub::ExternalMergeSort</text>
<text text-anchor="middle" x="263" y="-692" font-family="Helvetica,sans-Serif" font-size="10.00">Executor&lt; K &gt;</text>
</a>
</g>
</g>
<!-- Node0&#45;&gt;Node3 -->
<g id="edge3" class="edge">
<title>Node0&#45;&gt;Node3</title>
<path fill="none" stroke="midnightblue" d="M71.23,-409.62C75.54,-461.07 94.37,-600.99 174,-675 178.65,-679.33 184,-682.91 189.71,-685.88"/>
<polygon fill="midnightblue" stroke="midnightblue" points="74.71,-409.25 70.48,-399.53 67.73,-409.77 74.71,-409.25"/>
</g>
<!-- Node4 -->
<g id="node5" class="node">
<title>Node4</title>
<g id="a_node5"><a xlink:href="classbustub_1_1FilterExecutor.html" target="_top" xlink:title=" ">
<polygon fill="white" stroke="black" points="202,-646.5 202,-665.5 324,-665.5 324,-646.5 202,-646.5"/>
<text text-anchor="middle" x="263" y="-653.5" font-family="Helvetica,sans-Serif" font-size="10.00">bustub::FilterExecutor</text>
</a>
</g>
</g>
<!-- Node0&#45;&gt;Node4 -->
<g id="edge4" class="edge">
<title>Node0&#45;&gt;Node4</title>
<path fill="none" stroke="midnightblue" d="M72.2,-409.78C78.55,-456.98 101.38,-576.76 174,-637 181.94,-643.59 191.63,-648.04 201.65,-651.02"/>
<polygon fill="midnightblue" stroke="midnightblue" points="75.65,-409.15 70.95,-399.66 68.7,-410.01 75.65,-409.15"/>
</g>
<!-- Node5 -->
<g id="node6" class="node">
<title>Node5</title>
<g id="a_node6"><a xlink:href="classbustub_1_1HashJoinExecutor.html" target="_top" xlink:title=" ">
<polygon fill="white" stroke="black" points="193,-608.5 193,-627.5 333,-627.5 333,-608.5 193,-608.5"/>
<text text-anchor="middle" x="263" y="-615.5" font-family="Helvetica,sans-Serif" font-size="10.00">bustub::HashJoinExecutor</text>
</a>
</g>
</g>
<!-- Node0&#45;&gt;Node5 -->
<g id="edge5" class="edge">
<title>Node0&#45;&gt;Node5</title>
<path fill="none" stroke="midnightblue" d="M73.86,-409.83C83.12,-451.8 110.69,-549.78 174,-599 179.68,-603.41 186.15,-606.85 192.96,-609.53"/>
<polygon fill="midnightblue" stroke="midnightblue" points="77.23,-408.85 71.76,-399.78 70.38,-410.28 77.23,-408.85"/>
</g>
<!-- Node6 -->
<g id="node7" class="node">
<title>Node6</title>
<g id="a_node7"><a xlink:href="classbustub_1_1IndexScanExecutor.html" target="_top" xlink:title=" ">
<polygon fill="white" stroke="black" points="189,-570.5 189,-589.5 337,-589.5 337,-570.5 189,-570.5"/>
<text text-anchor="middle" x="263" y="-577.5" font-family="Helvetica,sans-Serif" font-size="10.00">bustub::IndexScanExecutor</text>
</a>
</g>
</g>
<!-- Node0&#45;&gt;Node6 -->
<g id="edge6" class="edge">
<title>Node0&#45;&gt;Node6</title>
<path fill="none" stroke="midnightblue" d="M76.03,-409.4C88.28,-445.37 119.61,-522.29 174,-561 179.35,-564.81 185.31,-567.88 191.54,-570.35"/>
<polygon fill="midnightblue" stroke="midnightblue" points="79.28,-408.05 72.84,-399.63 72.62,-410.23 79.28,-408.05"/>
</g>
<!-- Node7 -->
<g id="node8" class="node">
<title>Node7</title>
<g id="a_node8"><a xlink:href="classbustub_1_1InitCheckExecutor.html" target="_top" xlink:title=" ">
<polygon fill="white" stroke="black" points="191.5,-532.5 191.5,-551.5 334.5,-551.5 334.5,-532.5 191.5,-532.5"/>
<text text-anchor="middle" x="263" y="-539.5" font-family="Helvetica,sans-Serif" font-size="10.00">bustub::InitCheckExecutor</text>
</a>
</g>
</g>
<!-- Node0&#45;&gt;Node7 -->
<g id="edge7" class="edge">
<title>Node0&#45;&gt;Node7</title>
<path fill="none" stroke="midnightblue" d="M79.14,-408.72C94.47,-438.01 128.23,-494.31 174,-523 180.22,-526.9 187.13,-530.01 194.26,-532.49"/>
<polygon fill="midnightblue" stroke="midnightblue" points="82.14,-406.9 74.5,-399.57 75.9,-410.07 82.14,-406.9"/>
</g>
<!-- Node8 -->
<g id="node9" class="node">
<title>Node8</title>
<g id="a_node9"><a xlink:href="classbustub_1_1InsertExecutor.html" target="_top" xlink:title=" ">
<polygon fill="white" stroke="black" points="200.5,-494.5 200.5,-513.5 325.5,-513.5 325.5,-494.5 200.5,-494.5"/>
<text text-anchor="middle" x="263" y="-501.5" font-family="Helvetica,sans-Serif" font-size="10.00">bustub::InsertExecutor</text>
</a>
</g>
</g>
<!-- Node0&#45;&gt;Node8 -->
<g id="edge8" class="edge">
<title>Node0&#45;&gt;Node8</title>
<path fill="none" stroke="midnightblue" d="M83.84,-407.35C102.11,-429.02 136.4,-465.59 174,-485 182.19,-489.23 191.29,-492.52 200.43,-495.08"/>
<polygon fill="midnightblue" stroke="midnightblue" points="86.5,-405.08 77.44,-399.59 81.1,-409.53 86.5,-405.08"/>
</g>
<!-- Node9 -->
<g id="node10" class="node">
<title>Node9</title>
<g id="a_node10"><a xlink:href="classbustub_1_1LimitExecutor.html" target="_top" xlink:title=" ">
<polygon fill="white" stroke="black" points="202,-456.5 202,-475.5 324,-475.5 324,-456.5 202,-456.5"/>
<text text-anchor="middle" x="263" y="-463.5" font-family="Helvetica,sans-Serif" font-size="10.00">bustub::LimitExecutor</text>
</a>
</g>
</g>
<!-- Node0&#45;&gt;Node9 -->
<g id="edge9" class="edge">
<title>Node0&#45;&gt;Node9</title>
<path fill="none" stroke="midnightblue" d="M92.78,-405C113.25,-417.87 144.56,-436.02 174,-447 184.1,-450.77 195.16,-453.89 205.91,-456.43"/>
<polygon fill="midnightblue" stroke="midnightblue" points="94.49,-401.94 84.17,-399.51 90.72,-407.84 94.49,-401.94"/>
</g>
<!-- Node10 -->
<g id="node11" class="node">
<title>Node10</title>
<g id="a_node11"><a xlink:href="classbustub_1_1MockScanExecutor.html" target="_top" xlink:title=" ">
<polygon fill="white" stroke="black" points="189.5,-418.5 189.5,-437.5 336.5,-437.5 336.5,-418.5 189.5,-418.5"/>
<text text-anchor="middle" x="263" y="-425.5" font-family="Helvetica,sans-Serif" font-size="10.00">bustub::MockScanExecutor</text>
</a>
</g>
</g>
<!-- Node0&#45;&gt;Node10 -->
<g id="edge10" class="edge">
<title>Node0&#45;&gt;Node10</title>
<path fill="none" stroke="midnightblue" d="M128.3,-401.54C155.68,-406.96 187.93,-413.34 213.9,-418.48"/>
<polygon fill="midnightblue" stroke="midnightblue" points="128.94,-398.1 118.45,-399.59 127.58,-404.96 128.94,-398.1"/>
</g>
<!-- Node11 -->
<g id="node12" class="node">
<title>Node11</title>
<g id="a_node12"><a xlink:href="classbustub_1_1NestedIndexJoinExecutor.html" target="_top" xlink:title=" ">
<polygon fill="white" stroke="black" points="174.5,-380.5 174.5,-399.5 351.5,-399.5 351.5,-380.5 174.5,-380.5"/>
<text text-anchor="middle" x="263" y="-387.5" font-family="Helvetica,sans-Serif" font-size="10.00">bustub::NestedIndexJoinExecutor</text>
</a>
</g>
</g>
<!-- Node0&#45;&gt;Node11 -->
<g id="edge11" class="edge">
<title>Node0&#45;&gt;Node11</title>
<path fill="none" stroke="midnightblue" d="M148.46,-390C156.93,-390 165.6,-390 174.17,-390"/>
<polygon fill="midnightblue" stroke="midnightblue" points="148.23,-386.5 138.23,-390 148.23,-393.5 148.23,-386.5"/>
</g>
<!-- Node12 -->
<g id="node13" class="node">
<title>Node12</title>
<g id="a_node13"><a xlink:href="classbustub_1_1NestedLoopJoinExecutor.html" target="_top" xlink:title=" ">
<polygon fill="white" stroke="black" points="176.5,-342.5 176.5,-361.5 349.5,-361.5 349.5,-342.5 176.5,-342.5"/>
<text text-anchor="middle" x="263" y="-349.5" font-family="Helvetica,sans-Serif" font-size="10.00">bustub::NestedLoopJoinExecutor</text>
</a>
</g>
</g>
<!-- Node0&#45;&gt;Node12 -->
<g id="edge12" class="edge">
<title>Node0&#45;&gt;Node12</title>
<path fill="none" stroke="midnightblue" d="M128.3,-378.46C155.68,-373.04 187.93,-366.66 213.9,-361.52"/>
<polygon fill="midnightblue" stroke="midnightblue" points="127.58,-375.04 118.45,-380.41 128.94,-381.9 127.58,-375.04"/>
</g>
<!-- Node13 -->
<g id="node14" class="node">
<title>Node13</title>
<g id="a_node14"><a xlink:href="classbustub_1_1ProjectionExecutor.html" target="_top" xlink:title=" ">
<polygon fill="white" stroke="black" points="190,-304.5 190,-323.5 336,-323.5 336,-304.5 190,-304.5"/>
<text text-anchor="middle" x="263" y="-311.5" font-family="Helvetica,sans-Serif" font-size="10.00">bustub::ProjectionExecutor</text>
</a>
</g>
</g>
<!-- Node0&#45;&gt;Node13 -->
<g id="edge13" class="edge">
<title>Node0&#45;&gt;Node13</title>
<path fill="none" stroke="midnightblue" d="M92.78,-375C113.25,-362.13 144.56,-343.98 174,-333 184.1,-329.23 195.16,-326.11 205.91,-323.57"/>
<polygon fill="midnightblue" stroke="midnightblue" points="90.72,-372.16 84.17,-380.49 94.49,-378.06 90.72,-372.16"/>
</g>
<!-- Node14 -->
<g id="node15" class="node">
<title>Node14</title>
<g id="a_node15"><a xlink:href="classbustub_1_1SeqScanExecutor.html" target="_top" xlink:title=" ">
<polygon fill="white" stroke="black" points="193.5,-266.5 193.5,-285.5 332.5,-285.5 332.5,-266.5 193.5,-266.5"/>
<text text-anchor="middle" x="263" y="-273.5" font-family="Helvetica,sans-Serif" font-size="10.00">bustub::SeqScanExecutor</text>
</a>
</g>
</g>
<!-- Node0&#45;&gt;Node14 -->
<g id="edge14" class="edge">
<title>Node0&#45;&gt;Node14</title>
<path fill="none" stroke="midnightblue" d="M83.84,-372.65C102.11,-350.98 136.4,-314.41 174,-295 181.5,-291.13 189.75,-288.05 198.1,-285.59"/>
<polygon fill="midnightblue" stroke="midnightblue" points="81.1,-370.47 77.44,-380.41 86.5,-374.92 81.1,-370.47"/>
</g>
<!-- Node15 -->
<g id="node16" class="node">
<title>Node15</title>
<g id="a_node16"><a xlink:href="classbustub_1_1SortExecutor.html" target="_top" xlink:title=" ">
<polygon fill="white" stroke="black" points="204.5,-228.5 204.5,-247.5 321.5,-247.5 321.5,-228.5 204.5,-228.5"/>
<text text-anchor="middle" x="263" y="-235.5" font-family="Helvetica,sans-Serif" font-size="10.00">bustub::SortExecutor</text>
</a>
</g>
</g>
<!-- Node0&#45;&gt;Node15 -->
<g id="edge15" class="edge">
<title>Node0&#45;&gt;Node15</title>
<path fill="none" stroke="midnightblue" d="M79.14,-371.28C94.47,-341.99 128.23,-285.69 174,-257 183.14,-251.27 193.74,-247.25 204.36,-244.43"/>
<polygon fill="midnightblue" stroke="midnightblue" points="75.9,-369.93 74.5,-380.43 82.14,-373.1 75.9,-369.93"/>
</g>
<!-- Node16 -->
<g id="node17" class="node">
<title>Node16</title>
<g id="a_node17"><a xlink:href="classbustub_1_1TopNCheckExecutor.html" target="_top" xlink:title=" ">
<polygon fill="white" stroke="black" points="187,-190.5 187,-209.5 339,-209.5 339,-190.5 187,-190.5"/>
<text text-anchor="middle" x="263" y="-197.5" font-family="Helvetica,sans-Serif" font-size="10.00">bustub::TopNCheckExecutor</text>
</a>
</g>
</g>
<!-- Node0&#45;&gt;Node16 -->
<g id="edge16" class="edge">
<title>Node0&#45;&gt;Node16</title>
<path fill="none" stroke="midnightblue" d="M76.03,-370.6C88.28,-334.63 119.61,-257.71 174,-219 179.35,-215.19 185.31,-212.12 191.54,-209.65"/>
<polygon fill="midnightblue" stroke="midnightblue" points="72.62,-369.77 72.84,-380.37 79.28,-371.95 72.62,-369.77"/>
</g>
<!-- Node17 -->
<g id="node18" class="node">
<title>Node17</title>
<g id="a_node18"><a xlink:href="classbustub_1_1TopNExecutor.html" target="_top" xlink:title=" ">
<polygon fill="white" stroke="black" points="202,-152.5 202,-171.5 324,-171.5 324,-152.5 202,-152.5"/>
<text text-anchor="middle" x="263" y="-159.5" font-family="Helvetica,sans-Serif" font-size="10.00">bustub::TopNExecutor</text>
</a>
</g>
</g>
<!-- Node0&#45;&gt;Node17 -->
<g id="edge17" class="edge">
<title>Node0&#45;&gt;Node17</title>
<path fill="none" stroke="midnightblue" d="M73.86,-370.17C83.12,-328.2 110.69,-230.22 174,-181 182.14,-174.67 191.94,-170.34 201.99,-167.4"/>
<polygon fill="midnightblue" stroke="midnightblue" points="70.38,-369.72 71.76,-380.22 77.23,-371.15 70.38,-369.72"/>
</g>
<!-- Node18 -->
<g id="node19" class="node">
<title>Node18</title>
<g id="a_node19"><a xlink:href="classbustub_1_1TopNPerGroupExecutor.html" target="_top" xlink:title=" ">
<polygon fill="white" stroke="black" points="179.5,-114.5 179.5,-133.5 346.5,-133.5 346.5,-114.5 179.5,-114.5"/>
<text text-anchor="middle" x="263" y="-121.5" font-family="Helvetica,sans-Serif" font-size="10.00">bustub::TopNPerGroupExecutor</text>
</a>
</g>
</g>
<!-- Node0&#45;&gt;Node18 -->
<g id="edge18" class="edge">
<title>Node0&#45;&gt;Node18</title>
<path fill="none" stroke="midnightblue" d="M72.2,-370.22C78.55,-323.02 101.38,-203.24 174,-143 178.57,-139.21 183.72,-136.12 189.19,-133.62"/>
<polygon fill="midnightblue" stroke="midnightblue" points="68.7,-369.99 70.95,-380.34 75.65,-370.85 68.7,-369.99"/>
</g>
<!-- Node19 -->
<g id="node20" class="node">
<title>Node19</title>
<g id="a_node20"><a xlink:href="classbustub_1_1UpdateExecutor.html" target="_top" xlink:title=" ">
<polygon fill="white" stroke="black" points="196.5,-76.5 196.5,-95.5 329.5,-95.5 329.5,-76.5 196.5,-76.5"/>
<text text-anchor="middle" x="263" y="-83.5" font-family="Helvetica,sans-Serif" font-size="10.00">bustub::UpdateExecutor</text>
</a>
</g>
</g>
<!-- Node0&#45;&gt;Node19 -->
<g id="edge19" class="edge">
<title>Node0&#45;&gt;Node19</title>
<path fill="none" stroke="midnightblue" d="M70.97,-370.09C74.64,-317.92 92.04,-176.42 174,-105 180.48,-99.35 188.24,-95.25 196.43,-92.3"/>
<polygon fill="midnightblue" stroke="midnightblue" points="67.46,-370.13 70.35,-380.32 74.45,-370.55 67.46,-370.13"/>
</g>
<!-- Node20 -->
<g id="node21" class="node">
<title>Node20</title>
<g id="a_node21"><a xlink:href="classbustub_1_1ValuesExecutor.html" target="_top" xlink:title=" ">
<polygon fill="white" stroke="black" points="198,-38.5 198,-57.5 328,-57.5 328,-38.5 198,-38.5"/>
<text text-anchor="middle" x="263" y="-45.5" font-family="Helvetica,sans-Serif" font-size="10.00">bustub::ValuesExecutor</text>
</a>
</g>
</g>
<!-- Node0&#45;&gt;Node20 -->
<g id="edge20" class="edge">
<title>Node0&#45;&gt;Node20</title>
<path fill="none" stroke="midnightblue" d="M69.99,-370.15C71.11,-313.51 82.5,-149.88 174,-67 180.72,-60.91 188.91,-56.61 197.56,-53.59"/>
<polygon fill="midnightblue" stroke="midnightblue" points="66.49,-370.24 69.88,-380.27 73.49,-370.31 66.49,-370.24"/>
</g>
<!-- Node21 -->
<g id="node22" class="node">
<title>Node21</title>
<g id="a_node22"><a xlink:href="classbustub_1_1WindowFunctionExecutor.html" target="_top" xlink:title=" ">
<polygon fill="white" stroke="black" points="174,-0.5 174,-19.5 352,-19.5 352,-0.5 174,-0.5"/>
<text text-anchor="middle" x="263" y="-7.5" font-family="Helvetica,sans-Serif" font-size="10.00">bustub::WindowFunctionExecutor</text>
</a>
</g>
</g>
<!-- Node0&#45;&gt;Node21 -->
<g id="edge21" class="edge">
<title>Node0&#45;&gt;Node21</title>
<path fill="none" stroke="midnightblue" d="M69.21,-370.31C67.93,-309.57 72.82,-123.54 174,-29 178,-25.27 182.55,-22.2 187.42,-19.68"/>
<polygon fill="midnightblue" stroke="midnightblue" points="65.72,-370.54 69.51,-380.44 72.71,-370.34 65.72,-370.54"/>
</g>
</g>
</svg>
