<?xml version="1.0" encoding="UTF-8" standalone="no"?>
<!DOCTYPE svg PUBLIC "-//W3C//DTD SVG 1.1//EN"
 "http://www.w3.org/Graphics/SVG/1.1/DTD/svg11.dtd">
<!-- Generated by graphviz version 2.43.0 (0)
 -->
<!-- Title: Graphical Class Hierarchy Pages: 1 -->
<svg width="334pt" height="66pt"
 viewBox="0.00 0.00 334.00 66.00" xmlns="http://www.w3.org/2000/svg" xmlns:xlink="http://www.w3.org/1999/xlink">
<g id="graph0" class="graph" transform="scale(1 1) rotate(0) translate(4 62)">
<title>Graphical Class Hierarchy</title>
<polygon fill="white" stroke="transparent" points="-4,4 -4,-62 330,-62 330,4 -4,4"/>
<!-- Node0 -->
<g id="node1" class="node">
<title>Node0</title>
<g id="a_node1"><a xlink:href="classbustub_1_1BPlusTreePage.html" target="_top" xlink:title=" ">
<polygon fill="white" stroke="black" points="0,-19.5 0,-38.5 126,-38.5 126,-19.5 0,-19.5"/>
<text text-anchor="middle" x="63" y="-26.5" font-family="Helvetica,sans-Serif" font-size="10.00">bustub::BPlusTreePage</text>
</a>
</g>
</g>
<!-- Node1 -->
<g id="node2" class="node">
<title>Node1</title>
<g id="a_node2"><a xlink:href="classbustub_1_1BPlusTreeInternalPage.html" target="_top" xlink:title=" ">
<polygon fill="white" stroke="black" points="162,-38.5 162,-57.5 326,-57.5 326,-38.5 162,-38.5"/>
<text text-anchor="middle" x="244" y="-45.5" font-family="Helvetica,sans-Serif" font-size="10.00">bustub::BPlusTreeInternalPage</text>
</a>
</g>
</g>
<!-- Node0&#45;&gt;Node1 -->
<g id="edge1" class="edge">
<title>Node0&#45;&gt;Node1</title>
<path fill="none" stroke="midnightblue" d="M136.23,-36.67C144.64,-37.56 153.26,-38.47 161.78,-39.38"/>
<polygon fill="midnightblue" stroke="midnightblue" points="136.42,-33.17 126.1,-35.59 135.68,-40.13 136.42,-33.17"/>
</g>
<!-- Node2 -->
<g id="node3" class="node">
<title>Node2</title>
<g id="a_node3"><a xlink:href="classbustub_1_1BPlusTreeLeafPage.html" target="_top" xlink:title=" ">
<polygon fill="white" stroke="black" points="170.5,-0.5 170.5,-19.5 317.5,-19.5 317.5,-0.5 170.5,-0.5"/>
<text text-anchor="middle" x="244" y="-7.5" font-family="Helvetica,sans-Serif" font-size="10.00">bustub::BPlusTreeLeafPage</text>
</a>
</g>
</g>
<!-- Node0&#45;&gt;Node2 -->
<g id="edge2" class="edge">
<title>Node0&#45;&gt;Node2</title>
<path fill="none" stroke="midnightblue" d="M136.26,-21.33C147.46,-20.14 159.03,-18.91 170.24,-17.72"/>
<polygon fill="midnightblue" stroke="midnightblue" points="135.68,-17.87 126.1,-22.41 136.42,-24.83 135.68,-17.87"/>
</g>
</g>
</svg>
