<?xml version="1.0" encoding="UTF-8" standalone="no"?>
<!DOCTYPE svg PUBLIC "-//W3C//DTD SVG 1.1//EN"
 "http://www.w3.org/Graphics/SVG/1.1/DTD/svg11.dtd">
<!-- Generated by graphviz version 2.43.0 (0)
 -->
<!-- Title: fmt::formatter&lt; std::unique_ptr&lt; T &gt;, std::enable_if_t&lt; std::is_base_of&lt; bustub::BoundExpression, T &gt;::value, char &gt; &gt; Pages: 1 -->
<svg width="205pt" height="139pt"
 viewBox="0.00 0.00 205.00 139.00" xmlns="http://www.w3.org/2000/svg" xmlns:xlink="http://www.w3.org/1999/xlink">
<g id="graph0" class="graph" transform="scale(1 1) rotate(0) translate(4 135)">
<title>fmt::formatter&lt; std::unique_ptr&lt; T &gt;, std::enable_if_t&lt; std::is_base_of&lt; bustub::BoundExpression, T &gt;::value, char &gt; &gt;</title>
<polygon fill="white" stroke="transparent" points="-4,4 -4,-135 201,-135 201,4 -4,4"/>
<!-- Node1 -->
<g id="node1" class="node">
<title>Node1</title>
<g id="a_node1"><a xlink:title=" ">
<polygon fill="#bfbfbf" stroke="black" points="0,-0.5 0,-63.5 197,-63.5 197,-0.5 0,-0.5"/>
<text text-anchor="start" x="8" y="-51.5" font-family="Helvetica,sans-Serif" font-size="10.00">fmt::formatter&lt; std</text>
<text text-anchor="start" x="8" y="-40.5" font-family="Helvetica,sans-Serif" font-size="10.00">::unique_ptr&lt; T &gt;, std</text>
<text text-anchor="start" x="8" y="-29.5" font-family="Helvetica,sans-Serif" font-size="10.00">::enable_if_t&lt; std::is</text>
<text text-anchor="start" x="8" y="-18.5" font-family="Helvetica,sans-Serif" font-size="10.00">_base_of&lt; bustub::BoundExpression,</text>
<text text-anchor="middle" x="98.5" y="-7.5" font-family="Helvetica,sans-Serif" font-size="10.00"> T &gt;::value, char &gt; &gt;</text>
</a>
</g>
</g>
<!-- Node2 -->
<g id="node2" class="node">
<title>Node2</title>
<g id="a_node2"><a xlink:title=" ">
<polygon fill="white" stroke="#bfbfbf" points="42,-100.5 42,-130.5 155,-130.5 155,-100.5 42,-100.5"/>
<text text-anchor="start" x="50" y="-118.5" font-family="Helvetica,sans-Serif" font-size="10.00">fmt::formatter&lt; std</text>
<text text-anchor="middle" x="98.5" y="-107.5" font-family="Helvetica,sans-Serif" font-size="10.00">::string &gt;</text>
</a>
</g>
</g>
<!-- Node2&#45;&gt;Node1 -->
<g id="edge1" class="edge">
<title>Node2&#45;&gt;Node1</title>
<path fill="none" stroke="midnightblue" d="M98.5,-90.12C98.5,-81.78 98.5,-72.34 98.5,-63.57"/>
<polygon fill="midnightblue" stroke="midnightblue" points="95,-90.3 98.5,-100.3 102,-90.3 95,-90.3"/>
</g>
</g>
</svg>
