<?xml version="1.0" encoding="UTF-8" standalone="no"?>
<!DOCTYPE svg PUBLIC "-//W3C//DTD SVG 1.1//EN"
 "http://www.w3.org/Graphics/SVG/1.1/DTD/svg11.dtd">
<!-- Generated by graphviz version 2.43.0 (0)
 -->
<!-- Title: fmt::formatter&lt; bustub::WindowFunctionPlanNode::WindowFunction &gt; Pages: 1 -->
<svg width="157pt" height="117pt"
 viewBox="0.00 0.00 157.00 117.00" xmlns="http://www.w3.org/2000/svg" xmlns:xlink="http://www.w3.org/1999/xlink">
<g id="graph0" class="graph" transform="scale(1 1) rotate(0) translate(4 113)">
<title>fmt::formatter&lt; bustub::WindowFunctionPlanNode::WindowFunction &gt;</title>
<polygon fill="white" stroke="transparent" points="-4,4 -4,-113 153,-113 153,4 -4,4"/>
<!-- Node1 -->
<g id="node1" class="node">
<title>Node1</title>
<g id="a_node1"><a xlink:title=" ">
<polygon fill="#bfbfbf" stroke="black" points="0,-0.5 0,-41.5 149,-41.5 149,-0.5 0,-0.5"/>
<text text-anchor="start" x="8" y="-29.5" font-family="Helvetica,sans-Serif" font-size="10.00">fmt::formatter&lt; bustub</text>
<text text-anchor="start" x="8" y="-18.5" font-family="Helvetica,sans-Serif" font-size="10.00">::WindowFunctionPlanNode</text>
<text text-anchor="middle" x="74.5" y="-7.5" font-family="Helvetica,sans-Serif" font-size="10.00">::WindowFunction &gt;</text>
</a>
</g>
</g>
<!-- Node2 -->
<g id="node2" class="node">
<title>Node2</title>
<g id="a_node2"><a xlink:title=" ">
<polygon fill="white" stroke="#bfbfbf" points="18,-78.5 18,-108.5 131,-108.5 131,-78.5 18,-78.5"/>
<text text-anchor="start" x="26" y="-96.5" font-family="Helvetica,sans-Serif" font-size="10.00">fmt::formatter&lt; std</text>
<text text-anchor="middle" x="74.5" y="-85.5" font-family="Helvetica,sans-Serif" font-size="10.00">::string &gt;</text>
</a>
</g>
</g>
<!-- Node2&#45;&gt;Node1 -->
<g id="edge1" class="edge">
<title>Node2&#45;&gt;Node1</title>
<path fill="none" stroke="midnightblue" d="M74.5,-67.98C74.5,-59.35 74.5,-49.76 74.5,-41.59"/>
<polygon fill="midnightblue" stroke="midnightblue" points="71,-68.23 74.5,-78.23 78,-68.23 71,-68.23"/>
</g>
</g>
</svg>
