<?xml version="1.0" encoding="UTF-8" standalone="no"?>
<!DOCTYPE svg PUBLIC "-//W3C//DTD SVG 1.1//EN"
 "http://www.w3.org/Graphics/SVG/1.1/DTD/svg11.dtd">
<!-- Generated by graphviz version 2.43.0 (0)
 -->
<!-- Title: bustub::UndoLog Pages: 1 -->
<svg width="208pt" height="95pt"
 viewBox="0.00 0.00 208.00 95.00" xmlns="http://www.w3.org/2000/svg" xmlns:xlink="http://www.w3.org/1999/xlink">
<g id="graph0" class="graph" transform="scale(1 1) rotate(0) translate(4 91)">
<title>bustub::UndoLog</title>
<polygon fill="white" stroke="transparent" points="-4,4 -4,-91 204,-91 204,4 -4,4"/>
<!-- Node1 -->
<g id="node1" class="node">
<title>Node1</title>
<g id="a_node1"><a xlink:title=" ">
<polygon fill="#bfbfbf" stroke="black" points="55.5,-0.5 55.5,-19.5 153.5,-19.5 153.5,-0.5 55.5,-0.5"/>
<text text-anchor="middle" x="104.5" y="-7.5" font-family="Helvetica,sans-Serif" font-size="10.00">bustub::UndoLog</text>
</a>
</g>
</g>
<!-- Node2 -->
<g id="node2" class="node">
<title>Node2</title>
<g id="a_node2"><a xlink:href="structbustub_1_1UndoLink.html" target="_top" xlink:title=" ">
<polygon fill="white" stroke="black" points="0,-67.5 0,-86.5 101,-86.5 101,-67.5 0,-67.5"/>
<text text-anchor="middle" x="50.5" y="-74.5" font-family="Helvetica,sans-Serif" font-size="10.00">bustub::UndoLink</text>
</a>
</g>
</g>
<!-- Node2&#45;&gt;Node1 -->
<g id="edge1" class="edge">
<title>Node2&#45;&gt;Node1</title>
<path fill="none" stroke="#9a32cd" stroke-dasharray="5,2" d="M55.26,-57.77C57.6,-51.09 60.93,-43.76 65.5,-38 71.44,-30.52 80,-24.27 87.59,-19.68"/>
<polygon fill="#9a32cd" stroke="#9a32cd" points="51.88,-56.83 52.35,-67.42 58.59,-58.85 51.88,-56.83"/>
<text text-anchor="middle" x="101.5" y="-41" font-family="Helvetica,sans-Serif" font-size="10.00"> prev_version_</text>
</g>
<!-- Node3 -->
<g id="node3" class="node">
<title>Node3</title>
<g id="a_node3"><a xlink:href="classbustub_1_1Tuple.html" target="_top" xlink:title=" ">
<polygon fill="white" stroke="black" points="119,-67.5 119,-86.5 200,-86.5 200,-67.5 119,-67.5"/>
<text text-anchor="middle" x="159.5" y="-74.5" font-family="Helvetica,sans-Serif" font-size="10.00">bustub::Tuple</text>
</a>
</g>
</g>
<!-- Node3&#45;&gt;Node1 -->
<g id="edge2" class="edge">
<title>Node3&#45;&gt;Node1</title>
<path fill="none" stroke="#9a32cd" stroke-dasharray="5,2" d="M150.96,-58.26C147.3,-51.56 142.68,-44.09 137.5,-38 131.55,-31.01 123.62,-24.46 117.03,-19.56"/>
<polygon fill="#9a32cd" stroke="#9a32cd" points="147.91,-59.98 155.58,-67.28 154.14,-56.78 147.91,-59.98"/>
<text text-anchor="middle" x="161.5" y="-41" font-family="Helvetica,sans-Serif" font-size="10.00"> tuple_</text>
</g>
</g>
</svg>
