<?xml version="1.0" encoding="UTF-8" standalone="no"?>
<!DOCTYPE svg PUBLIC "-//W3C//DTD SVG 1.1//EN"
 "http://www.w3.org/Graphics/SVG/1.1/DTD/svg11.dtd">
<!-- Generated by graphviz version 2.43.0 (0)
 -->
<!-- Title: fmt::formatter&lt; T, std::enable_if_t&lt; std::is_base_of&lt; bustub::Column, T &gt;::value, char &gt; &gt; Pages: 1 -->
<svg width="168pt" height="128pt"
 viewBox="0.00 0.00 168.00 128.00" xmlns="http://www.w3.org/2000/svg" xmlns:xlink="http://www.w3.org/1999/xlink">
<g id="graph0" class="graph" transform="scale(1 1) rotate(0) translate(4 124)">
<title>fmt::formatter&lt; T, std::enable_if_t&lt; std::is_base_of&lt; bustub::Column, T &gt;::value, char &gt; &gt;</title>
<polygon fill="white" stroke="transparent" points="-4,4 -4,-124 164,-124 164,4 -4,4"/>
<!-- Node1 -->
<g id="node1" class="node">
<title>Node1</title>
<g id="a_node1"><a xlink:title=" ">
<polygon fill="#bfbfbf" stroke="black" points="0,-0.5 0,-52.5 160,-52.5 160,-0.5 0,-0.5"/>
<text text-anchor="start" x="8" y="-40.5" font-family="Helvetica,sans-Serif" font-size="10.00">fmt::formatter&lt; T,</text>
<text text-anchor="start" x="8" y="-29.5" font-family="Helvetica,sans-Serif" font-size="10.00"> std::enable_if_t&lt; std</text>
<text text-anchor="start" x="8" y="-18.5" font-family="Helvetica,sans-Serif" font-size="10.00">::is_base_of&lt; bustub::</text>
<text text-anchor="middle" x="80" y="-7.5" font-family="Helvetica,sans-Serif" font-size="10.00">Column, T &gt;::value, char &gt; &gt;</text>
</a>
</g>
</g>
<!-- Node2 -->
<g id="node2" class="node">
<title>Node2</title>
<g id="a_node2"><a xlink:title=" ">
<polygon fill="white" stroke="#bfbfbf" points="23.5,-89.5 23.5,-119.5 136.5,-119.5 136.5,-89.5 23.5,-89.5"/>
<text text-anchor="start" x="31.5" y="-107.5" font-family="Helvetica,sans-Serif" font-size="10.00">fmt::formatter&lt; std</text>
<text text-anchor="middle" x="80" y="-96.5" font-family="Helvetica,sans-Serif" font-size="10.00">::string &gt;</text>
</a>
</g>
</g>
<!-- Node2&#45;&gt;Node1 -->
<g id="edge1" class="edge">
<title>Node2&#45;&gt;Node1</title>
<path fill="none" stroke="midnightblue" d="M80,-79.14C80,-70.63 80,-61.07 80,-52.5"/>
<polygon fill="midnightblue" stroke="midnightblue" points="76.5,-79.2 80,-89.2 83.5,-79.21 76.5,-79.2"/>
</g>
</g>
</svg>
